<svg width="458" height="415" viewBox="0 0 458 415" fill="none" xmlns="http://www.w3.org/2000/svg">
<g clip-path="url(#clip0_910:9367)">
<path d="M229.811 414.76C229.699 414.572 227.06 410.041 226.145 400.632C225.306 391.999 225.846 377.448 233.184 357.151C247.088 318.7 229.98 287.676 229.806 287.367L230.65 286.863C230.694 286.941 235.108 294.851 237.716 307.447C241.162 324.146 239.907 341.509 234.099 357.501C220.219 395.887 230.538 414.058 230.644 414.237L229.811 414.76Z" fill="#3F3D56"/>
<path d="M224.375 285.109C227.876 285.109 230.715 282.19 230.715 278.589C230.715 274.988 227.876 272.069 224.375 272.069C220.873 272.069 218.034 274.988 218.034 278.589C218.034 282.19 220.873 285.109 224.375 285.109Z" fill="#4D616B"/>
<path d="M244.372 309.181C247.874 309.181 250.712 306.262 250.712 302.662C250.712 299.061 247.874 296.142 244.372 296.142C240.87 296.142 238.031 299.061 238.031 302.662C238.031 306.262 240.87 309.181 244.372 309.181Z" fill="#3F3D56"/>
<path d="M230.715 325.23C234.217 325.23 237.056 322.311 237.056 318.71C237.056 315.109 234.217 312.19 230.715 312.19C227.213 312.19 224.375 315.109 224.375 318.71C224.375 322.311 227.213 325.23 230.715 325.23Z" fill="#4D616B"/>
<path d="M247.298 338.77C250.8 338.77 253.639 335.851 253.639 332.251C253.639 328.65 250.8 325.731 247.298 325.731C243.796 325.731 240.958 328.65 240.958 332.251C240.958 335.851 243.796 338.77 247.298 338.77Z" fill="#4D616B"/>
<path d="M225.838 359.834C229.34 359.834 232.178 356.915 232.178 353.314C232.178 349.713 229.34 346.795 225.838 346.795C222.336 346.795 219.497 349.713 219.497 353.314C219.497 356.915 222.336 359.834 225.838 359.834Z" fill="#3F3D56"/>
<path d="M233.642 415C233.642 415 227.301 398.952 246.323 386.915L233.642 415Z" fill="#3F3D56"/>
<path d="M225.844 414.709C225.844 414.709 222.958 397.643 200.624 397.789L225.844 414.709Z" fill="#3F3D56"/>
<path d="M80.4927 229.461H79.5172V355.3H80.4927V229.461Z" fill="#3F3D56"/>
<path d="M110.245 210.098H109.269V374.664H110.245V210.098Z" fill="#3F3D56"/>
<path d="M139.996 204.616H139.021V380.145H139.996V204.616Z" fill="#3F3D56"/>
<path d="M169.748 210.098H168.773V374.664H169.748V210.098Z" fill="#3F3D56"/>
<path d="M199.5 229.461H198.525V355.3H199.5V229.461Z" fill="#3F3D56"/>
<path d="M214.669 250.254H64.3486V251.257H214.669V250.254Z" fill="#3F3D56"/>
<path d="M224.862 291.879H54.155V292.882H224.862V291.879Z" fill="#3F3D56"/>
<path d="M214.669 333.505H64.3486V334.508H214.669V333.505Z" fill="#3F3D56"/>
<path d="M372.646 251.257C419.786 251.257 458 211.963 458 163.492C458 115.022 419.786 75.7281 372.646 75.7281C325.507 75.7281 287.293 115.022 287.293 163.492C287.293 211.963 325.507 251.257 372.646 251.257Z" fill="#4D616B"/>
<path d="M228.277 146.21H227.301V272.049H228.277V146.21Z" fill="#3F3D56"/>
<path d="M258.028 126.847H257.053V291.413H258.028V126.847Z" fill="#3F3D56"/>
<path d="M287.78 121.366H286.805V296.894H287.78V121.366Z" fill="#3F3D56"/>
<path d="M317.532 126.847H316.557V291.413H317.532V126.847Z" fill="#3F3D56"/>
<path d="M347.284 146.21H346.309V272.049H347.284V146.21Z" fill="#3F3D56"/>
<path d="M362.452 167.003H212.132V168.006H362.452V167.003Z" fill="#3F3D56"/>
<path d="M372.646 208.628H201.939V209.631H372.646V208.628Z" fill="#3F3D56"/>
<path d="M362.452 250.254H212.132V251.257H362.452V250.254Z" fill="#3F3D56"/>
<path d="M353.266 16.589H353.266C329.787 16.589 310.753 38.3089 310.753 65.1017V99.1422H320.935L326.83 86.5299L325.356 99.1422H390.8L396.159 87.6765L394.82 99.1422H402.188V72.4143C402.188 41.5829 380.285 16.589 353.266 16.589Z" fill="#2F2E41"/>
<path d="M332.745 77.771C332.745 77.771 346.015 109.607 328.322 115.974L346.015 176.008L376.092 174.189L384.053 154.178L382.284 124.161L379.63 104.149C379.63 104.149 361.053 108.697 362.822 75.0421L332.745 77.771Z" fill="#FFB8B8"/>
<path d="M325.668 115.065C325.668 115.065 296.476 112.336 299.13 134.166C301.784 155.997 304.438 160.545 304.438 160.545L307.091 193.29L291.168 203.296H276.13C276.13 203.296 230.13 214.211 253.13 226.036C276.13 237.861 284.091 216.94 284.091 216.94C284.091 216.94 326.553 216.94 329.207 209.663C331.861 202.386 325.668 115.065 325.668 115.065Z" fill="#FFB8B8"/>
<path d="M382.284 105.969C382.284 105.969 409.707 95.963 411.476 117.793C413.246 139.624 413.246 141.443 413.246 141.443L418.553 172.37C418.553 172.37 429.169 199.658 429.169 207.844C429.169 216.03 437.13 241.499 437.13 241.499C437.13 241.499 447.746 276.974 436.246 276.064C424.746 275.155 422.976 237.861 422.976 237.861L399.092 188.742L392.015 158.726L382.284 105.969Z" fill="#FFB8B8"/>
<path d="M330.091 111.426H323.015L322.13 149.63C322.13 149.63 310.63 166.002 324.784 180.556L328.322 204.206L392.899 201.477L397.322 176.918C397.322 176.918 406.169 156.906 393.784 138.714L382.284 101.421H376.092C376.092 101.421 390.434 155.795 360.169 156.906C335.399 157.816 330.091 111.426 330.091 111.426Z" fill="white"/>
<path d="M432.818 337.306C412.873 360.379 388.585 379.055 361.423 392.206C361.414 346.689 361.936 309.718 361.936 309.718C361.936 309.718 358.18 348.785 353.41 395.882C326.16 407.711 296.875 413.786 267.295 413.746C266.769 413.746 266.242 413.746 265.715 413.736C290.053 323.815 325.555 220.755 326.536 217.911C326.543 217.892 326.55 217.872 326.555 217.851L328.696 210.509L329.609 207.385L330.564 204.11L331.862 199.656L389.361 197.841L390.971 201.557L396.438 214.21C396.915 214.352 397.368 214.571 397.779 214.857C408.129 221.843 421.176 275.164 432.818 337.306Z" fill="#2F2E41"/>
<path d="M395.553 190.562L325.668 193.29C325.668 193.29 322.479 217.85 325.668 217.85C326.553 217.85 399.092 224.217 398.207 213.302C397.323 202.386 395.553 190.562 395.553 190.562Z" fill="#3F3D56"/>
<path d="M346.418 88.1889C360.145 88.1889 371.274 76.7463 371.274 62.6312C371.274 48.516 360.145 37.0734 346.418 37.0734C332.69 37.0734 321.562 48.516 321.562 62.6312C321.562 76.7463 332.69 88.1889 346.418 88.1889Z" fill="#FFB8B8"/>
<path d="M365.352 29.9526C361.084 24.3012 354.788 20.7216 347.76 20.7216H346.925C330.832 20.7216 317.787 35.695 317.787 54.1656V54.1657H323.179L324.05 47.35L325.327 54.1657H357.308L359.987 48.3995L359.317 54.1657H365.609C368.545 69.1579 364.327 84.1501 352.954 99.1423H363.671L369.03 87.6098L367.691 99.1423H388.121L392.14 72.6175C392.14 52.753 380.915 35.9083 365.352 29.9526Z" fill="#2F2E41"/>
<path d="M371.226 32.7457C380.02 32.7457 387.149 25.4153 387.149 16.3728C387.149 7.33037 380.02 0 371.226 0C362.432 0 355.303 7.33037 355.303 16.3728C355.303 25.4153 362.432 32.7457 371.226 32.7457Z" fill="#2F2E41"/>
<path d="M254.9 217.301C259.322 217.301 262.906 213.616 262.906 209.07C262.906 204.523 259.322 200.838 254.9 200.838C250.479 200.838 246.895 204.523 246.895 209.07C246.895 213.616 250.479 217.301 254.9 217.301Z" fill="#4D616B"/>
<path d="M254.9 209.07H80.3803V136.632H225.547L254.9 209.07Z" fill="#EFEFEF"/>
<path d="M255.698 209.618H59.0323V120.717H220.033L220.169 121.057L255.698 209.618ZM60.0997 208.521H254.103L219.319 121.815H60.0997V208.521Z" fill="#3F3D56"/>
<path d="M196.193 148.156H109.2V156.387H196.193V148.156Z" fill="#3F3D56"/>
<path d="M196.193 165.168H109.2V173.399H196.193V165.168Z" fill="#3F3D56"/>
<path d="M196.193 182.18H109.2V190.411H196.193V182.18Z" fill="#3F3D56"/>
<path d="M5.85282 294.059C4.69524 294.059 3.56366 293.706 2.60117 293.045C1.63867 292.383 0.888504 291.443 0.445518 290.344C0.00253108 289.244 -0.113378 288.034 0.112454 286.867C0.338287 285.699 0.895718 284.627 1.71425 283.785C2.53278 282.944 3.57566 282.37 4.71099 282.138C5.84633 281.906 7.02314 282.025 8.0926 282.481C9.16207 282.936 10.0762 283.708 10.7193 284.697C11.3624 285.687 11.7056 286.85 11.7056 288.041C11.7039 289.636 11.0867 291.166 9.98943 292.294C8.8922 293.422 7.40454 294.057 5.85282 294.059V294.059ZM5.85282 283.026C4.88817 283.026 3.94519 283.32 3.14311 283.871C2.34103 284.422 1.71589 285.205 1.34674 286.122C0.977582 287.038 0.880992 288.046 1.06919 289.019C1.25738 289.992 1.7219 290.886 2.40401 291.587C3.08612 292.288 3.95518 292.766 4.9013 292.959C5.84741 293.153 6.82809 293.054 7.71931 292.674C8.61053 292.294 9.37226 291.652 9.90819 290.827C10.4441 290.002 10.7302 289.033 10.7302 288.041C10.7287 286.711 10.2144 285.436 9.30004 284.496C8.38567 283.556 7.14593 283.027 5.85282 283.026V283.026Z" fill="#2F2E41"/>
<path d="M211.593 67.5214H201.965V57.621H211.593V67.5214ZM202.705 66.7598H210.853V58.3826H202.705V66.7598Z" fill="#3F3D56"/>
<path d="M29.4941 69.5676L22.9267 62.3277L29.9678 55.5748L36.5352 62.8147L29.4941 69.5676ZM23.9735 62.3651L29.5306 68.4912L35.4884 62.7772L29.9313 56.6512L23.9735 62.3651Z" fill="#2F2E41"/>
</g>
<defs>
<clipPath id="clip0_910:9367">
<rect width="458" height="415" fill="white"/>
</clipPath>
</defs>
</svg>
