<svg width="617" height="425" viewBox="0 0 617 425" fill="none" xmlns="http://www.w3.org/2000/svg">
<g clip-path="url(#clip0_910:9306)">
<path d="M84.6731 422.568C60.1375 416.171 38.4565 401.706 23.1055 381.493C7.75447 361.28 -0.37755 336.488 0.0130121 311.093C0.110323 304.766 0.774393 298.306 3.42946 292.564C6.08454 286.822 11.0163 281.855 17.1854 280.495C23.918 279.01 31.0224 282.045 36.0398 286.781C41.0572 291.518 44.347 297.766 47.3738 303.971C65.6048 341.345 79.4563 381.447 84.6423 422.719L84.6731 422.568Z" fill="#F2F2F2"/>
<path d="M14.131 281.742L26.9083 310.825L39.6856 339.908C43.7322 349.119 47.7711 358.334 51.9537 367.484C56.0996 376.553 60.3875 385.56 64.9619 394.421C69.5298 403.27 74.3847 411.974 79.6544 420.424C80.3106 421.476 80.9733 422.524 81.6424 423.568C82.1055 424.292 83.263 423.621 82.7967 422.893C77.4259 414.505 72.4771 405.854 67.8356 397.043C63.1891 388.222 58.8462 379.243 54.6638 370.193C50.459 361.094 46.4159 351.922 42.3836 342.746C38.1392 333.087 33.8955 323.428 29.6526 313.768L16.8753 284.685L15.2852 281.066C14.9394 280.279 13.7872 280.96 14.1309 281.742L14.131 281.742Z" fill="white"/>
<path d="M79.343 422.77C64.8806 426.085 49.7263 424.438 36.3092 418.096C22.8921 411.753 11.9893 401.081 5.34857 387.79C3.694 384.479 2.29791 380.945 2.12904 377.246C1.96016 373.547 3.18233 369.635 6.01857 367.26C9.1139 364.668 13.6203 364.323 17.5016 365.425C21.3828 366.527 24.7747 368.881 28.0183 371.284C47.555 385.758 65.5532 402.832 79.3677 422.857L79.343 422.77Z" fill="#F2F2F2"/>
<path d="M4.76882 368.734L19.24 380.377L33.7111 392.021C38.2941 395.709 42.8742 399.401 47.5114 403.02C52.108 406.608 56.7613 410.124 61.5242 413.488C66.2804 416.846 71.1465 420.052 76.1595 423.014C76.7838 423.383 77.4103 423.748 78.039 424.109C78.4743 424.359 78.8946 423.698 78.4562 423.446C73.4076 420.544 68.507 417.391 63.7226 414.071C58.9331 410.748 54.2589 407.261 49.6486 403.694C45.0137 400.107 40.4428 396.438 35.8765 392.765C31.07 388.898 26.2638 385.031 21.458 381.163L6.9868 369.519L5.18595 368.07C4.79433 367.755 4.37961 368.42 4.76882 368.734V368.734Z" fill="white"/>
<path d="M611.412 0H222.648C221.167 0.00164681 219.747 0.591969 218.699 1.64144C217.651 2.69091 217.062 4.11381 217.06 5.59799V269.503C217.062 270.987 217.651 272.41 218.699 273.46C219.747 274.509 221.167 275.099 222.648 275.101H611.412C612.894 275.099 614.314 274.509 615.362 273.46C616.409 272.41 616.998 270.987 617 269.503V5.59799C616.998 4.11381 616.409 2.69091 615.362 1.64144C614.314 0.591969 612.894 0.00164681 611.412 0ZM615.403 269.503C615.403 270.564 614.982 271.58 614.234 272.33C613.485 273.08 612.47 273.501 611.412 273.502H222.648C221.59 273.501 220.575 273.08 219.827 272.33C219.078 271.58 218.657 270.564 218.657 269.503V5.59799C218.657 4.53763 219.078 3.52083 219.827 2.77105C220.575 2.02127 221.59 1.59985 222.648 1.59943H611.412C612.47 1.59985 613.485 2.02127 614.234 2.77105C614.982 3.52083 615.403 4.53763 615.403 5.59799V269.503Z" fill="#3F3D56"/>
<path d="M616.202 22.424H217.859V24.0234H616.202V22.424Z" fill="#3F3D56"/>
<path d="M231.43 16.7939C234.075 16.7939 236.219 14.6457 236.219 11.9957C236.219 9.34565 234.075 7.19739 231.43 7.19739C228.784 7.19739 226.64 9.34565 226.64 11.9957C226.64 14.6457 228.784 16.7939 231.43 16.7939Z" fill="#3F3D56"/>
<path d="M245.2 16.7939C247.845 16.7939 249.99 14.6457 249.99 11.9957C249.99 9.34565 247.845 7.19739 245.2 7.19739C242.555 7.19739 240.41 9.34565 240.41 11.9957C240.41 14.6457 242.555 16.7939 245.2 16.7939Z" fill="#3F3D56"/>
<path d="M258.97 16.7939C261.616 16.7939 263.76 14.6457 263.76 11.9957C263.76 9.34565 261.616 7.19739 258.97 7.19739C256.325 7.19739 254.181 9.34565 254.181 11.9957C254.181 14.6457 256.325 16.7939 258.97 16.7939Z" fill="#3F3D56"/>
<path d="M315.144 59.5786H248.088C246.606 59.5786 245.185 58.9888 244.137 57.939C243.089 56.8892 242.5 55.4653 242.5 53.9806C242.5 52.4959 243.089 51.0721 244.137 50.0222C245.185 48.9724 246.606 48.3826 248.088 48.3826H315.144C316.626 48.3826 318.047 48.9724 319.095 50.0222C320.143 51.0721 320.732 52.4959 320.732 53.9806C320.732 55.4653 320.143 56.8892 319.095 57.939C318.047 58.9888 316.626 59.5786 315.144 59.5786Z" fill="#CCCCCC"/>
<path d="M406.946 86.7689H248.088C246.606 86.7689 245.185 86.1791 244.137 85.1292C243.089 84.0794 242.5 82.6555 242.5 81.1709C242.5 79.6862 243.089 78.2623 244.137 77.2125C245.185 76.1626 246.606 75.5729 248.088 75.5729H406.946C408.428 75.5729 409.85 76.1626 410.898 77.2125C411.946 78.2623 412.534 79.6862 412.534 81.1709C412.534 82.6555 411.946 84.0794 410.898 85.1292C409.85 86.1791 408.428 86.7689 406.946 86.7689Z" fill="#CCCCCC"/>
<path d="M458.212 97.5833C450.729 108.513 446.367 121.283 445.598 134.514C444.828 147.745 447.68 160.936 453.845 172.663C460.011 184.389 469.256 194.206 480.583 201.055C491.91 207.904 504.888 211.523 518.118 211.524V147.995L458.212 97.5833Z" fill="#99A5AB"/>
<path d="M518.118 65.9763C506.32 65.9687 494.698 68.8433 484.26 74.3509C473.821 79.8585 464.88 87.8329 458.212 97.5833L518.118 147.995V65.9763Z" fill="#CCCCCC"/>
<path d="M518.118 212.324H517.32V65.1766H518.118C537.596 65.1766 556.277 72.928 570.05 86.7258C583.823 100.523 591.56 119.237 591.56 138.75C591.56 158.263 583.823 176.977 570.05 190.775C556.277 204.572 537.596 212.324 518.118 212.324ZM518.917 66.7803V210.72C537.832 210.509 555.901 202.834 569.202 189.36C582.503 175.886 589.964 157.7 589.964 138.75C589.964 119.8 582.503 101.614 569.202 88.1403C555.901 74.6662 537.832 66.9909 518.917 66.7803Z" fill="#4D616B" fill-opacity="0.93"/>
<path d="M518.118 212.324H517.32V65.1766H518.118C537.596 65.1766 556.277 72.928 570.05 86.7258C583.823 100.523 591.56 119.237 591.56 138.75C591.56 158.263 583.823 176.977 570.05 190.775C556.277 204.572 537.596 212.324 518.118 212.324ZM518.917 66.7803V210.72C537.832 210.509 555.901 202.834 569.202 189.36C582.503 175.886 589.964 157.7 589.964 138.75C589.964 119.8 582.503 101.614 569.202 88.1403C555.901 74.6662 537.832 66.9909 518.917 66.7803Z" stroke="white"/>
<path d="M294.389 242.313H280.818C279.865 242.312 278.952 241.932 278.279 241.258C277.605 240.583 277.227 239.668 277.226 238.714V199.528C277.227 198.574 277.605 197.659 278.279 196.985C278.952 196.31 279.865 195.931 280.818 195.93H294.389C295.341 195.931 296.254 196.31 296.928 196.985C297.601 197.659 297.98 198.574 297.981 199.528V238.714C297.98 239.668 297.601 240.583 296.928 241.258C296.254 241.932 295.341 242.312 294.389 242.313Z" fill="#CCCCCC"/>
<path d="M334.303 242.313H320.732C319.78 242.312 318.866 241.932 318.193 241.258C317.52 240.583 317.141 239.668 317.14 238.714V181.135C317.141 180.181 317.52 179.266 318.193 178.591C318.866 177.917 319.78 177.537 320.732 177.536H334.303C335.255 177.537 336.168 177.917 336.842 178.591C337.515 179.266 337.894 180.181 337.895 181.135V238.714C337.894 239.668 337.515 240.583 336.842 241.258C336.168 241.932 335.255 242.312 334.303 242.313Z" fill="#697A83" fill-opacity="0.68"/>
<path d="M374.217 242.313H360.646C359.694 242.312 358.781 241.932 358.107 241.258C357.434 240.583 357.055 239.668 357.054 238.714V165.141C357.055 164.187 357.434 163.272 358.107 162.597C358.781 161.923 359.694 161.543 360.646 161.542H374.217C375.169 161.543 376.082 161.923 376.756 162.597C377.429 163.272 377.808 164.187 377.809 165.141V238.714C377.808 239.668 377.429 240.583 376.756 241.258C376.082 241.932 375.169 242.312 374.217 242.313Z" fill="#4D616B"/>
<path d="M294.389 242.713H280.818C279.76 242.712 278.745 242.29 277.997 241.54C277.249 240.791 276.828 239.774 276.826 238.714V150.746C276.828 149.686 277.249 148.669 277.997 147.92C278.745 147.17 279.76 146.749 280.818 146.747H294.389C295.447 146.749 296.461 147.17 297.21 147.92C297.958 148.669 298.379 149.686 298.38 150.746V238.714C298.379 239.774 297.958 240.791 297.21 241.54C296.461 242.29 295.447 242.712 294.389 242.713ZM280.818 148.347C280.183 148.347 279.574 148.6 279.125 149.05C278.676 149.5 278.424 150.11 278.423 150.746V238.714C278.424 239.35 278.676 239.96 279.125 240.41C279.574 240.86 280.183 241.113 280.818 241.113H294.389C295.024 241.113 295.632 240.86 296.081 240.41C296.53 239.96 296.783 239.35 296.783 238.714V150.746C296.783 150.11 296.53 149.5 296.081 149.05C295.632 148.6 295.024 148.347 294.389 148.347H280.818Z" fill="#3F3D56"/>
<path d="M334.303 242.713H320.732C319.674 242.712 318.659 242.29 317.911 241.54C317.163 240.791 316.742 239.774 316.741 238.714V150.746C316.742 149.686 317.163 148.669 317.911 147.92C318.659 147.17 319.674 146.749 320.732 146.747H334.303C335.361 146.749 336.376 147.17 337.124 147.92C337.872 148.669 338.293 149.686 338.294 150.746V238.714C338.293 239.774 337.872 240.791 337.124 241.54C336.376 242.29 335.361 242.712 334.303 242.713ZM320.732 148.347C320.097 148.347 319.488 148.6 319.039 149.05C318.59 149.5 318.338 150.11 318.337 150.746V238.714C318.338 239.35 318.59 239.96 319.039 240.41C319.488 240.86 320.097 241.113 320.732 241.113H334.303C334.938 241.113 335.546 240.86 335.995 240.41C336.444 239.96 336.697 239.35 336.698 238.714V150.746C336.697 150.11 336.444 149.5 335.995 149.05C335.546 148.6 334.938 148.347 334.303 148.347H320.732Z" fill="#3F3D56"/>
<path d="M374.217 242.713H360.646C359.588 242.712 358.573 242.29 357.825 241.54C357.077 240.791 356.656 239.774 356.655 238.714V150.746C356.656 149.686 357.077 148.669 357.825 147.92C358.573 147.17 359.588 146.749 360.646 146.747H374.217C375.275 146.749 376.29 147.17 377.038 147.92C377.786 148.669 378.207 149.686 378.208 150.746V238.714C378.207 239.774 377.786 240.791 377.038 241.54C376.29 242.29 375.275 242.712 374.217 242.713ZM360.646 148.347C360.011 148.347 359.402 148.6 358.953 149.05C358.504 149.5 358.252 150.11 358.251 150.746V238.714C358.252 239.35 358.504 239.96 358.953 240.41C359.402 240.86 360.011 241.113 360.646 241.113H374.217C374.852 241.113 375.461 240.86 375.909 240.41C376.358 239.96 376.611 239.35 376.612 238.714V150.746C376.611 150.11 376.358 149.5 375.909 149.05C375.461 148.6 374.852 148.347 374.217 148.347H360.646Z" fill="#3F3D56"/>
<path d="M89.752 287.099C90.0622 285.965 90.1205 284.777 89.9227 283.618C89.7249 282.459 89.2759 281.358 88.6073 280.392C87.9387 279.426 87.0667 278.618 86.0529 278.026C85.039 277.434 83.9079 277.072 82.7393 276.965L75.8741 249.227L65.8265 260.146L73.8861 284.812C73.8372 286.791 74.5145 288.719 75.7897 290.231C77.0649 291.743 78.8495 292.733 80.8052 293.015C82.7608 293.297 84.7518 292.85 86.4008 291.76C88.0497 290.67 89.2421 289.011 89.752 287.099H89.752Z" fill="#FFB8B8"/>
<path d="M71.3463 278.568C70.8806 278.373 70.4609 278.083 70.1147 277.715C69.7685 277.347 69.5034 276.91 69.3367 276.433L57.8764 241.103C54.9153 232.617 55.132 223.343 58.486 215.005L69.533 187.53C69.7814 186.027 70.3231 184.588 71.127 183.295C71.931 182.002 72.9816 180.88 74.2186 179.994C75.4556 179.108 76.8548 178.474 78.3363 178.13C79.8178 177.786 81.3525 177.738 82.8525 177.989C84.3526 178.239 85.7887 178.783 87.0787 179.59C88.3687 180.397 89.4873 181.451 90.3705 182.691C91.2537 183.931 91.8843 185.334 92.2261 186.818C92.568 188.303 92.6144 189.84 92.3627 191.342L77.1215 235.773L82.4564 271.951C82.5274 272.687 82.371 273.427 82.0083 274.071C81.6457 274.715 81.0944 275.232 80.4288 275.552L74.2751 278.494C73.615 278.809 72.8747 278.915 72.1529 278.798C71.8759 278.754 71.6051 278.676 71.3463 278.568Z" fill="#2F2E41"/>
<path d="M127.999 414.605L137.786 414.605L142.442 376.788L127.997 376.789L127.999 414.605Z" fill="#FFB8B8"/>
<path d="M156.661 423.708L125.902 423.709L125.902 411.804L144.776 411.803C147.928 411.803 150.951 413.057 153.18 415.29C155.408 417.522 156.661 420.551 156.661 423.708Z" fill="#2F2E41"/>
<path d="M79.3038 414.605L89.0907 414.605L93.7463 376.788L79.3022 376.789L79.3038 414.605Z" fill="#FFB8B8"/>
<path d="M107.966 423.708L77.2071 423.709L77.2066 411.804L96.0811 411.803C99.2329 411.803 102.256 413.057 104.484 415.29C106.713 417.522 107.965 420.551 107.966 423.708Z" fill="#2F2E41"/>
<path d="M130.674 260.475L139.277 328.76C140.46 338.147 141.287 347.569 141.76 357.026L144.077 403.464C144.099 403.897 144.033 404.33 143.882 404.737C143.731 405.143 143.5 405.515 143.202 405.829C142.904 406.143 142.545 406.393 142.147 406.564C141.749 406.735 141.321 406.823 140.888 406.823H127.831C127.067 406.823 126.329 406.548 125.75 406.05C125.17 405.551 124.789 404.861 124.674 404.104L112.931 326.601C112.875 326.227 112.688 325.886 112.404 325.637C112.12 325.388 111.757 325.248 111.38 325.242C111.003 325.235 110.636 325.363 110.343 325.602C110.051 325.841 109.853 326.176 109.784 326.547L95.6367 402.454C95.4968 403.136 95.1383 403.754 94.6159 404.213C94.0934 404.673 93.4355 404.949 92.742 405L80.7246 405.764C80.2784 405.797 79.8304 405.735 79.4095 405.583C78.9886 405.431 78.6043 405.193 78.2814 404.882C77.9585 404.572 77.7043 404.197 77.5352 403.782C77.3662 403.368 77.286 402.922 77.3 402.474L81.1807 278.069L130.674 260.475Z" fill="#2F2E41"/>
<path d="M92.5578 163.214C103.386 163.214 112.164 154.42 112.164 143.573C112.164 132.725 103.386 123.931 92.5578 123.931C81.7294 123.931 72.9512 132.725 72.9512 143.573C72.9512 154.42 81.7294 163.214 92.5578 163.214Z" fill="#FFB8B8"/>
<path d="M77.1893 279.669C81.979 290.864 102.734 298.862 107.524 282.867C111.228 270.504 125.9 265.306 132.374 263.586C133.188 263.369 133.884 262.839 134.312 262.112C134.739 261.385 134.863 260.518 134.658 259.7L116.56 188.485C115.506 184.337 113.407 180.529 110.464 177.426C107.52 174.323 103.831 172.029 99.7486 170.764C85.3639 166.301 70.1966 175.49 67.7616 190.373C67.0965 194.546 66.6727 198.754 66.4924 202.976C64.9913 234.397 74.0359 272.295 77.1893 279.669Z" fill="#4D616B"/>
<path d="M142.161 279.648C142.044 278.478 141.672 277.348 141.072 276.338C140.471 275.328 139.657 274.462 138.687 273.801C137.716 273.14 136.613 272.701 135.454 272.513C134.295 272.326 133.11 272.395 131.981 272.717L115.622 249.305L110.164 263.112L126.536 283.227C127.2 285.091 128.524 286.647 130.256 287.598C131.989 288.55 134.009 288.832 135.936 288.391C137.862 287.949 139.559 286.816 140.707 285.204C141.854 283.593 142.372 281.616 142.161 279.648L142.161 279.648Z" fill="#FFB8B8"/>
<path d="M121.925 278.315C121.42 278.301 120.925 278.181 120.469 277.963C120.014 277.744 119.61 277.432 119.284 277.047L95.9124 248.205C90.1043 241.353 86.9785 232.62 87.1165 223.631L87.567 194.016C87.2603 192.524 87.25 190.986 87.5367 189.491C87.8234 187.995 88.4015 186.571 89.2379 185.299C90.0743 184.027 91.1527 182.933 92.4114 182.079C93.67 181.225 95.0844 180.627 96.5736 180.321C98.0628 180.015 99.5976 180.005 101.09 180.293C102.583 180.581 104.005 181.161 105.274 182C106.543 182.839 107.634 183.92 108.486 185.181C109.338 186.442 109.934 187.86 110.239 189.352L111.958 236.301L129.918 268.139C130.248 268.801 130.368 269.548 130.261 270.279C130.154 271.011 129.825 271.692 129.318 272.231L124.631 277.191C124.129 277.723 123.476 278.089 122.76 278.24C122.486 278.298 122.205 278.323 121.925 278.315Z" fill="#2F2E41"/>
<path d="M77.6758 159.638C78.0981 159.889 78.5723 160.039 79.0617 160.077C79.5512 160.114 80.0427 160.039 80.4983 159.856C80.9539 159.673 81.3613 159.387 81.689 159.021C82.0166 158.655 82.2558 158.218 82.3879 157.744L82.3989 157.7C82.7547 156.209 82.4592 154.652 82.3571 153.123C82.255 151.593 82.4044 149.913 83.4442 148.789C85.3824 146.693 88.8306 147.804 91.6333 147.274C93.2749 146.907 94.7268 145.953 95.7171 144.591C96.7075 143.229 97.1684 141.552 97.0138 139.874C96.9739 139.556 96.9113 139.238 96.8411 138.92C96.6658 138.114 96.6793 137.279 96.8806 136.479C97.0819 135.679 97.4655 134.937 98.0013 134.311C98.5371 133.685 99.2105 133.191 99.9685 132.87C100.727 132.548 101.549 132.407 102.371 132.457C105.203 132.619 108.26 133.479 110.604 131.378C111.463 130.549 112.059 129.484 112.319 128.318C112.578 127.152 112.489 125.935 112.062 124.819C110.724 120.95 106.942 118.924 103.199 117.81C98.5708 116.471 93.7023 116.181 88.9479 116.962C84.1935 117.744 79.6728 119.577 75.7142 122.328C73.3504 123.998 71.1428 126.095 70.1353 128.811C69.1277 131.526 69.6138 134.953 71.8857 136.745C70.1247 138.613 68.8846 140.912 68.2897 143.411C67.6947 145.911 67.7659 148.522 68.496 150.985C69.6182 154.608 74.9737 158.081 77.6758 159.638Z" fill="#2F2E41"/>
<path d="M220.411 425H8.86597C8.65425 425 8.45121 424.916 8.3015 424.766C8.15179 424.616 8.06769 424.412 8.06769 424.2C8.06769 423.988 8.15179 423.785 8.3015 423.635C8.45121 423.485 8.65425 423.401 8.86597 423.401H220.411C220.623 423.401 220.826 423.485 220.975 423.635C221.125 423.785 221.209 423.988 221.209 424.2C221.209 424.412 221.125 424.616 220.975 424.766C220.826 424.916 220.623 425 220.411 425Z" fill="#3F3D56"/>
</g>
<defs>
<clipPath id="clip0_910:9306">
<rect width="617" height="425" fill="white"/>
</clipPath>
</defs>
</svg>
