<svg width="600" height="449" viewBox="0 0 600 449" fill="none" xmlns="http://www.w3.org/2000/svg">
<path d="M512.199 445.63C518.565 430.611 523.054 414.264 520.93 398.087C520.202 392.601 518.616 387.266 516.233 382.279C514.313 378.214 511.834 374.442 508.868 371.073C507.843 369.885 506.436 369.098 504.893 368.848C503.35 368.598 501.769 368.901 500.425 369.706C500.218 369.826 500.01 369.955 499.818 370.092C498.778 370.83 497.958 371.839 497.446 373.012C497.347 373.236 497.264 373.468 497.198 373.704C496.905 374.692 496.826 375.732 496.967 376.753C498.086 385.078 497.844 393.533 496.248 401.779C495.84 403.879 495.342 405.96 494.754 408.022C493.433 406.36 492.028 404.768 490.545 403.251C486.7 399.327 482.265 396.037 477.405 393.501H477.397C477.373 393.485 477.357 393.477 477.333 393.461C471.438 390.436 463.578 391.691 458.985 393.751C458.682 393.879 458.394 394.024 458.114 394.161C455.718 395.4 454.528 396.824 455.55 397.757C455.782 397.958 456.014 398.167 456.229 398.376C463.192 404.859 468.897 412.59 473.051 421.174V421.182C474.703 424.6 476.094 428.139 477.213 431.769C478.755 436.781 480.033 442.339 483.044 446.426C483.352 446.856 483.685 447.267 484.043 447.657L510.945 447.44C511.009 447.407 511.065 447.383 511.129 447.351L512.199 447.391C512.159 447.198 512.111 447.005 512.063 446.812V446.796C512.039 446.691 512.007 446.579 511.984 446.482C511.96 446.402 511.944 446.329 511.928 446.265C511.976 446.144 512.023 446.032 512.079 445.911C512.119 445.815 512.159 445.726 512.199 445.63Z" fill="#F0F0F0"/>
<path d="M512.063 446.796C512.055 446.856 512.032 446.913 511.995 446.962C511.959 447.01 511.91 447.048 511.855 447.073C511.8 447.097 511.739 447.106 511.679 447.1C511.619 447.094 511.562 447.072 511.512 447.037C510.407 446.23 509.194 445.583 507.91 445.115C507.902 445.107 507.902 445.115 507.902 445.115C506.281 444.528 504.614 444.081 502.917 443.779C502.901 443.779 502.894 443.771 502.878 443.771C502.191 443.635 501.504 443.514 500.817 443.385C497.478 442.766 494.083 442.018 491.192 440.103C490.015 439.369 489.006 438.392 488.231 437.237C487.456 436.082 486.932 434.775 486.694 433.402C486.271 430.707 486.806 427.996 487.03 425.309C487.046 425.116 487.062 424.915 487.07 424.722C487.086 424.473 487.094 424.231 487.094 423.99C487.176 421.551 486.689 419.126 485.672 416.911C484.366 414.259 482.651 411.832 480.592 409.719C479.529 408.569 478.422 407.461 477.269 406.397H477.261C477.213 406.348 477.173 406.308 477.125 406.268C477.125 406.26 477.117 406.252 477.109 406.244C472.18 401.734 466.589 398.016 460.535 395.223C460.319 395.126 460.095 395.022 459.872 394.925C459.289 394.66 458.706 394.41 458.114 394.161C458.394 394.024 458.682 393.879 458.985 393.751C465.738 396.627 471.971 400.613 477.429 405.544C477.612 405.705 477.796 405.874 477.972 406.043C479.354 407.33 480.669 408.679 481.918 410.089C483.915 412.255 485.533 414.747 486.702 417.458C487.56 419.652 487.939 422.006 487.813 424.36C487.797 424.81 487.765 425.261 487.725 425.719C487.477 428.43 486.926 431.23 487.541 433.941C488.244 437.03 490.624 439.186 493.388 440.505C495.218 441.327 497.137 441.926 499.107 442.291C503.181 443.152 507.391 443.57 510.953 445.774H510.961C511.017 445.815 511.073 445.847 511.121 445.879C511.129 445.879 511.129 445.879 511.129 445.887C511.386 446.041 511.634 446.21 511.872 446.394C511.888 446.402 511.904 446.418 511.92 446.426C511.943 446.443 511.964 446.462 511.983 446.482C512.02 446.525 512.047 446.575 512.061 446.63C512.075 446.684 512.076 446.741 512.063 446.796Z" fill="white"/>
<path d="M477.762 406.319C479.214 404.506 479.978 402.232 479.919 399.904C479.86 397.576 478.98 395.345 477.439 393.609C477.125 393.259 476.571 393.733 476.884 394.083C478.323 395.697 479.141 397.775 479.192 399.943C479.243 402.111 478.523 404.226 477.161 405.906C476.865 406.272 477.468 406.682 477.762 406.319Z" fill="white"/>
<path d="M487.325 423.965C482.63 424.515 477.901 423.262 474.082 420.456C473.704 420.178 473.295 420.784 473.673 421.062C477.652 423.974 482.576 425.268 487.461 424.685C487.927 424.629 487.788 423.91 487.325 423.965Z" fill="white"/>
<path d="M460.583 395.134C460.567 395.167 460.551 395.191 460.535 395.223C460.095 396.037 459.48 396.743 458.735 397.289C457.99 397.834 457.134 398.206 456.229 398.376C456.014 398.167 455.782 397.958 455.55 397.757C455.587 397.734 455.628 397.72 455.67 397.717C456.54 397.62 457.375 397.317 458.105 396.832C458.836 396.346 459.441 395.693 459.872 394.925C459.912 394.861 459.952 394.789 459.984 394.724C460.01 394.684 460.044 394.65 460.084 394.624C460.124 394.597 460.168 394.579 460.215 394.57C460.262 394.561 460.31 394.562 460.357 394.571C460.403 394.581 460.448 394.6 460.487 394.628C460.564 394.684 460.616 394.768 460.634 394.862C460.652 394.956 460.633 395.053 460.583 395.134Z" fill="white"/>
<path d="M58.5187 4.37878C44.1567 4.39509 30.3875 10.1482 20.232 20.3759C10.0765 30.6036 4.36401 44.4706 4.34782 58.9347V268.011C4.36401 282.475 10.0765 296.342 20.232 306.569C30.3875 316.797 44.1567 322.55 58.5187 322.566H541.481C555.843 322.55 569.612 316.797 579.768 306.569C589.923 296.342 595.636 282.475 595.652 268.011V58.9347C595.636 44.4706 589.923 30.6036 579.768 20.3759C569.612 10.1482 555.843 4.39509 541.481 4.37878H58.5187Z" fill="white"/>
<path d="M306.484 47.4624H76.803C71.901 47.4709 67.2022 49.4358 63.736 52.9267C60.2697 56.4176 58.3187 61.1498 58.3102 66.0866V170.417C58.3082 171.524 58.4101 172.628 58.6146 173.716C58.6871 174.212 58.8031 174.694 58.9189 175.175C59.9711 179.146 62.2934 182.656 65.5265 185.162C68.7595 187.669 72.7229 189.032 76.803 189.041H306.484C306.861 189.041 307.238 189.027 307.6 188.998H307.861V188.983C307.934 188.985 308.007 188.98 308.078 188.968C308.151 188.968 308.238 188.954 308.31 188.954C308.335 188.956 308.36 188.951 308.383 188.939C308.542 188.925 308.702 188.91 308.847 188.895C309.107 188.852 309.368 188.822 309.615 188.779C309.647 188.767 309.682 188.762 309.716 188.764C309.761 188.742 309.811 188.732 309.861 188.735C309.867 188.729 309.874 188.725 309.881 188.723C309.889 188.72 309.897 188.719 309.904 188.72C310.064 188.691 310.223 188.662 310.383 188.618C310.471 188.606 310.558 188.586 310.644 188.56C310.962 188.487 311.281 188.414 311.586 188.312C311.731 188.268 311.861 188.239 312.006 188.195C312.194 188.136 312.397 188.063 312.586 187.99C312.684 187.963 312.781 187.929 312.876 187.888C312.887 187.888 312.898 187.885 312.908 187.88C312.918 187.875 312.927 187.868 312.933 187.859C313.353 187.71 313.764 187.54 314.165 187.348C314.513 187.188 314.847 187.013 315.18 186.837C315.31 186.779 315.426 186.706 315.557 186.633C315.589 186.619 315.618 186.599 315.644 186.575C315.977 186.37 316.31 186.166 316.629 185.976C316.644 185.962 316.644 185.947 316.658 185.947C316.66 185.947 316.662 185.947 316.664 185.946C316.665 185.945 316.667 185.944 316.668 185.943C316.67 185.942 316.671 185.94 316.672 185.938C316.672 185.936 316.673 185.934 316.673 185.933C317.014 185.717 317.343 185.483 317.658 185.232H317.673C317.76 185.159 317.832 185.101 317.904 185.042C318.006 184.969 318.107 184.882 318.194 184.809C318.368 184.663 318.542 184.517 318.702 184.371C318.8 184.296 318.892 184.213 318.977 184.123C319.223 183.904 319.455 183.67 319.687 183.437C319.811 183.318 319.927 183.191 320.035 183.057C320.215 182.883 320.385 182.698 320.542 182.502C320.687 182.313 320.847 182.123 320.991 181.933C321.163 181.734 321.323 181.524 321.47 181.306C321.731 180.955 321.962 180.605 322.194 180.226C322.383 179.919 322.571 179.598 322.745 179.277C322.832 179.116 322.919 178.941 323.006 178.766C323.02 178.766 323.02 178.751 323.02 178.737C323.18 178.43 323.325 178.124 323.455 177.803C323.513 177.671 323.571 177.555 323.615 177.423C323.731 177.175 323.818 176.912 323.919 176.65C324.078 176.168 324.238 175.672 324.368 175.175C324.484 174.694 324.6 174.212 324.673 173.716C324.877 172.628 324.979 171.524 324.977 170.417V66.0866C324.969 61.1498 323.017 56.4176 319.551 52.9267C316.085 49.4358 311.386 47.4709 306.484 47.4624V47.4624Z" fill="#F7FBF2"/>
<path opacity="0.3" d="M319.79 77.587H53.1229V79.0466H319.79V77.587Z" fill="white"/>
<path opacity="0.3" d="M319.79 93.6423H53.1229V95.1019H319.79V93.6423Z" fill="white"/>
<path opacity="0.3" d="M319.79 109.698H53.1229V111.157H319.79V109.698Z" fill="white"/>
<path opacity="0.3" d="M319.79 125.753H53.1229V127.213H319.79V125.753Z" fill="white"/>
<path opacity="0.3" d="M319.79 141.808H53.1229V143.268H319.79V141.808Z" fill="white"/>
<path opacity="0.3" d="M319.79 157.864H53.1229V159.323H319.79V157.864Z" fill="white"/>
<path opacity="0.3" d="M319.485 173.919C319.413 174.415 319.297 174.897 319.181 175.379H53.3258C53.2384 174.896 53.1804 174.409 53.1519 173.919H319.485Z" fill="white"/>
<g opacity="0.1">
<path opacity="0.1" d="M319.79 148.026V170.62C319.792 171.727 319.69 172.832 319.485 173.919C319.413 174.415 319.297 174.897 319.181 175.379C319.05 175.875 318.891 176.371 318.732 176.853C318.63 177.116 318.543 177.378 318.427 177.626C318.384 177.758 318.326 177.875 318.268 178.006C318.137 178.327 317.992 178.634 317.833 178.94C317.833 178.955 317.833 178.969 317.818 178.969C317.732 179.144 317.645 179.32 317.558 179.48C317.384 179.801 317.195 180.122 317.007 180.429C316.775 180.808 316.543 181.159 316.282 181.509C316.136 181.728 315.976 181.937 315.804 182.137C315.659 182.326 315.5 182.516 315.355 182.706C315.197 182.901 315.028 183.086 314.848 183.26C314.74 183.394 314.623 183.521 314.5 183.64C314.268 183.873 314.036 184.107 313.789 184.326C313.705 184.416 313.613 184.499 313.514 184.574C313.355 184.72 313.181 184.866 313.007 185.012C312.92 185.085 312.819 185.172 312.717 185.245C312.645 185.304 312.572 185.362 312.485 185.435H312.471C312.155 185.687 311.826 185.92 311.485 186.136C311.485 186.138 311.485 186.14 311.484 186.141C311.483 186.143 311.482 186.145 311.481 186.146C311.48 186.148 311.478 186.149 311.476 186.149C311.475 186.15 311.473 186.15 311.471 186.15C311.456 186.15 311.456 186.165 311.442 186.18C311.239 186.326 311.021 186.457 310.804 186.588C310.688 186.661 310.572 186.72 310.456 186.778C310.431 186.802 310.401 186.822 310.369 186.836C310.239 186.909 310.123 186.982 309.992 187.041C309.659 187.216 309.326 187.391 308.978 187.552C308.576 187.743 308.165 187.914 307.746 188.062C307.739 188.071 307.73 188.079 307.72 188.084C307.71 188.089 307.699 188.091 307.688 188.092C307.594 188.132 307.497 188.166 307.398 188.194C307.21 188.267 307.007 188.34 306.818 188.398C306.674 188.442 306.543 188.471 306.398 188.515C306.094 188.617 305.775 188.69 305.456 188.763C305.371 188.789 305.284 188.809 305.195 188.821C305.036 188.865 304.877 188.894 304.717 188.923C304.709 188.922 304.701 188.923 304.694 188.926C304.686 188.928 304.679 188.933 304.674 188.938C304.624 188.935 304.574 188.945 304.529 188.967C304.494 188.965 304.46 188.97 304.427 188.982C304.181 189.026 303.92 189.055 303.659 189.099C303.514 189.113 303.355 189.128 303.195 189.142C303.173 189.154 303.148 189.159 303.123 189.157C302.963 189.172 302.818 189.186 302.674 189.201H302.645C302.485 189.215 302.326 189.215 302.166 189.23C301.877 189.245 301.587 189.245 301.297 189.245H71.6156C67.5355 189.236 63.5721 187.872 60.3391 185.366C57.1061 182.859 54.7837 179.349 53.7316 175.379H53.3258C53.2384 174.896 53.1803 174.409 53.1519 173.919C53.1374 173.642 53.1228 173.35 53.1228 173.072V147.618C56.1647 147.708 59.1813 148.204 62.0938 149.092C69.9779 151.515 77.6445 155.616 85.8764 155.616C86.5286 155.616 87.2098 155.587 87.8764 155.528C96.5432 154.799 103.282 149.384 108.891 143.268C109.34 142.786 109.789 142.305 110.21 141.808C111.268 140.626 112.282 139.415 113.268 138.218C116.416 134.213 119.945 130.527 123.804 127.213C124.427 126.702 125.05 126.22 125.688 125.753C129.43 122.943 133.837 121.166 138.471 120.601C139.065 120.542 139.659 120.499 140.253 120.484C146.456 120.294 152.282 122.542 157.587 125.753C158.355 126.22 159.123 126.702 159.862 127.213C162.398 128.944 164.841 130.81 167.181 132.803C170.793 135.998 174.566 139.004 178.485 141.808C178.775 142.013 179.065 142.217 179.355 142.392C179.804 142.699 180.268 142.991 180.732 143.268C184.702 145.838 189.166 147.534 193.833 148.245C193.992 148.274 194.166 148.304 194.34 148.318C201.891 149.209 208.92 146.961 215.34 143.268C216.137 142.801 216.949 142.319 217.732 141.808C222.747 138.451 227.447 134.641 231.775 130.424C232.905 129.358 234.05 128.278 235.239 127.213C235.775 126.731 236.311 126.235 236.862 125.753C245.471 118.134 255.398 111.157 267.123 111.157C267.616 111.157 268.123 111.172 268.63 111.201C277.065 111.61 284.471 115.726 290.688 120.951C292.494 122.46 294.221 124.063 295.862 125.753C295.934 125.826 295.992 125.884 296.065 125.957C296.471 126.366 296.876 126.789 297.253 127.213C301.891 132.102 306.166 137.328 311.21 141.808C311.761 142.319 312.326 142.801 312.905 143.268C314.645 144.722 316.485 146.049 318.413 147.238C318.862 147.515 319.326 147.778 319.79 148.026Z" fill="black"/>
</g>
<g opacity="0.1">
<path opacity="0.1" d="M319.79 125.972V170.62C319.792 171.727 319.69 172.832 319.485 173.919C319.413 174.415 319.297 174.897 319.181 175.379C319.05 175.875 318.891 176.371 318.732 176.853C318.63 177.115 318.543 177.378 318.427 177.626C318.384 177.758 318.326 177.874 318.268 178.006C318.137 178.327 317.992 178.633 317.833 178.94C317.833 178.955 317.833 178.969 317.818 178.969C317.732 179.144 317.645 179.319 317.558 179.48C317.384 179.801 317.195 180.122 317.007 180.429C316.775 180.808 316.543 181.158 316.282 181.509C316.136 181.728 315.976 181.937 315.804 182.136C315.659 182.326 315.5 182.516 315.355 182.706C315.197 182.901 315.028 183.086 314.848 183.26C314.74 183.394 314.623 183.521 314.5 183.64C314.268 183.873 314.036 184.107 313.789 184.326C313.705 184.416 313.613 184.499 313.514 184.574C313.355 184.72 313.181 184.866 313.007 185.012C312.92 185.085 312.819 185.172 312.717 185.245C312.645 185.304 312.572 185.362 312.485 185.435H312.471C312.155 185.686 311.826 185.92 311.485 186.136C311.485 186.138 311.485 186.14 311.484 186.141C311.483 186.143 311.482 186.145 311.481 186.146C311.48 186.147 311.478 186.149 311.476 186.149C311.475 186.15 311.473 186.15 311.471 186.15C311.456 186.15 311.456 186.165 311.442 186.179C311.239 186.325 311.021 186.457 310.804 186.588C310.688 186.661 310.572 186.719 310.456 186.778C310.431 186.802 310.401 186.822 310.369 186.836C310.239 186.909 310.123 186.982 309.992 187.041C309.659 187.216 309.326 187.391 308.978 187.551C308.576 187.743 308.165 187.913 307.746 188.062C307.739 188.071 307.73 188.078 307.72 188.083C307.71 188.088 307.699 188.091 307.688 188.091C307.594 188.132 307.497 188.166 307.398 188.194C307.21 188.267 307.007 188.34 306.818 188.398C306.674 188.442 306.543 188.471 306.398 188.515C306.094 188.617 305.775 188.69 305.456 188.763C305.371 188.789 305.284 188.809 305.195 188.821C305.036 188.865 304.877 188.894 304.717 188.923C304.709 188.922 304.701 188.923 304.694 188.926C304.686 188.928 304.679 188.932 304.674 188.938C304.624 188.935 304.574 188.945 304.529 188.967C304.494 188.965 304.46 188.97 304.427 188.982C304.181 189.026 303.92 189.055 303.659 189.098C303.514 189.113 303.355 189.128 303.195 189.142C303.173 189.154 303.148 189.159 303.123 189.157C303.05 189.157 302.963 189.172 302.891 189.172C302.819 189.184 302.746 189.188 302.674 189.186C302.612 189.199 302.548 189.204 302.485 189.201H302.413C302.34 189.215 302.253 189.215 302.166 189.23C301.877 189.244 301.587 189.244 301.297 189.244H71.6156C67.5355 189.235 63.5721 187.872 60.3391 185.365C57.1061 182.859 54.7837 179.349 53.7316 175.378C53.6157 174.897 53.4997 174.415 53.4273 173.919C53.2228 172.831 53.1208 171.727 53.1229 170.62V144.625C53.6301 144.187 54.1229 143.735 54.6157 143.268C55.1229 142.786 55.6156 142.305 56.1084 141.808C60.4253 137.283 64.357 132.401 67.862 127.213C67.978 127.052 68.0939 126.906 68.1954 126.746C68.4272 126.41 68.6591 126.089 68.9055 125.753C72.4204 120.572 76.3514 115.691 80.6591 111.157C81.1519 110.661 81.6446 110.179 82.1519 109.698C87.5431 104.589 93.6881 100.78 100.934 99.8747C110.92 98.6195 120.21 103.276 128.427 109.698C129.036 110.179 129.63 110.661 130.224 111.157C133.036 113.463 135.703 115.974 138.224 118.47C138.891 119.141 139.572 119.813 140.253 120.484C142.007 122.25 143.804 124.016 145.616 125.753C146.137 126.249 146.645 126.731 147.166 127.213C154.413 133.97 162.253 139.911 171.572 141.808C172.21 141.94 172.862 142.056 173.514 142.144C177.035 142.616 180.609 142.503 184.094 141.808C184.674 141.706 185.239 141.575 185.818 141.429C194.543 139.254 202.63 133.781 209.949 127.213C210.471 126.731 211.007 126.249 211.529 125.753C215.268 122.265 218.819 118.528 222.137 114.85C223.239 113.624 224.369 112.383 225.5 111.157C225.963 110.676 226.413 110.194 226.862 109.698C231.712 104.374 237.018 99.4901 242.717 95.1019C243.398 94.591 244.079 94.1094 244.761 93.6423C252.427 88.3733 260.804 84.9871 270.007 85.5271C277.601 85.965 284.543 89.1176 290.79 93.6423C291.427 94.1094 292.065 94.591 292.703 95.1019C297.456 98.9478 301.794 103.287 305.645 108.048C306.094 108.588 306.543 109.143 306.992 109.698C307.224 109.975 307.442 110.267 307.674 110.544L308.152 111.157C311.992 115.988 315.688 121.009 319.616 125.753L319.79 125.972Z" fill="black"/>
</g>
<g opacity="0.1">
<path opacity="0.1" d="M319.79 107.537V170.62C319.792 171.727 319.69 172.832 319.485 173.919C319.413 174.415 319.297 174.897 319.181 175.379C319.05 175.875 318.891 176.371 318.732 176.853C318.63 177.116 318.543 177.378 318.427 177.626C318.384 177.758 318.326 177.874 318.268 178.006C318.137 178.327 317.992 178.633 317.833 178.94C317.833 178.955 317.833 178.969 317.818 178.969C317.732 179.144 317.645 179.32 317.558 179.48C317.384 179.801 317.195 180.122 317.007 180.429C316.775 180.808 316.543 181.159 316.282 181.509C316.136 181.728 315.976 181.937 315.804 182.136C315.659 182.326 315.5 182.516 315.355 182.706C315.197 182.901 315.028 183.086 314.848 183.26C314.74 183.394 314.623 183.521 314.5 183.64C314.268 183.873 314.036 184.107 313.789 184.326C313.705 184.416 313.613 184.499 313.514 184.574C313.355 184.72 313.181 184.866 313.007 185.012C312.92 185.085 312.819 185.172 312.717 185.245C312.645 185.304 312.572 185.362 312.485 185.435H312.471C312.155 185.687 311.826 185.92 311.485 186.136C311.485 186.138 311.485 186.14 311.484 186.141C311.483 186.143 311.482 186.145 311.481 186.146C311.48 186.148 311.478 186.149 311.476 186.149C311.475 186.15 311.473 186.15 311.471 186.15C311.456 186.15 311.456 186.165 311.442 186.179C311.239 186.325 311.021 186.457 310.804 186.588C310.688 186.661 310.572 186.719 310.456 186.778C310.431 186.802 310.401 186.822 310.369 186.836C310.239 186.909 310.123 186.982 309.992 187.041C309.659 187.216 309.326 187.391 308.978 187.551C308.576 187.743 308.165 187.913 307.746 188.062C307.739 188.071 307.73 188.078 307.72 188.083C307.71 188.089 307.699 188.091 307.688 188.091C307.594 188.132 307.497 188.166 307.398 188.194C307.21 188.267 307.007 188.34 306.818 188.398C306.674 188.442 306.543 188.471 306.398 188.515C306.094 188.617 305.775 188.69 305.456 188.763C305.371 188.789 305.284 188.809 305.195 188.821C305.036 188.865 304.877 188.894 304.717 188.923C304.709 188.922 304.701 188.923 304.694 188.926C304.686 188.928 304.679 188.932 304.674 188.938C304.624 188.935 304.574 188.945 304.529 188.967C304.494 188.965 304.46 188.97 304.427 188.982C304.181 189.026 303.92 189.055 303.659 189.099C303.514 189.113 303.355 189.128 303.195 189.142C303.173 189.154 303.148 189.159 303.123 189.157C303.05 189.157 302.963 189.172 302.891 189.172C302.819 189.184 302.746 189.188 302.674 189.186C302.666 189.194 302.656 189.199 302.645 189.201H302.413C302.05 189.23 301.674 189.244 301.297 189.244H71.6156C67.5355 189.235 63.5721 187.872 60.3391 185.365C57.1061 182.859 54.7837 179.349 53.7316 175.379C53.6157 174.897 53.4997 174.415 53.4273 173.919C53.2228 172.832 53.1208 171.727 53.1229 170.62V132.934C54.5867 131.022 56.0552 129.115 57.5286 127.213C57.9055 126.716 58.2823 126.235 58.6591 125.753C60.6446 123.184 62.6446 120.645 64.7026 118.163C66.6736 115.784 68.7461 113.434 70.9055 111.157C71.3693 110.676 71.833 110.179 72.3113 109.698C77.8093 103.929 84.124 99.0106 91.0504 95.102C91.9925 94.5765 92.949 94.0949 93.92 93.6424C99.062 91.17 104.625 89.7086 110.311 89.3366C117.77 88.9614 125.206 90.4402 131.964 93.6424C132.978 94.0802 133.978 94.5765 134.963 95.102C142.05 98.78 148.703 103.932 154.934 109.698C155.471 110.165 155.978 110.661 156.5 111.157C161.442 115.828 166.123 120.834 170.587 125.753C170.92 126.118 171.253 126.497 171.587 126.862C171.688 126.979 171.804 127.096 171.906 127.213C176.253 132.029 180.891 136.904 185.819 141.429C185.949 141.56 186.094 141.677 186.239 141.808C186.775 142.305 187.311 142.786 187.862 143.268C189.804 145.005 191.804 146.669 193.833 148.245C198.642 152.059 203.881 155.288 209.442 157.864C210.616 158.404 211.804 158.885 213.007 159.323C219.633 161.872 226.784 162.725 233.818 161.805C237.049 161.354 240.216 160.521 243.253 159.323C244.413 158.885 245.543 158.389 246.659 157.864C254.007 154.361 260.645 149.062 266.934 143.268C267.456 142.786 267.978 142.305 268.5 141.808C272.079 138.422 275.558 134.905 278.992 131.504C280.442 130.073 281.92 128.628 283.442 127.213C283.963 126.731 284.5 126.249 285.036 125.753C286.862 124.104 288.746 122.484 290.688 120.951C295.435 117.039 300.656 113.748 306.224 111.157C306.703 110.938 307.195 110.734 307.674 110.544C308.413 110.238 309.152 109.96 309.891 109.698C313.083 108.546 316.411 107.82 319.79 107.537Z" fill="black"/>
</g>
<path d="M110.369 98.0211C112.77 98.0211 114.717 96.0607 114.717 93.6424C114.717 91.2241 112.77 89.2637 110.369 89.2637C107.968 89.2637 106.021 91.2241 106.021 93.6424C106.021 96.0607 107.968 98.0211 110.369 98.0211Z" fill="white"/>
<path d="M177.036 146.187C179.437 146.187 181.384 144.227 181.384 141.808C181.384 139.39 179.437 137.43 177.036 137.43C174.635 137.43 172.688 139.39 172.688 141.808C172.688 144.227 174.635 146.187 177.036 146.187Z" fill="white"/>
<path d="M266.891 114.076C269.292 114.076 271.239 112.116 271.239 109.698C271.239 107.279 269.292 105.319 266.891 105.319C264.49 105.319 262.543 107.279 262.543 109.698C262.543 112.116 264.49 114.076 266.891 114.076Z" fill="white"/>
<path d="M464.659 147.058H362.139C361.653 147.057 361.171 147.153 360.721 147.34C360.272 147.527 359.864 147.801 359.52 148.147C359.175 148.493 358.902 148.904 358.716 149.356C358.53 149.809 358.434 150.294 358.434 150.783C358.434 151.273 358.53 151.758 358.716 152.21C358.902 152.663 359.175 153.073 359.52 153.419C359.864 153.765 360.272 154.04 360.721 154.227C361.171 154.414 361.653 154.509 362.139 154.509H464.659C465.64 154.509 466.581 154.116 467.275 153.418C467.969 152.719 468.358 151.771 468.358 150.783C468.358 149.795 467.969 148.848 467.275 148.149C466.581 147.45 465.64 147.058 464.659 147.058V147.058Z" fill="#E6E6E6"/>
<path d="M464.659 203.472H362.139C361.158 203.472 360.217 203.865 359.523 204.563C358.829 205.262 358.44 206.21 358.44 207.198C358.44 208.186 358.829 209.133 359.523 209.832C360.217 210.531 361.158 210.923 362.139 210.923H464.659C465.64 210.923 466.581 210.531 467.275 209.832C467.969 209.133 468.358 208.186 468.358 207.198C468.358 206.21 467.969 205.262 467.275 204.563C466.581 203.865 465.64 203.472 464.659 203.472V203.472Z" fill="#E6E6E6"/>
<path d="M464.659 259.886H362.139C361.158 259.886 360.217 260.279 359.523 260.978C358.829 261.676 358.44 262.624 358.44 263.612C358.44 264.6 358.829 265.548 359.523 266.246C360.217 266.945 361.158 267.337 362.139 267.337H464.659C465.64 267.337 466.581 266.945 467.275 266.246C467.969 265.548 468.358 264.6 468.358 263.612C468.358 262.624 467.969 261.676 467.275 260.978C466.581 260.279 465.64 259.886 464.659 259.886Z" fill="#E6E6E6"/>
<path d="M526.779 160.366C531.881 160.366 536.017 156.2 536.017 151.062C536.017 145.924 531.881 141.758 526.779 141.758C521.677 141.758 517.541 145.924 517.541 151.062C517.541 156.2 521.677 160.366 526.779 160.366Z" fill="#F2F2F2"/>
<path d="M525.519 155.904C525.359 155.904 525.202 155.866 525.059 155.795C524.917 155.723 524.793 155.618 524.697 155.49L522.177 152.106C522.096 151.997 522.036 151.873 522.003 151.741C521.969 151.61 521.962 151.473 521.981 151.338C522 151.203 522.045 151.074 522.114 150.957C522.182 150.84 522.273 150.737 522.381 150.656C522.489 150.574 522.612 150.515 522.743 150.481C522.874 150.447 523.01 150.44 523.144 150.459C523.278 150.479 523.406 150.524 523.522 150.594C523.638 150.663 523.74 150.755 523.821 150.864L525.47 153.078L529.705 146.68C529.856 146.452 530.091 146.293 530.358 146.24C530.625 146.186 530.903 146.241 531.13 146.393C531.356 146.546 531.514 146.782 531.567 147.051C531.621 147.321 531.566 147.6 531.415 147.828L526.374 155.443C526.283 155.581 526.16 155.694 526.016 155.775C525.873 155.855 525.712 155.899 525.547 155.904L525.519 155.904Z" fill="white"/>
<path d="M526.779 216.78C531.881 216.78 536.017 212.615 536.017 207.476C536.017 202.338 531.881 198.173 526.779 198.173C521.677 198.173 517.541 202.338 517.541 207.476C517.541 212.615 521.677 216.78 526.779 216.78Z" fill="#F2F2F2"/>
<path d="M525.519 212.318C525.359 212.318 525.202 212.281 525.059 212.209C524.917 212.137 524.793 212.033 524.697 211.904L522.177 208.52C522.096 208.411 522.036 208.288 522.003 208.156C521.969 208.024 521.962 207.887 521.981 207.752C522 207.618 522.045 207.488 522.114 207.371C522.182 207.254 522.273 207.152 522.381 207.07C522.489 206.989 522.612 206.929 522.743 206.896C522.874 206.862 523.01 206.854 523.144 206.874C523.278 206.893 523.406 206.939 523.522 207.008C523.639 207.078 523.74 207.169 523.821 207.278L525.47 209.492L529.705 203.095C529.779 202.982 529.876 202.885 529.988 202.809C530.1 202.733 530.226 202.681 530.358 202.654C530.49 202.627 530.627 202.627 530.759 202.654C530.891 202.68 531.017 202.732 531.13 202.808C531.242 202.883 531.338 202.98 531.413 203.093C531.489 203.206 531.541 203.333 531.567 203.466C531.594 203.599 531.594 203.736 531.568 203.87C531.542 204.003 531.49 204.13 531.415 204.243L526.374 211.858C526.283 211.995 526.16 212.109 526.016 212.189C525.873 212.269 525.712 212.313 525.548 212.318L525.519 212.318Z" fill="white"/>
<path d="M526.779 273.194C531.881 273.194 536.017 269.029 536.017 263.891C536.017 258.752 531.881 254.587 526.779 254.587C521.677 254.587 517.541 258.752 517.541 263.891C517.541 269.029 521.677 273.194 526.779 273.194Z" fill="#F2F2F2"/>
<path d="M464.659 90.6433H362.139C361.158 90.6433 360.217 91.0358 359.523 91.7345C358.829 92.4332 358.44 93.3807 358.44 94.3688C358.44 95.3569 358.829 96.3045 359.523 97.0031C360.217 97.7018 361.158 98.0943 362.139 98.0943H464.659C465.64 98.0943 466.581 97.7018 467.275 97.0031C467.969 96.3045 468.358 95.3569 468.358 94.3688C468.358 93.3807 467.969 92.4332 467.275 91.7345C466.581 91.0358 465.64 90.6433 464.659 90.6433Z" fill="#E6E6E6"/>
<path d="M526.779 103.951C531.881 103.951 536.017 99.7857 536.017 94.6474C536.017 89.5092 531.881 85.3438 526.779 85.3438C521.677 85.3438 517.541 89.5092 517.541 94.6474C517.541 99.7857 521.677 103.951 526.779 103.951Z" fill="#7AB523"/>
<path d="M525.519 99.4896C525.359 99.4896 525.202 99.4522 525.059 99.3803C524.917 99.3085 524.793 99.2041 524.697 99.0756L522.177 95.6912C522.096 95.5825 522.036 95.4588 522.003 95.3271C521.969 95.1953 521.962 95.0582 521.981 94.9236C522 94.7889 522.045 94.6593 522.114 94.5423C522.182 94.4252 522.273 94.323 522.381 94.2414C522.489 94.1598 522.612 94.1004 522.743 94.0667C522.874 94.033 523.01 94.0256 523.144 94.0449C523.278 94.0643 523.406 94.1099 523.522 94.1793C523.638 94.2487 523.74 94.3405 523.821 94.4494L525.47 96.6634L529.705 90.266C529.779 90.1529 529.876 90.0558 529.988 89.9802C530.1 89.9046 530.226 89.8519 530.358 89.8253C530.49 89.7986 530.627 89.7985 530.759 89.8249C530.891 89.8512 531.017 89.9036 531.13 89.979C531.242 90.0544 531.338 90.1513 531.413 90.2642C531.488 90.3771 531.541 90.5039 531.567 90.6371C531.594 90.7704 531.594 90.9076 531.568 91.0409C531.541 91.1743 531.489 91.3011 531.415 91.4142L526.374 99.0287C526.283 99.1664 526.16 99.2801 526.016 99.3603C525.873 99.4404 525.712 99.4846 525.548 99.4893L525.519 99.4896Z" fill="white"/>
<path d="M496.129 103.951C501.231 103.951 505.367 99.7857 505.367 94.6474C505.367 89.5092 501.231 85.3438 496.129 85.3438C491.027 85.3438 486.891 89.5092 486.891 94.6474C486.891 99.7857 491.027 103.951 496.129 103.951Z" fill="#F2F2F2"/>
<path d="M496.129 160.366C501.231 160.366 505.367 156.2 505.367 151.062C505.367 145.924 501.231 141.758 496.129 141.758C491.027 141.758 486.891 145.924 486.891 151.062C486.891 156.2 491.027 160.366 496.129 160.366Z" fill="#F2F2F2"/>
<path d="M496.129 216.78C501.231 216.78 505.367 212.615 505.367 207.476C505.367 202.338 501.231 198.173 496.129 198.173C491.027 198.173 486.891 202.338 486.891 207.476C486.891 212.615 491.027 216.78 496.129 216.78Z" fill="#F2F2F2"/>
<path d="M496.129 273.194C501.231 273.194 505.367 269.029 505.367 263.891C505.367 258.752 501.231 254.587 496.129 254.587C491.027 254.587 486.891 258.752 486.891 263.891C486.891 269.029 491.027 273.194 496.129 273.194Z" fill="#F2F2F2"/>
<path d="M525.519 268.733C525.359 268.733 525.202 268.695 525.059 268.623C524.917 268.552 524.793 268.447 524.697 268.319L522.177 264.934C522.096 264.826 522.037 264.702 522.003 264.57C521.97 264.439 521.962 264.302 521.981 264.167C522.001 264.033 522.046 263.903 522.115 263.786C522.183 263.669 522.274 263.567 522.382 263.486C522.49 263.404 522.613 263.345 522.744 263.311C522.874 263.277 523.01 263.27 523.144 263.289C523.278 263.308 523.406 263.354 523.522 263.423C523.638 263.492 523.74 263.584 523.821 263.693L525.47 265.907L529.704 259.509C529.856 259.281 530.091 259.122 530.358 259.068C530.625 259.015 530.903 259.07 531.13 259.222C531.356 259.374 531.514 259.611 531.567 259.88C531.621 260.149 531.566 260.429 531.415 260.657L526.374 268.272C526.283 268.41 526.16 268.523 526.016 268.603C525.873 268.684 525.712 268.728 525.547 268.732L525.519 268.733Z" fill="white"/>
<path d="M512.199 445.63C512.202 445.683 512.193 445.736 512.172 445.785C512.151 445.833 512.12 445.877 512.079 445.911C512.016 445.959 511.942 445.989 511.864 446C511.784 446.016 511.702 446.001 511.633 445.958C511.565 445.914 511.516 445.846 511.496 445.766C510.394 442.034 507.694 439.17 505.138 436.362C502.838 433.844 500.577 431.19 499.419 427.916C498.917 426.615 498.695 425.222 498.766 423.828C498.838 422.435 499.202 421.072 499.834 419.831C500.232 419.089 500.694 418.383 501.216 417.723C502.358 416.259 503.716 414.956 504.938 413.572C505.066 413.427 505.194 413.275 505.314 413.13C505.482 412.945 505.633 412.752 505.777 412.559C507.301 410.661 508.359 408.429 508.868 406.043C509.414 403.133 509.497 400.154 509.116 397.218C508.956 395.657 508.735 394.107 508.453 392.568C508.437 392.496 508.429 392.431 508.413 392.367C507.18 385.765 504.938 379.396 501.767 373.487C501.647 373.269 501.536 373.052 501.416 372.843C500.905 371.91 500.377 370.993 499.818 370.092C500.01 369.955 500.218 369.826 500.425 369.706C502.257 372.693 503.852 375.821 505.194 379.061C506.929 383.219 508.233 387.545 509.084 391.973C509.14 392.214 509.18 392.464 509.22 392.705C509.555 394.563 509.803 396.446 509.955 398.32C510.255 401.261 510.055 404.231 509.364 407.105C508.737 409.384 507.628 411.5 506.113 413.307C505.841 413.653 505.553 413.991 505.25 414.32C504.036 415.656 502.694 416.951 501.6 418.407C501.041 419.139 500.566 419.932 500.186 420.772C498.9 423.668 499.507 426.838 500.929 429.557C503.501 434.504 508.405 437.875 511.017 442.726C511.499 443.619 511.89 444.56 512.183 445.533C512.192 445.564 512.198 445.597 512.199 445.63Z" fill="white"/>
<path d="M508.889 392.79C511.132 392.223 513.102 390.871 514.446 388.976C515.791 387.081 516.423 384.767 516.229 382.446C516.188 381.976 515.462 382.018 515.503 382.488C515.687 384.649 515.098 386.805 513.843 388.567C512.587 390.329 510.747 391.58 508.656 392.096C508.201 392.209 508.438 392.902 508.889 392.79Z" fill="white"/>
<path d="M505.976 412.678C501.898 410.27 498.871 406.403 497.499 401.847C497.364 401.395 496.675 401.631 496.81 402.082C498.247 406.82 501.405 410.838 505.654 413.335C506.059 413.573 506.379 412.915 505.976 412.678V412.678Z" fill="white"/>
<path d="M501.855 373.446C501.823 373.463 501.799 373.471 501.767 373.487C500.329 374.148 498.692 374.225 497.198 373.704C497.264 373.468 497.347 373.236 497.446 373.012C498.743 373.46 500.161 373.4 501.416 372.843C501.488 372.819 501.552 372.787 501.623 372.755C501.715 372.723 501.814 372.729 501.901 372.771C501.988 372.813 502.055 372.888 502.087 372.98C502.113 373.073 502.104 373.172 502.061 373.258C502.018 373.345 501.945 373.412 501.855 373.446V373.446Z" fill="white"/>
<path d="M462.039 250.178C462.737 249.331 463.243 248.34 463.52 247.275C463.797 246.21 463.839 245.096 463.643 244.013C463.446 242.93 463.016 241.904 462.383 241.006C461.75 240.108 460.93 239.361 459.979 238.817L464.802 212.497L452.085 217.92L449.455 242.082C448.653 243.751 448.488 245.658 448.99 247.442C449.491 249.225 450.625 250.762 452.176 251.759C453.727 252.757 455.588 253.148 457.406 252.856C459.224 252.565 460.872 251.612 462.039 250.178V250.178Z" fill="#FFB6B6"/>
<path d="M469.801 172.278L465.759 158.595L437.259 113.811C435.674 111.946 433.779 110.373 431.659 109.161C427.447 106.736 422.536 105.839 417.747 106.618C412.957 107.398 408.577 109.807 405.337 113.444C402.097 117.082 400.193 121.727 399.942 126.607C399.691 131.487 401.108 136.306 403.958 140.261C404.545 141.088 405.194 141.868 405.899 142.594L442.81 180.934L444.911 183.122L448.234 191.585L449.544 230.174L450.718 230.456L461.062 232.909L462.508 233.255L464.928 220.65L466.446 214.624C467.737 209.486 468.389 204.206 468.387 198.906C468.387 197.272 468.331 195.631 468.203 193.998L469.801 172.278Z" fill="#4D616B"/>
<path d="M430.621 438.38H420.724L416.016 399.936L430.623 399.937L430.621 438.38Z" fill="#FFB6B6"/>
<path d="M430.357 435.124L419.797 430.804L419.486 430.675L413.655 435.124C410.455 435.123 407.378 436.367 405.067 438.596C402.756 440.825 401.388 443.866 401.25 447.086C401.234 447.263 401.234 447.448 401.234 447.633V448.043H433.145V435.124H430.357Z" fill="#2F2E41"/>
<path d="M411.774 418.499L403.244 423.553L379.826 392.825L392.415 385.365L411.774 418.499Z" fill="#FFB6B6"/>
<path d="M417.665 423.564L416.507 421.577L412.313 414.401L410.132 415.696L409.909 415.825L398.63 417.498L398.295 417.546L395.515 424.36C394.108 425.193 392.879 426.296 391.896 427.608C390.913 428.919 390.197 430.413 389.787 432.003C389.378 433.594 389.284 435.25 389.51 436.877C389.736 438.504 390.278 440.071 391.106 441.487L391.313 441.833L418.815 425.535L417.665 423.564Z" fill="#2F2E41"/>
<path d="M443.155 203.353C447.795 217.447 447.305 232.745 442.04 249.165L440.666 305.608L436.252 341.212C438.914 348.189 440.279 355.598 440.28 363.072C440.261 382.662 438.953 410.492 432.322 423.566H416.63L413.088 365.346L408.861 336.073L408.339 304.705L407.885 277.347L390.823 302.475L374.242 326.892L390.722 354.888L405.1 399.937L389.923 412.808L372.707 379.936L364.363 370.172L341.585 320.513L343.632 313.599C347.848 299.36 353.97 285.766 361.83 273.192V273.192L384.487 220.235L443.155 203.353Z" fill="#2F2E41"/>
<path d="M445.166 198.648L442.578 193.435L442.81 180.934L443.585 138.668C443.678 133.194 442.67 127.757 440.62 122.686C438.57 117.615 435.522 113.014 431.659 109.161C429.367 106.861 426.802 104.853 424.023 103.184L418.463 99.8378L415.652 92.646L389.724 93.2815L389.668 100.256L389.644 102.71L380.354 117.624L380.362 117.688L380.554 144.831L380.937 198.857L383.501 207.232L379.627 216.981L381.688 223.192L383.334 222.926L438.752 214.005C441.271 213.191 443.409 211.481 444.767 209.194C445.04 208.747 445.278 208.279 445.478 207.795C446.082 206.337 446.367 204.766 446.314 203.187C446.26 201.609 445.869 200.06 445.166 198.648Z" fill="#4D616B"/>
<path d="M400.31 83.7002C413.323 83.7002 423.871 73.0769 423.871 59.9723C423.871 46.8678 413.323 36.2445 400.31 36.2445C387.298 36.2445 376.75 46.8678 376.75 59.9723C376.75 73.0769 387.298 83.7002 400.31 83.7002Z" fill="#FFB6B6"/>
<path d="M414.967 79.6336C417.455 77.8704 419.975 74.5136 421.653 72.0008C423.878 68.6974 425.388 64.9601 426.087 61.0311C426.786 57.1021 426.657 53.0692 425.709 49.1936C425.402 47.643 424.681 46.2061 423.624 45.0377C423.083 44.4674 422.377 44.0839 421.607 43.9423C420.837 43.8006 420.042 43.908 419.336 44.2491C419.692 43.2473 419.84 42.1826 419.771 41.1208C419.703 40.0591 419.419 39.0227 418.937 38.0757C417.959 36.1852 416.557 34.55 414.842 33.3C411.562 30.8281 407.678 29.2967 403.604 28.8683C399.529 28.4399 395.415 29.1305 391.698 30.8669C390.236 31.5741 392.58 26.2368 391.047 26.7697C389.525 27.3877 387.824 27.3813 386.306 26.7518C384.848 26.0376 380.106 30.4679 380.64 28.9256C379.548 29.4436 378.603 30.2316 377.895 31.2162C377.186 32.2009 376.737 33.3501 376.588 34.5569C376.439 35.7637 376.596 36.9888 377.043 38.1181C377.491 39.2474 378.216 40.2442 379.149 41.0156C380.379 42.0323 381.905 42.6063 383.249 43.4653C385.604 45.0854 387.288 47.5179 387.985 50.3034C388.681 53.0889 388.34 56.0347 387.027 58.5846C388.415 57.6588 389.943 56.9648 391.551 56.5294C392.357 56.3192 393.203 56.306 394.015 56.491C394.828 56.6759 395.586 57.0537 396.224 57.5928C396.76 58.1933 397.168 58.8977 397.424 59.6628C397.679 60.4279 397.777 61.2376 397.71 62.042C397.68 63.6528 397.321 65.2443 397.3 66.8553C397.24 71.5822 394.851 80.6008 398.523 83.0617C401.421 85.0037 411.569 82.0411 414.967 79.6336Z" fill="#2F2E41"/>
<path d="M269.424 117.686C269.982 118.633 270.739 119.446 271.642 120.067C272.545 120.687 273.572 121.101 274.651 121.279C275.73 121.457 276.834 121.394 277.886 121.095C278.939 120.796 279.913 120.269 280.741 119.55L303.734 132.97L302.937 119.085L281.224 108.47C279.933 107.149 278.205 106.351 276.369 106.228C274.532 106.104 272.714 106.663 271.26 107.799C269.805 108.935 268.815 110.569 268.477 112.392C268.138 114.214 268.475 116.098 269.424 117.686V117.686Z" fill="#FFB6B6"/>
<path d="M417.912 113.529C417.02 110.722 415.562 108.13 413.627 105.917C411.693 103.705 409.325 101.919 406.672 100.672C404.02 99.4257 401.14 98.7452 398.213 98.6735C395.287 98.6019 392.377 99.1407 389.668 100.256C389.412 100.361 389.157 100.473 388.901 100.586L337.892 123.971L318.034 121.598L292.33 112.556L291.675 113.578L285.9 122.563L285.093 123.818L312.666 140.237L315.59 140.848C318.136 141.379 320.552 142.41 322.702 143.883C324.851 145.356 326.69 147.242 328.115 149.432L338.802 152.971L380.554 144.83L403.958 140.261L405.284 140.004C409.294 138.449 412.743 135.708 415.177 132.141C417.611 128.575 418.916 124.349 418.919 120.021C418.92 117.818 418.581 115.628 417.912 113.529Z" fill="#4D616B"/>
<path d="M536.608 449H258.645C258.393 449 258.151 448.899 257.973 448.719C257.794 448.54 257.694 448.296 257.694 448.042C257.694 447.788 257.794 447.544 257.973 447.365C258.151 447.185 258.393 447.084 258.645 447.084H536.608C536.86 447.084 537.102 447.185 537.28 447.365C537.458 447.544 537.559 447.788 537.559 448.042C537.559 448.296 537.458 448.54 537.28 448.719C537.102 448.899 536.86 449 536.608 449Z" fill="#CCCCCC"/>
<path d="M237.435 225.194H68.6171C67.6369 225.195 66.6974 225.588 66.0049 226.287C65.3123 226.985 64.9233 227.932 64.9233 228.919C64.9233 229.906 65.3123 230.853 66.0049 231.551C66.6974 232.25 67.6369 232.643 68.6171 232.645H237.435C237.922 232.645 238.403 232.549 238.853 232.363C239.302 232.176 239.71 231.901 240.055 231.555C240.399 231.209 240.672 230.798 240.858 230.346C241.044 229.894 241.14 229.409 241.14 228.919C241.14 228.429 241.044 227.944 240.858 227.492C240.672 227.04 240.399 226.629 240.055 226.283C239.71 225.937 239.302 225.662 238.853 225.476C238.403 225.289 237.922 225.193 237.435 225.194H237.435Z" fill="#E6E6E6"/>
<path d="M299.555 238.501C304.657 238.501 308.793 234.336 308.793 229.198C308.793 224.059 304.657 219.894 299.555 219.894C294.453 219.894 290.317 224.059 290.317 229.198C290.317 234.336 294.453 238.501 299.555 238.501Z" fill="#7AB523"/>
<path d="M298.295 234.04C298.136 234.04 297.978 234.002 297.836 233.931C297.693 233.859 297.569 233.754 297.473 233.626L294.953 230.241C294.872 230.133 294.813 230.009 294.779 229.877C294.746 229.746 294.739 229.609 294.758 229.474C294.777 229.34 294.822 229.21 294.891 229.093C294.959 228.976 295.05 228.874 295.158 228.793C295.266 228.711 295.389 228.652 295.52 228.618C295.651 228.584 295.787 228.577 295.92 228.596C296.054 228.615 296.182 228.661 296.298 228.73C296.415 228.799 296.516 228.891 296.597 229L298.246 231.214L302.481 224.816C302.556 224.703 302.652 224.606 302.764 224.53C302.876 224.455 303.002 224.402 303.134 224.375C303.267 224.349 303.403 224.349 303.535 224.375C303.668 224.401 303.793 224.454 303.906 224.529C304.018 224.605 304.114 224.701 304.19 224.814C304.265 224.927 304.317 225.054 304.343 225.187C304.37 225.321 304.37 225.458 304.344 225.591C304.318 225.724 304.266 225.851 304.191 225.964L299.15 233.579C299.059 233.717 298.936 233.83 298.793 233.91C298.649 233.991 298.488 234.035 298.324 234.039L298.295 234.04Z" fill="white"/>
<path d="M268.905 238.501C274.007 238.501 278.143 234.336 278.143 229.198C278.143 224.059 274.007 219.894 268.905 219.894C263.803 219.894 259.667 224.059 259.667 229.198C259.667 234.336 263.803 238.501 268.905 238.501Z" fill="#F2F2F2"/>
<path d="M236.636 270.243H67.8183C66.8381 270.244 65.8987 270.637 65.2061 271.336C64.5135 272.034 64.1245 272.981 64.1245 273.968C64.1245 274.955 64.5135 275.902 65.2061 276.6C65.8987 277.299 66.8381 277.692 67.8183 277.694H236.637C237.618 277.694 238.558 277.301 239.252 276.602C239.946 275.904 240.336 274.956 240.336 273.968C240.336 272.98 239.946 272.032 239.252 271.334C238.558 270.635 237.618 270.243 236.637 270.243H236.636Z" fill="#E6E6E6"/>
<path d="M298.757 283.55C303.859 283.55 307.995 279.385 307.995 274.247C307.995 269.108 303.859 264.943 298.757 264.943C293.655 264.943 289.519 269.108 289.519 274.247C289.519 279.385 293.655 283.55 298.757 283.55Z" fill="#F2F2F2"/>
<path d="M297.496 279.089C297.337 279.089 297.179 279.051 297.037 278.98C296.894 278.908 296.77 278.803 296.674 278.675L294.154 275.29C293.991 275.071 293.92 274.795 293.959 274.523C293.997 274.252 294.142 274.006 294.36 273.842C294.578 273.677 294.852 273.606 295.121 273.645C295.391 273.684 295.635 273.829 295.798 274.049L297.447 276.263L301.682 269.865C301.757 269.752 301.853 269.655 301.965 269.579C302.077 269.504 302.203 269.451 302.335 269.425C302.468 269.398 302.604 269.398 302.736 269.424C302.869 269.45 302.995 269.503 303.107 269.578C303.219 269.654 303.316 269.751 303.391 269.863C303.466 269.976 303.518 270.103 303.545 270.236C303.571 270.37 303.571 270.507 303.545 270.64C303.519 270.774 303.467 270.9 303.392 271.013L298.351 278.628C298.26 278.766 298.138 278.879 297.994 278.96C297.85 279.04 297.689 279.084 297.525 279.089L297.496 279.089Z" fill="white"/>
<path d="M268.106 283.55C273.208 283.55 277.344 279.385 277.344 274.247C277.344 269.108 273.208 264.943 268.106 264.943C263.004 264.943 258.868 269.108 258.868 274.247C258.868 279.385 263.004 283.55 268.106 283.55Z" fill="#F2F2F2"/>
</svg>
