<svg width="27" height="27" viewBox="0 0 27 27" fill="none" xmlns="http://www.w3.org/2000/svg">
<path d="M13.5002 0.583374C6.37016 0.583374 0.583496 6.37004 0.583496 13.5C0.583496 20.63 6.37016 26.4167 13.5002 26.4167H19.9585V23.8334H13.5002C7.89433 23.8334 3.16683 19.1059 3.16683 13.5C3.16683 7.89421 7.89433 3.16671 13.5002 3.16671C19.106 3.16671 23.8335 7.89421 23.8335 13.5V15.3471C23.8335 16.3675 22.9164 17.375 21.896 17.375C20.8756 17.375 19.9585 16.3675 19.9585 15.3471V13.5C19.9585 9.93504 17.0652 7.04171 13.5002 7.04171C9.93516 7.04171 7.04183 9.93504 7.04183 13.5C7.04183 17.065 9.93516 19.9584 13.5002 19.9584C15.2827 19.9584 16.9102 19.235 18.0727 18.0596C18.9122 19.2092 20.3589 19.9584 21.896 19.9584C24.4406 19.9584 26.4168 17.8917 26.4168 15.3471V13.5C26.4168 6.37004 20.6302 0.583374 13.5002 0.583374ZM13.5002 17.375C11.356 17.375 9.62516 15.6442 9.62516 13.5C9.62516 11.3559 11.356 9.62504 13.5002 9.62504C15.6443 9.62504 17.3752 11.3559 17.3752 13.5C17.3752 15.6442 15.6443 17.375 13.5002 17.375Z" fill="black" fill-opacity="0.7"/>
</svg>
