<svg width="18" height="24" viewBox="0 0 18 24" fill="none" xmlns="http://www.w3.org/2000/svg">
<path d="M16 2.39583H15V1.19792C15 0.539062 14.55 0 14 0C13.45 0 13 0.539062 13 1.19792V2.39583H5V1.19792C5 0.539062 4.55 0 4 0C3.45 0 3 0.539062 3 1.19792V2.39583H2C0.89 2.39583 0.00999999 3.47396 0.00999999 4.79166L0 21.5625C0 22.8802 0.89 23.9583 2 23.9583H16C17.1 23.9583 18 22.8802 18 21.5625V4.79166C18 3.47396 17.1 2.39583 16 2.39583ZM15 21.5625H3C2.45 21.5625 2 21.0234 2 20.3646V8.38541H16V20.3646C16 21.0234 15.55 21.5625 15 21.5625ZM5 10.7812H8C8.55 10.7812 9 11.3203 9 11.9792V15.5729C9 16.2318 8.55 16.7708 8 16.7708H5C4.45 16.7708 4 16.2318 4 15.5729V11.9792C4 11.3203 4.45 10.7812 5 10.7812Z" fill="black" fill-opacity="0.7"/>
</svg>
