<svg width="143" height="35" viewBox="0 0 143 35" fill="none" xmlns="http://www.w3.org/2000/svg">
<path d="M35.2501 8.75H7.83341C5.6703 8.75 3.91675 10.0558 3.91675 11.6667V23.3333C3.91675 24.9442 5.6703 26.25 7.83341 26.25H35.2501C37.4132 26.25 39.1667 24.9442 39.1667 23.3333V11.6667C39.1667 10.0558 37.4132 8.75 35.2501 8.75Z" stroke="black" stroke-width="2" stroke-linecap="round" stroke-linejoin="round"/>
<path d="M39.1667 14.5834H42.1043C42.3639 14.5834 42.613 14.6602 42.7966 14.7969C42.9803 14.9337 43.0834 15.1192 43.0834 15.3125V19.6875C43.0834 19.8809 42.9803 20.0664 42.7966 20.2031C42.613 20.3399 42.3639 20.4167 42.1043 20.4167H39.1667V14.5834Z" stroke="black" stroke-width="2" stroke-linecap="round" stroke-linejoin="round"/>
<path d="M25.3198 21.0541L25.3205 20.4161L29.1486 20.4205L29.1501 19.1444L25.322 19.14L25.3264 15.3119L29.1545 15.3163L29.156 14.0403L25.3279 14.0359L25.3286 13.3978C25.329 13.0594 25.1949 12.7347 24.9559 12.4951C24.7169 12.2555 24.3925 12.1207 24.054 12.1203L20.2259 12.1159C18.9838 12.1166 17.7844 12.5698 16.8522 13.3907C15.92 14.2117 15.3189 15.3441 15.1613 16.5762L11.2885 16.5718L11.287 17.8478L15.1598 17.8523C15.3146 19.0847 15.9131 20.2186 16.8434 21.0417C17.7737 21.8648 18.972 22.3207 20.2142 22.3243L24.0423 22.3287C24.3807 22.3291 24.7054 22.195 24.945 21.956C25.1846 21.7169 25.3194 21.3925 25.3198 21.0541V21.0541Z" fill="black"/>
<path d="M59.328 22L57.336 18.58H56.016V22H54.924V13.636H57.624C58.256 13.636 58.788 13.744 59.22 13.96C59.66 14.176 59.988 14.468 60.204 14.836C60.42 15.204 60.528 15.624 60.528 16.096C60.528 16.672 60.36 17.18 60.024 17.62C59.696 18.06 59.2 18.352 58.536 18.496L60.636 22H59.328ZM56.016 17.704H57.624C58.216 17.704 58.66 17.56 58.956 17.272C59.252 16.976 59.4 16.584 59.4 16.096C59.4 15.6 59.252 15.216 58.956 14.944C58.668 14.672 58.224 14.536 57.624 14.536H56.016V17.704ZM68.2248 18.46C68.2248 18.668 68.2128 18.888 68.1888 19.12H62.9328C62.9728 19.768 63.1928 20.276 63.5928 20.644C64.0008 21.004 64.4928 21.184 65.0688 21.184C65.5408 21.184 65.9328 21.076 66.2448 20.86C66.5648 20.636 66.7888 20.34 66.9168 19.972H68.0928C67.9168 20.604 67.5648 21.12 67.0368 21.52C66.5088 21.912 65.8528 22.108 65.0688 22.108C64.4448 22.108 63.8848 21.968 63.3888 21.688C62.9008 21.408 62.5168 21.012 62.2368 20.5C61.9568 19.98 61.8168 19.38 61.8168 18.7C61.8168 18.02 61.9528 17.424 62.2248 16.912C62.4968 16.4 62.8768 16.008 63.3648 15.736C63.8608 15.456 64.4288 15.316 65.0688 15.316C65.6928 15.316 66.2448 15.452 66.7248 15.724C67.2048 15.996 67.5728 16.372 67.8288 16.852C68.0928 17.324 68.2248 17.86 68.2248 18.46ZM67.0968 18.232C67.0968 17.816 67.0048 17.46 66.8208 17.164C66.6368 16.86 66.3848 16.632 66.0648 16.48C65.7528 16.32 65.4048 16.24 65.0208 16.24C64.4688 16.24 63.9968 16.416 63.6048 16.768C63.2208 17.12 63.0008 17.608 62.9448 18.232H67.0968ZM69.2582 18.688C69.2582 18.016 69.3942 17.428 69.6662 16.924C69.9382 16.412 70.3102 16.016 70.7822 15.736C71.2622 15.456 71.7982 15.316 72.3902 15.316C72.9022 15.316 73.3782 15.436 73.8182 15.676C74.2582 15.908 74.5942 16.216 74.8262 16.6V13.12H75.9302V22H74.8262V20.764C74.6102 21.156 74.2902 21.48 73.8662 21.736C73.4422 21.984 72.9462 22.108 72.3782 22.108C71.7942 22.108 71.2622 21.964 70.7822 21.676C70.3102 21.388 69.9382 20.984 69.6662 20.464C69.3942 19.944 69.2582 19.352 69.2582 18.688ZM74.8262 18.7C74.8262 18.204 74.7262 17.772 74.5262 17.404C74.3262 17.036 74.0542 16.756 73.7102 16.564C73.3742 16.364 73.0022 16.264 72.5942 16.264C72.1862 16.264 71.8142 16.36 71.4782 16.552C71.1422 16.744 70.8742 17.024 70.6742 17.392C70.4742 17.76 70.3742 18.192 70.3742 18.688C70.3742 19.192 70.4742 19.632 70.6742 20.008C70.8742 20.376 71.1422 20.66 71.4782 20.86C71.8142 21.052 72.1862 21.148 72.5942 21.148C73.0022 21.148 73.3742 21.052 73.7102 20.86C74.0542 20.66 74.3262 20.376 74.5262 20.008C74.7262 19.632 74.8262 19.196 74.8262 18.7ZM78.3396 14.356C78.1316 14.356 77.9556 14.284 77.8116 14.14C77.6676 13.996 77.5956 13.82 77.5956 13.612C77.5956 13.404 77.6676 13.228 77.8116 13.084C77.9556 12.94 78.1316 12.868 78.3396 12.868C78.5396 12.868 78.7076 12.94 78.8436 13.084C78.9876 13.228 79.0596 13.404 79.0596 13.612C79.0596 13.82 78.9876 13.996 78.8436 14.14C78.7076 14.284 78.5396 14.356 78.3396 14.356ZM78.8676 15.424V22H77.7756V15.424H78.8676ZM83.0567 22.108C82.5527 22.108 82.1007 22.024 81.7007 21.856C81.3007 21.68 80.9847 21.44 80.7527 21.136C80.5207 20.824 80.3927 20.468 80.3687 20.068H81.4967C81.5287 20.396 81.6807 20.664 81.9527 20.872C82.2327 21.08 82.5967 21.184 83.0447 21.184C83.4607 21.184 83.7887 21.092 84.0287 20.908C84.2687 20.724 84.3887 20.492 84.3887 20.212C84.3887 19.924 84.2607 19.712 84.0047 19.576C83.7487 19.432 83.3527 19.292 82.8167 19.156C82.3287 19.028 81.9287 18.9 81.6167 18.772C81.3127 18.636 81.0487 18.44 80.8247 18.184C80.6087 17.92 80.5007 17.576 80.5007 17.152C80.5007 16.816 80.6007 16.508 80.8007 16.228C81.0007 15.948 81.2847 15.728 81.6527 15.568C82.0207 15.4 82.4407 15.316 82.9127 15.316C83.6407 15.316 84.2287 15.5 84.6767 15.868C85.1247 16.236 85.3647 16.74 85.3967 17.38H84.3047C84.2807 17.036 84.1407 16.76 83.8847 16.552C83.6367 16.344 83.3007 16.24 82.8767 16.24C82.4847 16.24 82.1727 16.324 81.9407 16.492C81.7087 16.66 81.5927 16.88 81.5927 17.152C81.5927 17.368 81.6607 17.548 81.7967 17.692C81.9407 17.828 82.1167 17.94 82.3247 18.028C82.5407 18.108 82.8367 18.2 83.2127 18.304C83.6847 18.432 84.0687 18.56 84.3647 18.688C84.6607 18.808 84.9127 18.992 85.1207 19.24C85.3367 19.488 85.4487 19.812 85.4567 20.212C85.4567 20.572 85.3567 20.896 85.1567 21.184C84.9567 21.472 84.6727 21.7 84.3047 21.868C83.9447 22.028 83.5287 22.108 83.0567 22.108ZM88.0902 16.636C88.3062 16.26 88.6262 15.948 89.0502 15.7C89.4822 15.444 89.9822 15.316 90.5502 15.316C91.1342 15.316 91.6622 15.456 92.1342 15.736C92.6142 16.016 92.9902 16.412 93.2622 16.924C93.5342 17.428 93.6702 18.016 93.6702 18.688C93.6702 19.352 93.5342 19.944 93.2622 20.464C92.9902 20.984 92.6142 21.388 92.1342 21.676C91.6622 21.964 91.1342 22.108 90.5502 22.108C89.9902 22.108 89.4942 21.984 89.0622 21.736C88.6382 21.48 88.3142 21.164 88.0902 20.788V25.12H86.9982V15.424H88.0902V16.636ZM92.5542 18.688C92.5542 18.192 92.4542 17.76 92.2542 17.392C92.0542 17.024 91.7822 16.744 91.4382 16.552C91.1022 16.36 90.7302 16.264 90.3222 16.264C89.9222 16.264 89.5502 16.364 89.2062 16.564C88.8702 16.756 88.5982 17.04 88.3902 17.416C88.1902 17.784 88.0902 18.212 88.0902 18.7C88.0902 19.196 88.1902 19.632 88.3902 20.008C88.5982 20.376 88.8702 20.66 89.2062 20.86C89.5502 21.052 89.9222 21.148 90.3222 21.148C90.7302 21.148 91.1022 21.052 91.4382 20.86C91.7822 20.66 92.0542 20.376 92.2542 20.008C92.4542 19.632 92.5542 19.192 92.5542 18.688ZM94.6996 18.688C94.6996 18.016 94.8356 17.428 95.1076 16.924C95.3796 16.412 95.7516 16.016 96.2236 15.736C96.7036 15.456 97.2356 15.316 97.8196 15.316C98.3956 15.316 98.8956 15.44 99.3196 15.688C99.7436 15.936 100.06 16.248 100.268 16.624V15.424H101.372V22H100.268V20.776C100.052 21.16 99.7276 21.48 99.2956 21.736C98.8716 21.984 98.3756 22.108 97.8076 22.108C97.2236 22.108 96.6956 21.964 96.2236 21.676C95.7516 21.388 95.3796 20.984 95.1076 20.464C94.8356 19.944 94.6996 19.352 94.6996 18.688ZM100.268 18.7C100.268 18.204 100.168 17.772 99.9676 17.404C99.7676 17.036 99.4956 16.756 99.1516 16.564C98.8156 16.364 98.4436 16.264 98.0356 16.264C97.6276 16.264 97.2556 16.36 96.9196 16.552C96.5836 16.744 96.3156 17.024 96.1156 17.392C95.9156 17.76 95.8156 18.192 95.8156 18.688C95.8156 19.192 95.9156 19.632 96.1156 20.008C96.3156 20.376 96.5836 20.66 96.9196 20.86C97.2556 21.052 97.6276 21.148 98.0356 21.148C98.4436 21.148 98.8156 21.052 99.1516 20.86C99.4956 20.66 99.7676 20.376 99.9676 20.008C100.168 19.632 100.268 19.196 100.268 18.7ZM104.549 16.324V20.2C104.549 20.52 104.617 20.748 104.753 20.884C104.889 21.012 105.125 21.076 105.461 21.076H106.265V22H105.281C104.673 22 104.217 21.86 103.913 21.58C103.609 21.3 103.457 20.84 103.457 20.2V16.324H102.605V15.424H103.457V13.768H104.549V15.424H106.265V16.324H104.549ZM107.18 18.7C107.18 18.02 107.316 17.428 107.588 16.924C107.86 16.412 108.236 16.016 108.716 15.736C109.204 15.456 109.76 15.316 110.384 15.316C111.192 15.316 111.856 15.512 112.376 15.904C112.904 16.296 113.252 16.84 113.42 17.536H112.244C112.132 17.136 111.912 16.82 111.584 16.588C111.264 16.356 110.864 16.24 110.384 16.24C109.76 16.24 109.256 16.456 108.872 16.888C108.488 17.312 108.296 17.916 108.296 18.7C108.296 19.492 108.488 20.104 108.872 20.536C109.256 20.968 109.76 21.184 110.384 21.184C110.864 21.184 111.264 21.072 111.584 20.848C111.904 20.624 112.124 20.304 112.244 19.888H113.42C113.244 20.56 112.892 21.1 112.364 21.508C111.836 21.908 111.176 22.108 110.384 22.108C109.76 22.108 109.204 21.968 108.716 21.688C108.236 21.408 107.86 21.012 107.588 20.5C107.316 19.988 107.18 19.388 107.18 18.7ZM118.141 15.304C118.637 15.304 119.085 15.412 119.485 15.628C119.885 15.836 120.197 16.152 120.421 16.576C120.653 17 120.769 17.516 120.769 18.124V22H119.689V18.28C119.689 17.624 119.525 17.124 119.197 16.78C118.869 16.428 118.421 16.252 117.853 16.252C117.277 16.252 116.817 16.432 116.473 16.792C116.137 17.152 115.969 17.676 115.969 18.364V22H114.877V13.12H115.969V16.36C116.185 16.024 116.481 15.764 116.857 15.58C117.241 15.396 117.669 15.304 118.141 15.304ZM125.548 15.508C125.604 14.772 125.888 14.196 126.4 13.78C126.912 13.364 127.576 13.156 128.392 13.156C128.936 13.156 129.404 13.256 129.796 13.456C130.196 13.648 130.496 13.912 130.696 14.248C130.904 14.584 131.008 14.964 131.008 15.388C131.008 15.884 130.864 16.312 130.576 16.672C130.296 17.032 129.928 17.264 129.472 17.368V17.428C129.992 17.556 130.404 17.808 130.708 18.184C131.012 18.56 131.164 19.052 131.164 19.66C131.164 20.116 131.06 20.528 130.852 20.896C130.644 21.256 130.332 21.54 129.916 21.748C129.5 21.956 129 22.06 128.416 22.06C127.568 22.06 126.872 21.84 126.328 21.4C125.784 20.952 125.48 20.32 125.416 19.504H126.472C126.528 19.984 126.724 20.376 127.06 20.68C127.396 20.984 127.844 21.136 128.404 21.136C128.964 21.136 129.388 20.992 129.676 20.704C129.972 20.408 130.12 20.028 130.12 19.564C130.12 18.964 129.92 18.532 129.52 18.268C129.12 18.004 128.516 17.872 127.708 17.872H127.432V16.96H127.72C128.456 16.952 129.012 16.832 129.388 16.6C129.764 16.36 129.952 15.992 129.952 15.496C129.952 15.072 129.812 14.732 129.532 14.476C129.26 14.22 128.868 14.092 128.356 14.092C127.86 14.092 127.46 14.22 127.156 14.476C126.852 14.732 126.672 15.076 126.616 15.508H125.548ZM133.167 22.072C132.959 22.072 132.783 22 132.639 21.856C132.495 21.712 132.423 21.536 132.423 21.328C132.423 21.12 132.495 20.944 132.639 20.8C132.783 20.656 132.959 20.584 133.167 20.584C133.367 20.584 133.535 20.656 133.671 20.8C133.815 20.944 133.887 21.12 133.887 21.328C133.887 21.536 133.815 21.712 133.671 21.856C133.535 22 133.367 22.072 133.167 22.072ZM135.158 17.572C135.158 16.196 135.382 15.124 135.83 14.356C136.278 13.58 137.062 13.192 138.182 13.192C139.294 13.192 140.074 13.58 140.522 14.356C140.97 15.124 141.194 16.196 141.194 17.572C141.194 18.972 140.97 20.06 140.522 20.836C140.074 21.612 139.294 22 138.182 22C137.062 22 136.278 21.612 135.83 20.836C135.382 20.06 135.158 18.972 135.158 17.572ZM140.114 17.572C140.114 16.876 140.066 16.288 139.97 15.808C139.882 15.32 139.694 14.928 139.406 14.632C139.126 14.336 138.718 14.188 138.182 14.188C137.638 14.188 137.222 14.336 136.934 14.632C136.654 14.928 136.466 15.32 136.37 15.808C136.282 16.288 136.238 16.876 136.238 17.572C136.238 18.292 136.282 18.896 136.37 19.384C136.466 19.872 136.654 20.264 136.934 20.56C137.222 20.856 137.638 21.004 138.182 21.004C138.718 21.004 139.126 20.856 139.406 20.56C139.694 20.264 139.882 19.872 139.97 19.384C140.066 18.896 140.114 18.292 140.114 17.572Z" fill="black"/>
</svg>
