<svg width="30" height="24" viewBox="0 0 30 24" fill="none" xmlns="http://www.w3.org/2000/svg">
<path d="M5.4001 19.2V13.864L11.8129 17.5456C12.7828 18.1026 13.8817 18.3957 15.0001 18.3957C16.1185 18.3957 17.2174 18.1026 18.1873 17.5456L24.6001 13.8656V19.2C24.6003 19.3052 24.5798 19.4093 24.5397 19.5065C24.4996 19.6037 24.4407 19.692 24.3665 19.7664L24.3633 19.768L24.3601 19.7728L24.3489 19.7824L24.3121 19.8176L24.1841 19.936C24.0277 20.0733 23.8671 20.2056 23.7025 20.3328C23.1278 20.7741 22.5171 21.1664 21.8769 21.5056C19.7594 22.6289 17.3971 23.2115 15.0001 23.2016C12.6031 23.2115 10.2408 22.6289 8.1233 21.5056C7.4836 21.1663 6.87346 20.774 6.2993 20.3328C6.08817 20.1701 5.88424 19.9982 5.6881 19.8176L5.6513 19.7824C5.57289 19.7069 5.5103 19.6165 5.46717 19.5165C5.42404 19.4165 5.40124 19.3089 5.4001 19.2ZM28.9985 9.49443L17.3905 16.1584C16.6631 16.5762 15.8389 16.796 15.0001 16.796C14.1613 16.796 13.3371 16.5762 12.6097 16.1584L2.2001 10.1824V17.6C2.2001 17.8122 2.11581 18.0157 1.96578 18.1657C1.81575 18.3157 1.61227 18.4 1.4001 18.4C1.18792 18.4 0.984441 18.3157 0.834412 18.1657C0.684383 18.0157 0.600098 17.8122 0.600098 17.6V8.80003C0.600018 8.65579 0.638934 8.51422 0.712729 8.39029C0.786523 8.26636 0.89245 8.16469 1.0193 8.09603L12.6097 1.44163C13.3369 1.02343 14.1612 0.803345 15.0001 0.803345C15.839 0.803345 16.6632 1.02343 17.3905 1.44163L28.9985 8.10723C29.1205 8.17734 29.2218 8.27838 29.2923 8.40015C29.3627 8.52193 29.3999 8.66014 29.3999 8.80083C29.3999 8.94152 29.3627 9.07973 29.2923 9.20151C29.2218 9.32328 29.1205 9.42432 28.9985 9.49443Z" fill="black" fill-opacity="0.7"/>
</svg>
