<?xml version="1.0" encoding="utf-8"?>
<!-- Generator: Adobe Illustrator 26.0.3, SVG Export Plug-In . SVG Version: 6.00 Build 0)  -->
<svg version="1.1" id="Ebene_1" xmlns="http://www.w3.org/2000/svg" xmlns:xlink="http://www.w3.org/1999/xlink" x="0px" y="0px"
	 viewBox="0 0 382.68 198.43" style="enable-background:new 0 0 382.68 198.43;" xml:space="preserve">
<style type="text/css">
	.st0{fill:url(#SVGID_1_);}
	.st1{fill:none;}
	.st2{fill:url(#SVGID_00000018931823811324740440000017637736029839557019_);}
	.st3{fill:url(#SVGID_00000119800071163217198470000007577978347072969631_);}
	.st4{fill:url(#SVGID_00000092428962780482063480000009548148742832944789_);}
	.st5{fill:url(#SVGID_00000150083115734346942200000005940745496394714286_);}
	.st6{fill:url(#SVGID_00000180359090764733805390000001608061707604656780_);}
	.st7{fill:#17408A;}
	.st8{fill:url(#SVGID_00000145757208498937793450000012229708042433467316_);}
	.st9{fill:url(#SVGID_00000160179666208823025550000011585287668692172975_);}
	.st10{fill:url(#SVGID_00000088122965342637945510000001422788358669942442_);}
	.st11{fill:url(#SVGID_00000146498311236607413520000001660506198423046832_);}
	
		.st12{clip-path:url(#SVGID_00000021816738913823305530000000893450382361543587_);fill:url(#SVGID_00000083072419433818792270000012626134604545615292_);}
</style>
<linearGradient id="SVGID_1_" gradientUnits="userSpaceOnUse" x1="533.6454" y1="65.9781" x2="533.6454" y2="145.2264" gradientTransform="matrix(-4.4 0 0 1 2599.5986 0)">
	<stop  offset="0" style="stop-color:#25BDEF"/>
	<stop  offset="1" style="stop-color:#17408A"/>
</linearGradient>
<path class="st0" d="M162.42,145.23h-5.4v-74c0-2.9,2.36-5.25,5.25-5.25h178.58c2.94,0,5.25,1.9,5.25,4.32v1.08h-5.4l0,0H162.42
	V145.23z"/>
<g>
	<path class="st1" d="M104.96,122.62c4.65-3.97,10.82-5.62,16.94-4.55c7.99,1.41,14.5,7.69,16.18,15.63
		c0.38,1.78,0.52,3.58,0.43,5.35h6.2v-67.6h-37.93c-0.01,0.01-0.19,0.1-0.26,0.16L90.2,91.29c-0.1,0.14-0.26,0.58-0.27,0.77l0,46.98
		h7.93c-0.01-0.19-0.03-0.38-0.04-0.58C97.71,132.36,100.31,126.59,104.96,122.62z"/>
	
		<linearGradient id="SVGID_00000129884179851619835320000002120945936162173071_" gradientUnits="userSpaceOnUse" x1="117.3246" y1="65.947" x2="117.3246" y2="144.5437">
		<stop  offset="0" style="stop-color:#25BDEF"/>
		<stop  offset="1" style="stop-color:#17408A"/>
	</linearGradient>
	<path style="fill:url(#SVGID_00000129884179851619835320000002120945936162173071_);" d="M146.05,65.95h-39.26
		c-1.6,0-3.42,0.86-4.44,2.08L85.97,87.78c-0.91,1.09-1.54,2.85-1.54,4.27v48.33c0,2.3,1.87,4.17,4.17,4.17h10.26
		c-0.58-1.76-0.91-3.61-1-5.5h-7.93l0-46.98c0.01-0.19,0.17-0.63,0.27-0.77l16.33-19.69c0.07-0.06,0.25-0.15,0.26-0.16h37.93v67.6
		h-6.2c-0.09,1.88-0.43,3.73-1.02,5.5h8.55c2.3,0,4.17-1.87,4.17-4.17V70.11C150.22,67.82,148.35,65.95,146.05,65.95z"/>
	
		<linearGradient id="SVGID_00000176012385325068913430000018073470476373467296_" gradientUnits="userSpaceOnUse" x1="118.1673" y1="119.7426" x2="118.1673" y2="156.4796">
		<stop  offset="0" style="stop-color:#25BDEF"/>
		<stop  offset="1" style="stop-color:#17408A"/>
	</linearGradient>
	<path style="fill:url(#SVGID_00000176012385325068913430000018073470476373467296_);" d="M106.81,149.89
		c3.14,3.04,7.28,4.68,11.66,4.59h0c4.91-0.08,9.47-2.34,12.53-6.18c0.92-1.15,1.64-2.42,2.21-3.75h-30.08
		C103.97,146.53,105.21,148.34,106.81,149.89z"/>
	
		<linearGradient id="SVGID_00000165235507638267466610000013793953106806430139_" gradientUnits="userSpaceOnUse" x1="118.169" y1="119.7426" x2="118.169" y2="156.4796">
		<stop  offset="0" style="stop-color:#25BDEF"/>
		<stop  offset="1" style="stop-color:#17408A"/>
	</linearGradient>
	<path style="fill:url(#SVGID_00000165235507638267466610000013793953106806430139_);" d="M134.17,134.53
		c-1.35-6.36-6.56-11.39-12.96-12.52c-0.99-0.17-1.99-0.26-2.97-0.26c-3.92,0-7.69,1.36-10.68,3.91c-3.73,3.19-5.83,7.83-5.74,12.74
		c0,0.22,0.03,0.43,0.04,0.65h32.63C134.58,137.55,134.49,136.04,134.17,134.53z"/>
	
		<linearGradient id="SVGID_00000162338601242830825600000004487633275061162653_" gradientUnits="userSpaceOnUse" x1="118.1761" y1="65.947" x2="118.1761" y2="144.5437">
		<stop  offset="0" style="stop-color:#25BDEF"/>
		<stop  offset="1" style="stop-color:#17408A"/>
	</linearGradient>
	<path style="fill:url(#SVGID_00000162338601242830825600000004487633275061162653_);" d="M133.21,144.54
		c0.74-1.74,1.17-3.6,1.28-5.5h-32.63c0.11,1.92,0.53,3.77,1.27,5.5H133.21z"/>
	
		<linearGradient id="SVGID_00000026142245849390410440000002736353451269678520_" gradientUnits="userSpaceOnUse" x1="118.1761" y1="119.7426" x2="118.1761" y2="156.4796">
		<stop  offset="0" style="stop-color:#25BDEF"/>
		<stop  offset="1" style="stop-color:#17408A"/>
	</linearGradient>
	<path style="fill:url(#SVGID_00000026142245849390410440000002736353451269678520_);" d="M133.21,144.54
		c0.74-1.74,1.17-3.6,1.28-5.5h-32.63c0.11,1.92,0.53,3.77,1.27,5.5H133.21z"/>
</g>
<g>
	<path class="st7" d="M43.89,176.28v-5.9h-6.06v5.9h-1.62V163.9h1.62v5.47h6.06v-5.47h1.62v12.38H43.89z"/>
	<path class="st7" d="M52.39,176.5c-2.95,0-4.53-2.2-4.53-5.07c0-2.88,1.58-5.05,4.53-5.05c2.95,0,4.53,2.18,4.53,5.05
		C56.92,174.3,55.33,176.5,52.39,176.5z M52.39,167.32c-2.11,0-2.97,1.87-2.97,4.08s0.86,4.08,2.97,4.08c2.1,0,2.97-1.87,2.97-4.08
		S54.49,167.32,52.39,167.32z"/>
	<path class="st7" d="M63.26,176.5c-2.9,0-4.48-2.23-4.48-5.07c0-2.84,1.58-5.05,4.48-5.05c1.01,0,1.91,0.2,2.61,0.65l-0.41,0.88
		c-0.54-0.34-1.24-0.52-2.02-0.52c-2.09,0-3.08,1.85-3.08,4.03c0,2.18,0.99,4.03,3.08,4.03c0.77,0,1.46-0.18,2-0.52l0.43,0.94
		C65.16,176.3,64.26,176.5,63.26,176.5z"/>
	<path class="st7" d="M74.45,176.28v-6.33c0-1.71-0.9-2.64-2.63-2.64c-0.85,0-1.71,0.18-2.43,0.5v8.47h-1.55V163.9h1.55v3.06
		c0.76-0.36,1.73-0.59,2.66-0.59c2.5,0,3.92,1.19,3.92,3.58v6.33H74.45z"/>
	<path class="st7" d="M78.72,176.28V163.9h1.55v12.38H78.72z"/>
	<path class="st7" d="M84.14,172.03c0.18,2.27,1.62,3.42,3.72,3.42c1.03,0,2.09-0.22,2.88-0.58l0.41,0.95
		c-0.94,0.45-2.16,0.67-3.42,0.67c-2.99,0-5.11-1.62-5.11-5.09c0-3.35,1.98-5.04,4.62-5.04c2.68,0,4.32,1.51,4.32,4.73L84.14,172.03
		z M87.18,167.28c-1.71,0-3.11,1.24-3.11,3.87v0.05l5.97-0.76C90.04,168.24,88.89,167.28,87.18,167.28z"/>
	<path class="st7" d="M94.7,165.65c-0.54,0-0.97-0.38-0.97-0.86c0-0.49,0.43-0.88,0.97-0.88s0.97,0.4,0.97,0.88
		C95.68,165.27,95.24,165.65,94.7,165.65z M93.93,176.28v-9.7h1.55v9.7H93.93z"/>
	<path class="st7" d="M100.7,176.5c-1.04,0-2.14-0.22-3.04-0.65l0.45-0.94c0.7,0.36,1.62,0.54,2.46,0.54c1.49,0,2.36-0.68,2.36-1.78
		c0-2.37-5.04-1.55-5.04-4.61c0-1.62,1.46-2.7,3.47-2.7c1.04,0,2.01,0.2,2.84,0.65l-0.45,0.88c-0.61-0.33-1.42-0.54-2.2-0.54
		c-1.28,0-2.12,0.61-2.12,1.65c0,2.27,5.07,1.47,5.07,4.61C104.51,175.32,102.98,176.5,100.7,176.5z"/>
	<path class="st7" d="M110.31,176.46c-2.07,0-2.77-1.28-2.77-2.5v-6.48h-1.56v-0.9h1.56v-2.25l1.53-0.47v2.72h2.2v0.9h-2.2v6.53
		c0,0.74,0.57,1.44,1.67,1.44c0.16,0,0.34-0.02,0.52-0.05v0.92C111.03,176.4,110.67,176.46,110.31,176.46z"/>
	<path class="st7" d="M117.51,176.5c-2.61,0-4.25-0.97-4.25-3.53v-6.39h1.55v6.41c0,1.73,0.97,2.48,2.7,2.48
		c0.81,0,1.51-0.09,2.14-0.36v-8.53h1.53v9.25C120.15,176.28,118.93,176.5,117.51,176.5z"/>
	<path class="st7" d="M130.4,176.28v-6.39c0-1.82-1.03-2.57-2.84-2.57c-0.74,0-1.58,0.13-2.21,0.36v8.6h-1.55v-9.23
		c1.08-0.45,2.46-0.68,3.78-0.68c2.7,0,4.35,1.02,4.35,3.54v6.37H130.4z"/>
	<path class="st7" d="M138.24,180.36c-1.28,0-2.63-0.25-3.62-0.7l0.45-0.97c0.81,0.36,2,0.61,3.08,0.61c1.84,0,2.97-1.01,2.97-2.72
		v-0.58c-0.61,0.29-1.58,0.43-2.46,0.43c-2.75,0-4.5-1.89-4.5-4.84c0-3.06,1.76-5.23,5.16-5.23c1.26,0,2.36,0.21,3.33,0.65v9.52
		C142.65,179.05,140.92,180.36,138.24,180.36z M141.12,167.64c-0.52-0.23-1.15-0.36-1.85-0.36c-2.37,0-3.54,1.71-3.54,4.28
		c0,2.52,1.15,3.96,3.4,3.96c0.7,0,1.55-0.16,2-0.4V167.64z"/>
	<path class="st7" d="M147.75,176.5c-1.04,0-2.14-0.22-3.04-0.65l0.45-0.94c0.7,0.36,1.62,0.54,2.46,0.54
		c1.49,0,2.36-0.68,2.36-1.78c0-2.37-5.04-1.55-5.04-4.61c0-1.62,1.46-2.7,3.47-2.7c1.04,0,2.01,0.2,2.84,0.65l-0.45,0.88
		c-0.61-0.33-1.42-0.54-2.2-0.54c-1.28,0-2.12,0.61-2.12,1.65c0,2.27,5.07,1.47,5.07,4.61C151.56,175.32,150.03,176.5,147.75,176.5z
		"/>
	<path class="st7" d="M153.89,176.28V163.9h1.55v12.38H153.89z"/>
	<path class="st7" d="M162.06,176.5c-2.56,0-4.34-0.85-4.34-2.84c0-2.65,2.95-3.36,6.53-3.67v-0.59c0-1.49-0.95-2.05-2.59-2.05
		c-0.99,0-2.05,0.22-2.88,0.58l-0.38-0.9c0.99-0.43,2.18-0.65,3.36-0.65c2.41,0,3.96,0.92,3.96,3.15v6.33
		C164.81,176.26,163.46,176.5,162.06,176.5z M164.25,170.76c-3.04,0.32-5.04,0.77-5.04,2.86c0,1.37,1.13,1.98,2.86,1.98
		c0.79,0,1.6-0.13,2.18-0.36V170.76z"/>
	<path class="st7" d="M172.96,176.5c-3.29,0-5-1.91-5-5c0-3.08,1.91-5.09,5-5.09c0.72,0,1.42,0.11,1.96,0.23v-2.73h1.53v11.94
		C175.57,176.28,174.24,176.5,172.96,176.5z M174.93,167.5c-0.47-0.11-1.08-0.2-1.66-0.2c-2.57,0-3.74,1.67-3.74,4.17
		c0,2.41,1.03,4.05,3.53,4.05c0.68,0,1.35-0.11,1.87-0.32V167.5z"/>
	<path class="st7" d="M180.2,172.03c0.18,2.27,1.62,3.42,3.72,3.42c1.03,0,2.09-0.22,2.88-0.58l0.41,0.95
		c-0.94,0.45-2.16,0.67-3.42,0.67c-2.99,0-5.11-1.62-5.11-5.09c0-3.35,1.98-5.04,4.62-5.04c2.68,0,4.32,1.51,4.32,4.73L180.2,172.03
		z M183.24,167.28c-1.71,0-3.11,1.24-3.11,3.87v0.05l5.97-0.76C186.1,168.24,184.95,167.28,183.24,167.28z"/>
	<path class="st7" d="M196.47,176.28v-6.39c0-1.82-1.02-2.57-2.84-2.57c-0.74,0-1.58,0.13-2.21,0.36v8.6h-1.55v-9.23
		c1.08-0.45,2.46-0.68,3.78-0.68c2.7,0,4.35,1.02,4.35,3.54v6.37H196.47z"/>
	<path class="st7" d="M206.16,176.28V163.9h1.62v11.35h4.84v1.03H206.16z"/>
	<path class="st7" d="M221.04,176.28l-4.89-5.38h-0.02v5.38h-1.51V163.9h1.51v6.89h0.02l4.57-4.21h1.74l-4.77,4.21l5.2,5.49H221.04z
		"/>
	<path class="st7" d="M235.24,176.28h-1.39l-2.39-7.14c-0.13-0.36-0.25-0.92-0.29-1.17h-0.04c-0.04,0.24-0.12,0.78-0.27,1.17
		l-2.46,7.14h-1.39l-3.31-9.7h1.64l2.18,7.12c0.13,0.43,0.23,0.95,0.27,1.24h0.04c0.05-0.29,0.07-0.57,0.29-1.24l2.39-7.12h1.44
		l2.32,7.12c0.18,0.56,0.25,0.99,0.31,1.24h0.04c0.04-0.23,0.11-0.7,0.27-1.24l2.21-7.12h1.46L235.24,176.28z"/>
	<path class="st7" d="M240.14,170.83v-1.15H245v1.15H240.14z"/>
	<path class="st7" d="M249.21,164.91v4.46h4.66v1.01h-4.66v5.9h-1.62V163.9h6.75v1.01H249.21z"/>
	<path class="st7" d="M257.38,172.03c0.18,2.27,1.62,3.42,3.72,3.42c1.03,0,2.09-0.22,2.88-0.58l0.41,0.95
		c-0.94,0.45-2.16,0.67-3.42,0.67c-2.99,0-5.11-1.62-5.11-5.09c0-3.35,1.98-5.04,4.62-5.04c2.68,0,4.32,1.51,4.32,4.73
		L257.38,172.03z M260.42,167.28c-1.71,0-3.11,1.24-3.11,3.87v0.05l5.97-0.76C263.29,168.24,262.13,167.28,260.42,167.28z"/>
	<path class="st7" d="M271.66,167.5c-0.4-0.09-0.88-0.14-1.35-0.14c-0.66,0-1.31,0.09-1.71,0.3v8.62h-1.55v-9.27
		c1.11-0.43,2.23-0.65,4.21-0.65c0.29,0,0.57,0.02,0.79,0.04L271.66,167.5z"/>
	<path class="st7" d="M280.2,176.28v-6.39c0-1.82-1.02-2.57-2.84-2.57c-0.74,0-1.58,0.13-2.21,0.36v8.6h-1.55v-9.23
		c1.08-0.45,2.46-0.68,3.78-0.68c2.7,0,4.35,1.02,4.35,3.54v6.37H280.2z"/>
	<path class="st7" d="M288.81,176.28h-1.46l-3.85-9.7h1.71l2.56,7.12c0.21,0.63,0.29,0.99,0.36,1.28h0.04
		c0.05-0.25,0.2-0.83,0.36-1.28l2.52-7.12h1.53L288.81,176.28z"/>
	<path class="st7" d="M295.28,172.03c0.18,2.27,1.62,3.42,3.72,3.42c1.03,0,2.09-0.22,2.88-0.58l0.41,0.95
		c-0.94,0.45-2.16,0.67-3.42,0.67c-2.99,0-5.11-1.62-5.11-5.09c0-3.35,1.98-5.04,4.62-5.04c2.68,0,4.32,1.51,4.32,4.73
		L295.28,172.03z M298.32,167.28c-1.71,0-3.11,1.24-3.11,3.87v0.05l5.97-0.76C301.18,168.24,300.03,167.28,298.32,167.28z"/>
	<path class="st7" d="M309.55,167.5c-0.4-0.09-0.88-0.14-1.35-0.14c-0.66,0-1.31,0.09-1.71,0.3v8.62h-1.55v-9.27
		c1.11-0.43,2.23-0.65,4.21-0.65c0.29,0,0.57,0.02,0.79,0.04L309.55,167.5z"/>
	<path class="st7" d="M318.02,176.28l-4.89-5.38h-0.02v5.38h-1.51V163.9h1.51v6.89h0.02l4.57-4.21h1.74l-4.77,4.21l5.2,5.49H318.02z
		"/>
	<path class="st7" d="M322.17,172.03c0.18,2.27,1.62,3.42,3.72,3.42c1.03,0,2.09-0.22,2.88-0.58l0.41,0.95
		c-0.94,0.45-2.16,0.67-3.42,0.67c-2.99,0-5.11-1.62-5.11-5.09c0-3.35,1.98-5.04,4.62-5.04c2.68,0,4.32,1.51,4.32,4.73
		L322.17,172.03z M325.21,167.28c-1.71,0-3.11,1.24-3.11,3.87v0.05l5.97-0.76C328.07,168.24,326.92,167.28,325.21,167.28z"/>
	<path class="st7" d="M338.44,176.28v-6.33c0-1.71-0.9-2.64-2.63-2.64c-0.85,0-1.71,0.18-2.43,0.5v8.47h-1.55V163.9h1.55v3.06
		c0.76-0.36,1.73-0.59,2.66-0.59c2.5,0,3.92,1.19,3.92,3.58v6.33H338.44z"/>
	<path class="st7" d="M347.19,167.5c-0.4-0.09-0.88-0.14-1.35-0.14c-0.66,0-1.31,0.09-1.71,0.3v8.62h-1.55v-9.27
		c1.11-0.43,2.23-0.65,4.21-0.65c0.29,0,0.57,0.02,0.79,0.04L347.19,167.5z"/>
</g>
<g>
	
		<linearGradient id="SVGID_00000000211703497331176490000012230709515055051435_" gradientUnits="userSpaceOnUse" x1="4856.0659" y1="30.788" x2="4856.0659" y2="144.5358" gradientTransform="matrix(-1 0 0 1 4920.6274 0)">
		<stop  offset="0" style="stop-color:#25BDEF"/>
		<stop  offset="1" style="stop-color:#17408A"/>
	</linearGradient>
	<path style="fill:url(#SVGID_00000000211703497331176490000012230709515055051435_);" d="M88.46,144.54
		c-3.6-0.19-7.2-0.73-10.68-1.59c-4.04-1-7.97-2.45-11.7-4.32c-3.65-1.83-7.12-4.06-10.31-6.64c-3.16-2.56-6.06-5.46-8.62-8.64
		c-2.57-3.19-4.79-6.66-6.61-10.31c-1.85-3.72-3.29-7.64-4.28-11.66c-1.02-4.13-1.57-8.4-1.64-12.68
		c-0.07-4.43,0.37-8.92,1.31-13.36c0.58-2.73,1.38-5.45,2.38-8.07c0.98-2.58,2.17-5.11,3.53-7.54c1.35-2.39,2.89-4.71,4.58-6.89
		c1.68-2.17,3.53-4.24,5.51-6.14c1.98-1.91,4.11-3.69,6.33-5.29c2.24-1.61,4.61-3.07,7.05-4.33c2.47-1.28,5.04-2.38,7.65-3.27
		c2.66-0.91,5.4-1.61,8.15-2.1c4.46-0.79,8.97-1.07,13.39-0.84l-0.21,4c-4.12-0.21-8.33,0.05-12.49,0.79
		c-2.55,0.45-5.09,1.1-7.56,1.94c-2.42,0.83-4.81,1.85-7.1,3.03c-2.26,1.17-4.47,2.53-6.55,4.03c-2.07,1.49-4.05,3.14-5.89,4.92
		c-1.84,1.77-3.56,3.7-5.12,5.71c-1.57,2.03-3,4.18-4.25,6.4c-1.27,2.25-2.37,4.6-3.28,6.99c-0.92,2.43-1.67,4.95-2.21,7.48
		c-0.88,4.14-1.29,8.33-1.22,12.46c0.07,3.98,0.58,7.95,1.53,11.79c0.92,3.74,2.26,7.39,3.98,10.84c1.69,3.4,3.76,6.62,6.14,9.59
		c2.38,2.95,5.07,5.66,8.01,8.03c2.96,2.4,6.19,4.47,9.59,6.17c3.46,1.73,7.12,3.08,10.87,4.01c3.24,0.8,6.58,1.3,9.93,1.48
		L88.46,144.54z"/>
	
		<linearGradient id="SVGID_00000168795995991511131010000009944012252866495134_" gradientUnits="userSpaceOnUse" x1="-182.3752" y1="32.9936" x2="-158.9066" y2="32.9936" gradientTransform="matrix(1 0 0 1 264.79 0)">
		<stop  offset="0" style="stop-color:#25BDEF"/>
		<stop  offset="1" style="stop-color:#17408A"/>
	</linearGradient>
	<path style="fill:url(#SVGID_00000168795995991511131010000009944012252866495134_);" d="M98.64,49.15
		c-8.96,0-16.23-7.11-16.23-16.08s7.27-16.23,16.23-16.23h7.24v32.31H98.64z"/>
	<g>
		
			<linearGradient id="SVGID_00000142866731074349800370000012928094958061992586_" gradientUnits="userSpaceOnUse" x1="4801.8325" y1="27.4758" x2="4814.8159" y2="27.4758" gradientTransform="matrix(-1 0 0 1 4920.6274 0)">
			<stop  offset="0" style="stop-color:#25BDEF"/>
			<stop  offset="1" style="stop-color:#17408A"/>
		</linearGradient>
		
			<rect x="105.81" y="25.48" style="fill:url(#SVGID_00000142866731074349800370000012928094958061992586_);" width="12.98" height="4"/>
		
			<linearGradient id="SVGID_00000143608553793138924920000002725566321279827134_" gradientUnits="userSpaceOnUse" x1="4801.8325" y1="38.5114" x2="4814.8159" y2="38.5114" gradientTransform="matrix(-1 0 0 1 4920.6274 0)">
			<stop  offset="0" style="stop-color:#25BDEF"/>
			<stop  offset="1" style="stop-color:#17408A"/>
		</linearGradient>
		
			<rect x="105.81" y="36.51" style="fill:url(#SVGID_00000143608553793138924920000002725566321279827134_);" width="12.98" height="4"/>
	</g>
</g>
<g>
	<defs>
		<path id="SVGID_00000036218591009507797120000013555937932295670934_" d="M210.89,145.56v-23.03h-23.66v23.03h-6.32v-48.3h6.32
			v21.34h23.66V97.26h6.32v48.3H210.89z M248.16,146.4c-11.51,0-17.69-8.56-17.69-19.8s6.18-19.73,17.69-19.73
			s17.69,8.49,17.69,19.73S259.68,146.4,248.16,146.4z M248.16,110.6c-8.21,0-11.58,7.3-11.58,15.94c0,8.63,3.37,15.94,11.58,15.94
			c8.21,0,11.58-7.3,11.58-15.94C259.75,117.9,256.38,110.6,248.16,110.6z M279.4,145.56v-48.3h6.32v44.3h18.88v4H279.4z
			 M331.7,146.4c-9.97,0-16.92-3.3-16.92-11.09c0-10.32,11.51-13.13,25.48-14.32v-2.32c0-5.83-3.72-8-10.11-8
			c-3.86,0-8,0.84-11.23,2.25l-1.47-3.51c3.86-1.68,8.49-2.53,13.13-2.53c9.41,0,15.44,3.58,15.44,12.29v24.71
			C342.44,145.49,337.17,146.4,331.7,146.4z M340.26,124.01c-11.86,1.26-19.66,3.02-19.66,11.16c0,5.34,4.42,7.72,11.16,7.72
			c3.09,0,6.25-0.49,8.49-1.4V124.01z"/>
	</defs>
	
		<linearGradient id="SVGID_00000123423869167125933070000014495061155016346761_" gradientUnits="userSpaceOnUse" x1="346.0203" y1="121.8299" x2="180.9143" y2="121.8299">
		<stop  offset="0" style="stop-color:#25BDEF"/>
		<stop  offset="1" style="stop-color:#17408A"/>
	</linearGradient>
	
		<use xlink:href="#SVGID_00000036218591009507797120000013555937932295670934_"  style="overflow:visible;fill:url(#SVGID_00000123423869167125933070000014495061155016346761_);"/>
	<clipPath id="SVGID_00000085243402307449518760000005348559244912989629_">
		<use xlink:href="#SVGID_00000036218591009507797120000013555937932295670934_"  style="overflow:visible;"/>
	</clipPath>
	
		<linearGradient id="SVGID_00000112603338766174004860000013994004217584723897_" gradientUnits="userSpaceOnUse" x1="360.7925" y1="253.9764" x2="184.6066" y2="253.9764">
		<stop  offset="0" style="stop-color:#25BDEF"/>
		<stop  offset="1" style="stop-color:#17408A"/>
	</linearGradient>
	
		<rect x="184.61" y="224.58" style="clip-path:url(#SVGID_00000085243402307449518760000005348559244912989629_);fill:url(#SVGID_00000112603338766174004860000013994004217584723897_);" width="176.19" height="58.79"/>
</g>
</svg>
