<svg width="286" height="54" viewBox="0 0 286 54" fill="none" xmlns="http://www.w3.org/2000/svg">
<path fill-rule="evenodd" clip-rule="evenodd" d="M0 13.2071H6.65276V24.6134C6.65276 25.8994 7.33005 27.2719 8.50518 27.2719H10.4422L9.94175 24.6277L10.021 20.1539C10.021 17.9392 10.3714 16.2273 11.473 15.1144C12.601 13.975 13.6941 13.2071 15.9158 13.2071H20.6316C23.7018 13.2071 26.1894 15.8266 26.1894 18.953V22.0404H13.4737V25.2995C13.4737 26.5128 14.5851 27.3577 15.8316 27.3577H23.1579V30.7881H8.58959C5.72586 30.7881 3.28418 28.0605 3.28418 25.1279V16.6375H0V39.4501L7.91591 39.8789C11.905 40.099 16.8814 39.3643 20.1746 38.7273C24.276 37.9338 26.9619 36.8463 30.2034 35.2191C33.0683 33.7807 35.6095 31.3827 37.4232 28.8499C37.7961 28.3288 38.5736 27.3755 38.5706 26.5879C38.5664 25.4438 38.5684 24.2995 38.5684 23.1555C38.5684 20.8683 38.5684 18.5814 38.5684 16.2944C39.137 15.4297 40 14.4077 40 12.9498V12.178C40 10.6886 39.2217 9.86998 38.6526 9.00482C39.116 8.11292 39.7474 7.2743 39.7474 5.91746C39.7474 4.07402 39.0037 2.80191 38.0842 1.86528C37.6084 1.38074 37.0759 0.947652 36.4061 0.658314C35.968 0.469029 34.3273 0.0890273 34.1895 0H5.53539C2.2472 0.207662 0.402001 1.56329 0 4.06667V13.2071Z" fill="#84B818"/>
<path fill-rule="evenodd" clip-rule="evenodd" d="M0 16.6377H3.28418V25.1281C3.28418 28.0607 5.72586 30.7883 8.58959 30.7883H23.1579V27.3579H15.8316C14.5851 27.3579 13.4737 26.513 13.4737 25.2997V22.0406H26.1894V18.9532C26.1894 15.8268 23.7018 13.2073 20.6316 13.2073H15.9158C13.6941 13.2073 12.601 13.9752 11.473 15.1146C10.3714 16.2275 10.021 17.9394 10.021 20.1541L9.94175 24.6279L10.4422 27.2722H8.50518C7.33005 27.2722 6.65276 25.8996 6.65276 24.6136V13.2073H0V16.6377Z" fill="#F9F9F9"/>
<path fill-rule="evenodd" clip-rule="evenodd" d="M9.17912 41.3365L7.91256 41.4013L1.09479 40.9937C1.91262 41.5724 6.77253 42.5889 8.18665 42.9476C10.3037 43.4844 13.6823 43.9096 16.2527 43.9096H18.6106C23.6159 43.9096 26.8557 42.7549 30.4114 41.3482C32.9363 40.3495 37.1935 37.0816 38.5685 34.9903V29.7589C36.8707 31.7483 35.7124 33.4025 33.4487 34.9219C31.1643 36.4556 29.4847 37.3587 26.7284 38.455C22.1434 40.279 15.5279 41.3365 9.17912 41.3365Z" fill="#84B818"/>
<path fill-rule="evenodd" clip-rule="evenodd" d="M0 46.5679C0.414231 46.6662 1.80469 47.4697 2.4084 47.7171C3.27435 48.0718 4.04367 48.4729 4.93369 48.8332C6.69948 49.5485 8.42137 50.0954 10.1984 50.761C12.7794 51.7279 18.8588 53 22.3158 53H24.0844C26.8763 53 30.6906 52.339 32.5346 51.4005C33.8453 50.7336 34.64 50.4357 35.84 49.621C36.549 49.1397 38.1496 47.8911 38.5684 47.254V43.7379C38.3523 43.8853 37.4923 44.7104 37.2405 44.9581C36.8443 45.3477 36.2404 45.8049 35.7733 46.1226C34.7776 46.7993 33.6097 47.5711 32.4329 48.0381C30.0071 49.0007 27.3168 49.9126 23.9157 49.9126H20.8842C16.8397 49.9126 12.8626 48.5165 9.5989 47.6841C8.13305 47.3102 6.1052 46.4044 4.69008 45.8222C3.87124 45.4855 3.12518 45.118 2.35787 44.767C1.82114 44.5213 0.456537 43.7603 0 43.6521V46.5679Z" fill="#84B818"/>
<path fill-rule="evenodd" clip-rule="evenodd" d="M17.2633 45.3678H16.5896C13.7495 45.3678 10.8655 44.8336 8.41221 44.4336C7.15508 44.2286 5.89193 43.9076 4.68152 43.6019C3.81997 43.3842 1.73057 42.5916 1.09479 42.5377C2.15222 43.4735 8.60389 45.8582 10.4517 46.473C13.2747 47.4121 17.9985 48.5409 21.6421 48.5409H23.4948C26.9171 48.5409 30.0585 47.5698 32.4216 46.4833C34.2834 45.6271 37.5147 43.197 38.5685 41.5941V37.2203C38.0783 37.5548 37.2508 38.5229 36.6942 38.9992C36.0729 39.5314 35.2635 40.1537 34.577 40.6166C32.9515 41.7125 31.6176 42.3239 29.7848 43.1974C26.8479 44.5976 21.6121 45.3678 17.2633 45.3678Z" fill="#84B818"/>
<path fill-rule="evenodd" clip-rule="evenodd" d="M27.3686 5.91775V6.26079H29.8949C30.2542 6.26079 30.1375 5.68088 30.2872 5.28823C30.4023 4.98704 30.6365 4.6879 30.8408 4.47983C31.2685 4.04429 31.9367 3.68798 32.758 3.68798H33.2632C34.3099 3.68798 35.4527 4.51556 35.4527 5.5747V6.17503C35.4527 7.12635 34.443 7.80447 33.4317 7.80447H32.0001V10.2058H33.8527C34.9992 10.2058 35.7895 11.2694 35.7895 12.5213V12.6928C35.7895 13.8473 34.5711 14.5795 33.4317 14.5795H32.2527C31.0746 14.5795 29.9789 13.1743 29.9789 11.8352H27.2844V12.264C27.2844 14.9036 29.9145 16.8951 32.6738 16.8951H33.2632C34.7289 16.8951 35.8888 16.5449 36.7838 15.9352C37.495 15.4506 38.5685 14.2532 38.5685 13.1216V12.0067C38.5685 10.8379 37.2099 9.18276 36.1264 9.09087C36.2631 8.90077 37.0523 8.70638 37.5816 8.00009C37.8968 7.57986 38.3158 6.7927 38.3158 6.08927V5.74623C38.3158 3.39415 36.1458 1.45801 33.9369 1.45801H32.0843C29.8385 1.45801 27.3686 3.5816 27.3686 5.91775Z" fill="#F9F9F9"/>
<path fill-rule="evenodd" clip-rule="evenodd" d="M13.4738 18.6099H22.7368C22.716 17.6505 21.7032 16.723 20.7158 16.723H15.579C14.4624 16.723 13.5548 17.6192 13.4738 18.6099Z" fill="#84B818"/>
<path fill-rule="evenodd" clip-rule="evenodd" d="M3.28418 9.60534H6.65277V6.17493H3.28418V9.60534Z" fill="#F9F9F9"/>
<path d="M52.4472 13V2.2232H51.6416V13H52.4472ZM61.5908 13V7.984C61.5908 6.2816 60.6636 5.2024 58.9156 5.2024C57.8516 5.2024 56.7724 5.8256 56.3468 6.7832L56.2556 5.4H55.5868V13H56.3468V9.2C56.3468 7.5584 57.0004 5.9472 58.87 5.9472C60.2532 5.9472 60.8308 6.7072 60.8308 8.0296V13H61.5908ZM69.8749 10.8872C69.8749 9.96 69.2061 8.9872 67.7773 8.7896L66.3333 8.592C65.1781 8.44 64.8589 7.9536 64.8589 7.3152C64.8589 6.9048 65.0717 6.54 65.4517 6.2664C65.7861 6.0232 66.2269 5.9168 66.8197 5.9168C67.6101 5.9168 68.2029 6.1752 68.5525 6.5856C68.7957 6.8744 68.9021 7.2544 68.9325 7.4976H69.6925C69.6773 7.0112 69.4645 6.5096 69.1149 6.0992C68.5981 5.4912 67.7317 5.2024 66.8197 5.2024C66.0293 5.2024 65.2845 5.4152 64.7373 5.9168C64.3421 6.2816 64.0837 6.7832 64.0837 7.3912C64.0837 7.8776 64.2357 8.2728 64.5093 8.592C64.9349 9.0784 65.6037 9.276 66.2269 9.352L67.7013 9.5496C68.6133 9.6712 69.0997 10.2488 69.0997 10.9328C69.0997 11.3736 68.9629 11.632 68.6893 11.9056C68.3093 12.2856 67.6861 12.468 66.8957 12.468C66.1661 12.468 65.5429 12.2856 65.1021 11.86C64.7829 11.5408 64.5853 11.1456 64.5397 10.6896H63.7645C63.7949 11.3128 63.9773 11.7384 64.4029 12.2248C64.9805 12.8784 65.8621 13.1976 66.8957 13.1976C67.8989 13.1976 68.8109 12.8936 69.3581 12.2856C69.6925 11.9056 69.8749 11.4496 69.8749 10.8872ZM75.7549 12.924V12.2552C75.3445 12.3312 74.9645 12.392 74.5541 12.392C73.5357 12.392 73.2925 11.7536 73.2925 10.8568V6.0992H75.6485V5.4H73.2925V3.12L72.5325 3.3024V5.4H71.0125V6.0992H72.5325V10.8872C72.5325 12.2096 73.0797 13.1064 74.4933 13.1064C74.9189 13.1064 75.3293 13.0152 75.7549 12.924ZM78.7814 3.2872V2.2232H77.7174V3.2872H78.7814ZM78.6598 13V5.4H77.8542V13H78.6598ZM85.3291 12.924V12.2552C84.9187 12.3312 84.5387 12.392 84.1283 12.392C83.1099 12.392 82.8667 11.7536 82.8667 10.8568V6.0992H85.2227V5.4H82.8667V3.12L82.1067 3.3024V5.4H80.5867V6.0992H82.1067V10.8872C82.1067 12.2096 82.6539 13.1064 84.0675 13.1064C84.4931 13.1064 84.9035 13.0152 85.3291 12.924ZM93.2045 12.9848V5.3848H92.4445V9.1848C92.4445 10.8264 91.7909 12.4376 89.9213 12.4376C88.5381 12.4376 87.9605 11.6776 87.9605 10.3552V5.3848H87.2005V10.4008C87.2005 12.1032 88.1277 13.1824 89.8757 13.1824C90.9397 13.1824 92.0189 12.5744 92.4445 11.6016L92.5357 12.9848H93.2045ZM99.8166 12.924V12.2552C99.4062 12.3312 99.0262 12.392 98.6158 12.392C97.5974 12.392 97.3542 11.7536 97.3542 10.8568V6.0992H99.7102V5.4H97.3542V3.12L96.5942 3.3024V5.4H95.0742V6.0992H96.5942V10.8872C96.5942 12.2096 97.1414 13.1064 98.555 13.1064C98.9806 13.1064 99.391 13.0152 99.8166 12.924ZM107.62 8.8808C107.62 6.9656 106.419 5.2024 104.367 5.2024C103.303 5.2024 102.421 5.6584 101.783 6.5248C101.19 7.3304 101.038 8.2728 101.038 9.2304C101.038 10.3856 101.388 11.3888 102.011 12.1184C102.558 12.7416 103.333 13.1976 104.428 13.1976C105.294 13.1976 106.054 12.8632 106.601 12.316C107.027 11.9056 107.346 11.3736 107.452 10.72H106.662C106.571 11.176 106.358 11.5104 106.084 11.7992C105.674 12.2248 105.096 12.468 104.428 12.468C103.607 12.468 103.014 12.164 102.588 11.6624C102.102 11.0848 101.813 10.264 101.798 9.3824H107.604C107.604 9.2 107.62 9.0632 107.62 8.8808ZM106.844 8.6832H101.813C101.813 7.1784 102.801 5.9168 104.367 5.9168C105.917 5.9168 106.814 7.2392 106.844 8.6832ZM119.094 9.2C119.094 7.908 118.805 6.9048 118.015 6.1144C117.483 5.5824 116.738 5.2024 115.796 5.2024C114.853 5.2024 114.108 5.5824 113.576 6.1144C112.786 6.9048 112.497 7.908 112.497 9.2C112.497 10.492 112.786 11.4952 113.576 12.2856C114.108 12.8176 114.853 13.1976 115.796 13.1976C116.738 13.1976 117.483 12.8176 118.015 12.2856C118.805 11.4952 119.094 10.492 119.094 9.2ZM118.319 9.2C118.319 10.188 118.152 11.0696 117.468 11.784C117.072 12.1944 116.525 12.4528 115.796 12.4528C115.066 12.4528 114.519 12.1944 114.124 11.784C113.44 11.0696 113.272 10.188 113.272 9.2C113.272 8.212 113.44 7.3304 114.124 6.616C114.519 6.2056 115.066 5.9472 115.796 5.9472C116.525 5.9472 117.072 6.2056 117.468 6.616C118.152 7.3304 118.319 8.212 118.319 9.2ZM125.174 2.7096V2.0256C124.81 1.9648 124.46 1.9344 124.019 1.9344C122.59 1.9344 121.876 2.9072 121.876 4.0624V5.4H120.356V6.0992H121.876V13H122.636V6.0992H125.022V5.4H122.636V4.0928C122.636 3.12 123.122 2.6184 124.08 2.6184C124.521 2.6184 124.87 2.664 125.174 2.7096ZM58.5424 31V30.24H52.4472V25.6952H57.8128V24.9352H52.4472V20.9832H58.5424V20.2232H51.6416V31H58.5424ZM66.8752 31V25.984C66.8752 24.2816 65.948 23.2024 64.2 23.2024C63.136 23.2024 62.0568 23.8256 61.6312 24.7832L61.54 23.4H60.8712V31H61.6312V27.2C61.6312 25.5584 62.2848 23.9472 64.1544 23.9472C65.5376 23.9472 66.1152 24.7072 66.1152 26.0296V31H66.8752ZM75.6609 26.8808C75.6609 24.9656 74.4601 23.2024 72.4081 23.2024C71.3441 23.2024 70.4625 23.6584 69.8241 24.5248C69.2313 25.3304 69.0793 26.2728 69.0793 27.2304C69.0793 28.3856 69.4289 29.3888 70.0521 30.1184C70.5993 30.7416 71.3745 31.1976 72.4689 31.1976C73.3353 31.1976 74.0953 30.8632 74.6425 30.316C75.0681 29.9056 75.3873 29.3736 75.4937 28.72H74.7033C74.6121 29.176 74.3993 29.5104 74.1257 29.7992C73.7153 30.2248 73.1377 30.468 72.4689 30.468C71.6481 30.468 71.0553 30.164 70.6297 29.6624C70.1433 29.0848 69.8545 28.264 69.8393 27.3824H75.6457C75.6457 27.2 75.6609 27.0632 75.6609 26.8808ZM74.8857 26.6832H69.8545C69.8545 25.1784 70.8425 23.9168 72.4081 23.9168C73.9585 23.9168 74.8553 25.2392 74.8857 26.6832ZM81.8483 24.1296V23.3696C81.6051 23.324 81.3467 23.324 81.1035 23.324C80.0395 23.324 79.0211 23.8864 78.6867 24.9352L78.5955 23.4H77.9267V31H78.6867V27.352C78.6867 25.756 79.2035 24.0536 81.1035 24.0536C81.3467 24.0536 81.6051 24.0688 81.8483 24.1296ZM89.8753 32.14C89.8753 31.4712 89.6321 31.0304 89.2673 30.6656C88.7809 30.164 88.0057 29.9208 87.0329 29.9208H85.3761C85.0873 29.9208 84.6313 29.9056 84.3577 29.7992C84.0537 29.6776 83.8257 29.4496 83.8257 29.0848C83.8257 28.6136 84.1905 28.2944 84.5857 28.1424C85.0265 28.3704 85.5433 28.492 86.1057 28.492C87.7017 28.492 88.9785 27.504 88.9785 25.8624C88.9785 25.1784 88.7505 24.6008 88.3705 24.16C88.4769 23.6432 88.8721 23.3392 89.4193 23.3392C89.5105 23.3392 89.6169 23.3696 89.7081 23.3696V22.716C89.6169 22.716 89.5105 22.6856 89.4193 22.6856C88.7353 22.6856 88.0817 23.0656 87.8841 23.7192C87.3825 23.3848 86.7745 23.2024 86.1057 23.2024C84.5097 23.2024 83.2633 24.2208 83.2633 25.8624C83.2633 26.6528 83.5521 27.276 84.0233 27.732C83.4457 28.0664 83.1113 28.5224 83.1113 29.176C83.1113 29.708 83.5369 30.2704 84.0689 30.4224C83.3545 30.7568 82.9289 31.4712 82.9289 32.2008C82.9289 32.7784 83.1265 33.2192 83.4609 33.5688C84.0993 34.2224 85.1329 34.4504 86.2881 34.4504C87.5041 34.4504 88.6441 34.2224 89.2977 33.5536C89.6321 33.204 89.8753 32.7328 89.8753 32.14ZM88.2185 25.8624C88.2185 27.0784 87.2913 27.808 86.1057 27.808C84.9201 27.808 84.0081 27.0784 84.0081 25.8624C84.0081 24.6464 84.9201 23.8864 86.1057 23.8864C87.2913 23.8864 88.2185 24.6464 88.2185 25.8624ZM89.1153 32.14C89.1153 32.5352 88.9481 32.8696 88.7201 33.0976C88.1425 33.6752 87.0633 33.7664 86.3033 33.7664C85.5433 33.7664 84.6009 33.6752 84.0537 33.1584C83.8105 32.9304 83.6433 32.596 83.6433 32.2008C83.6433 31.304 84.2665 30.7872 84.9049 30.6352H86.9113C87.8081 30.6352 88.4009 30.8328 88.7505 31.1976C88.9785 31.4408 89.1153 31.7144 89.1153 32.14ZM97.4882 23.4H96.6674L94.1138 30.1488L91.4538 23.4H90.633L93.749 31.1216L93.2626 32.368C93.0042 33.0216 92.609 33.4928 91.8794 33.4928C91.4842 33.4928 90.9522 33.4016 90.9522 33.4016V34.04C90.9522 34.04 91.3018 34.1768 91.9098 34.1768C92.9434 34.1768 93.5818 33.6144 93.9618 32.6264L97.4882 23.4ZM109.578 28.0816C109.578 26.5616 108.438 25.3608 106.766 25.148L104.729 24.8896C103.741 24.768 102.829 24.2816 102.829 23.0048C102.829 22.3056 103.148 21.804 103.559 21.4392C104.091 20.9832 104.835 20.7856 105.611 20.7856C106.599 20.7856 107.48 21.1352 107.951 21.7128C108.301 22.1232 108.468 22.5336 108.544 23.0808H109.35C109.289 22.3056 108.985 21.7432 108.529 21.2112C107.921 20.4968 106.766 20.0256 105.611 20.0256C104.607 20.0256 103.619 20.36 102.951 20.968C102.403 21.4696 102.008 22.108 102.008 23.0048C102.008 24.6616 103.133 25.528 104.653 25.7256L106.659 25.984C107.951 26.1512 108.757 27.048 108.757 28.0816C108.757 28.7656 108.499 29.2672 108.119 29.632C107.526 30.1944 106.599 30.4376 105.671 30.4376C104.775 30.4376 103.878 30.1488 103.3 29.556C102.89 29.1304 102.586 28.5376 102.51 27.8992H101.689C101.765 28.72 102.13 29.48 102.662 30.0424C103.376 30.8024 104.44 31.1976 105.671 31.1976C106.918 31.1976 107.997 30.8632 108.727 30.1488C109.228 29.6472 109.578 29.024 109.578 28.0816ZM117.483 23.4H116.662L114.108 30.1488L111.448 23.4H110.628L113.744 31.1216L113.257 32.368C112.999 33.0216 112.604 33.4928 111.874 33.4928C111.479 33.4928 110.947 33.4016 110.947 33.4016V34.04C110.947 34.04 111.296 34.1768 111.904 34.1768C112.938 34.1768 113.576 33.6144 113.956 32.6264L117.483 23.4ZM124.441 28.8872C124.441 27.96 123.772 26.9872 122.343 26.7896L120.899 26.592C119.744 26.44 119.425 25.9536 119.425 25.3152C119.425 24.9048 119.637 24.54 120.017 24.2664C120.352 24.0232 120.793 23.9168 121.385 23.9168C122.176 23.9168 122.769 24.1752 123.118 24.5856C123.361 24.8744 123.468 25.2544 123.498 25.4976H124.258C124.243 25.0112 124.03 24.5096 123.681 24.0992C123.164 23.4912 122.297 23.2024 121.385 23.2024C120.595 23.2024 119.85 23.4152 119.303 23.9168C118.908 24.2816 118.649 24.7832 118.649 25.3912C118.649 25.8776 118.801 26.2728 119.075 26.592C119.501 27.0784 120.169 27.276 120.793 27.352L122.267 27.5496C123.179 27.6712 123.665 28.2488 123.665 28.9328C123.665 29.3736 123.529 29.632 123.255 29.9056C122.875 30.2856 122.252 30.468 121.461 30.468C120.732 30.468 120.109 30.2856 119.668 29.86C119.349 29.5408 119.151 29.1456 119.105 28.6896H118.33C118.361 29.3128 118.543 29.7384 118.969 30.2248C119.546 30.8784 120.428 31.1976 121.461 31.1976C122.465 31.1976 123.377 30.8936 123.924 30.2856C124.258 29.9056 124.441 29.4496 124.441 28.8872ZM130.32 30.924V30.2552C129.91 30.3312 129.53 30.392 129.12 30.392C128.101 30.392 127.858 29.7536 127.858 28.8568V24.0992H130.214V23.4H127.858V21.12L127.098 21.3024V23.4H125.578V24.0992H127.098V28.8872C127.098 30.2096 127.645 31.1064 129.059 31.1064C129.484 31.1064 129.895 31.0152 130.32 30.924ZM138.123 26.8808C138.123 24.9656 136.923 23.2024 134.871 23.2024C133.807 23.2024 132.925 23.6584 132.287 24.5248C131.694 25.3304 131.542 26.2728 131.542 27.2304C131.542 28.3856 131.891 29.3888 132.515 30.1184C133.062 30.7416 133.837 31.1976 134.931 31.1976C135.798 31.1976 136.558 30.8632 137.105 30.316C137.531 29.9056 137.85 29.3736 137.956 28.72H137.166C137.075 29.176 136.862 29.5104 136.588 29.7992C136.178 30.2248 135.6 30.468 134.931 30.468C134.111 30.468 133.518 30.164 133.092 29.6624C132.606 29.0848 132.317 28.264 132.302 27.3824H138.108C138.108 27.2 138.123 27.0632 138.123 26.8808ZM137.348 26.6832H132.317C132.317 25.1784 133.305 23.9168 134.871 23.9168C136.421 23.9168 137.318 25.2392 137.348 26.6832ZM150.832 31V25.984C150.832 24.3576 150.087 23.2024 148.308 23.2024C147.062 23.2024 146.256 23.9016 145.861 24.844C145.557 23.856 144.782 23.2024 143.46 23.2024C142.365 23.2024 141.544 23.8408 141.149 24.7072L141.058 23.4H140.389V31H141.149V27.2C141.149 26.1208 141.377 25.072 142.061 24.4336C142.396 24.1144 142.836 23.9168 143.414 23.9168C144.736 23.9168 145.238 24.7072 145.238 26.0296V31H146.013V26.6984C146.013 25.7864 146.317 24.996 146.91 24.4336C147.26 24.1144 147.685 23.9168 148.263 23.9168C149.585 23.9168 150.072 24.7072 150.072 26.0296V31H150.832ZM159.116 28.8872C159.116 27.96 158.447 26.9872 157.018 26.7896L155.574 26.592C154.419 26.44 154.1 25.9536 154.1 25.3152C154.1 24.9048 154.312 24.54 154.692 24.2664C155.027 24.0232 155.468 23.9168 156.06 23.9168C156.851 23.9168 157.444 24.1752 157.793 24.5856C158.036 24.8744 158.143 25.2544 158.173 25.4976H158.933C158.918 25.0112 158.705 24.5096 158.356 24.0992C157.839 23.4912 156.972 23.2024 156.06 23.2024C155.27 23.2024 154.525 23.4152 153.978 23.9168C153.583 24.2816 153.324 24.7832 153.324 25.3912C153.324 25.8776 153.476 26.2728 153.75 26.592C154.176 27.0784 154.844 27.276 155.468 27.352L156.942 27.5496C157.854 27.6712 158.34 28.2488 158.34 28.9328C158.34 29.3736 158.204 29.632 157.93 29.9056C157.55 30.2856 156.927 30.468 156.136 30.468C155.407 30.468 154.784 30.2856 154.343 29.86C154.024 29.5408 153.826 29.1456 153.78 28.6896H153.005C153.036 29.3128 153.218 29.7384 153.644 30.2248C154.221 30.8784 155.103 31.1976 156.136 31.1976C157.14 31.1976 158.052 30.8936 158.599 30.2856C158.933 29.9056 159.116 29.4496 159.116 28.8872ZM162.639 31.0152V29.632H161.241V31H162.077C162.077 31.7448 161.879 32.0944 161.226 32.444L161.484 32.8696C162.29 32.4896 162.639 31.8816 162.639 31.0152ZM175.021 31V30.24H168.926V25.6952H174.292V24.9352H168.926V20.9832H175.021V20.2232H168.121V31H175.021ZM183.354 31V25.984C183.354 24.2816 182.427 23.2024 180.679 23.2024C179.615 23.2024 178.536 23.8256 178.11 24.7832L178.019 23.4H177.35V31H178.11V27.2C178.11 25.5584 178.764 23.9472 180.633 23.9472C182.017 23.9472 182.594 24.7072 182.594 26.0296V31H183.354ZM192.14 26.8808C192.14 24.9656 190.939 23.2024 188.887 23.2024C187.823 23.2024 186.941 23.6584 186.303 24.5248C185.71 25.3304 185.558 26.2728 185.558 27.2304C185.558 28.3856 185.908 29.3888 186.531 30.1184C187.078 30.7416 187.853 31.1976 188.948 31.1976C189.814 31.1976 190.574 30.8632 191.121 30.316C191.547 29.9056 191.866 29.3736 191.973 28.72H191.182C191.091 29.176 190.878 29.5104 190.605 29.7992C190.194 30.2248 189.617 30.468 188.948 30.468C188.127 30.468 187.534 30.164 187.109 29.6624C186.622 29.0848 186.333 28.264 186.318 27.3824H192.125C192.125 27.2 192.14 27.0632 192.14 26.8808ZM191.365 26.6832H186.333C186.333 25.1784 187.321 23.9168 188.887 23.9168C190.437 23.9168 191.334 25.2392 191.365 26.6832ZM198.327 24.1296V23.3696C198.084 23.324 197.826 23.324 197.582 23.324C196.518 23.324 195.5 23.8864 195.166 24.9352L195.074 23.4H194.406V31H195.166V27.352C195.166 25.756 195.682 24.0536 197.582 24.0536C197.826 24.0536 198.084 24.0688 198.327 24.1296ZM206.354 32.14C206.354 31.4712 206.111 31.0304 205.746 30.6656C205.26 30.164 204.485 29.9208 203.512 29.9208H201.855C201.566 29.9208 201.11 29.9056 200.837 29.7992C200.533 29.6776 200.305 29.4496 200.305 29.0848C200.305 28.6136 200.669 28.2944 201.065 28.1424C201.505 28.3704 202.022 28.492 202.585 28.492C204.181 28.492 205.457 27.504 205.457 25.8624C205.457 25.1784 205.229 24.6008 204.849 24.16C204.956 23.6432 205.351 23.3392 205.898 23.3392C205.989 23.3392 206.096 23.3696 206.187 23.3696V22.716C206.096 22.716 205.989 22.6856 205.898 22.6856C205.214 22.6856 204.561 23.0656 204.363 23.7192C203.861 23.3848 203.253 23.2024 202.585 23.2024C200.989 23.2024 199.742 24.2208 199.742 25.8624C199.742 26.6528 200.031 27.276 200.502 27.732C199.925 28.0664 199.59 28.5224 199.59 29.176C199.59 29.708 200.016 30.2704 200.548 30.4224C199.833 30.7568 199.408 31.4712 199.408 32.2008C199.408 32.7784 199.605 33.2192 199.94 33.5688C200.578 34.2224 201.612 34.4504 202.767 34.4504C203.983 34.4504 205.123 34.2224 205.777 33.5536C206.111 33.204 206.354 32.7328 206.354 32.14ZM204.697 25.8624C204.697 27.0784 203.77 27.808 202.585 27.808C201.399 27.808 200.487 27.0784 200.487 25.8624C200.487 24.6464 201.399 23.8864 202.585 23.8864C203.77 23.8864 204.697 24.6464 204.697 25.8624ZM205.594 32.14C205.594 32.5352 205.427 32.8696 205.199 33.0976C204.621 33.6752 203.542 33.7664 202.782 33.7664C202.022 33.7664 201.08 33.6752 200.533 33.1584C200.289 32.9304 200.122 32.596 200.122 32.2008C200.122 31.304 200.745 30.7872 201.384 30.6352H203.39C204.287 30.6352 204.88 30.8328 205.229 31.1976C205.457 31.4408 205.594 31.7144 205.594 32.14ZM213.967 23.4H213.146L210.593 30.1488L207.933 23.4H207.112L210.228 31.1216L209.742 32.368C209.483 33.0216 209.088 33.4928 208.358 33.4928C207.963 33.4928 207.431 33.4016 207.431 33.4016V34.04C207.431 34.04 207.781 34.1768 208.389 34.1768C209.422 34.1768 210.061 33.6144 210.441 32.6264L213.967 23.4ZM225.95 31V30.24H219.855V25.6952H225.221V24.9352H219.855V20.9832H225.95V20.2232H219.049V31H225.95ZM232.079 20.7096V20.0256C231.714 19.9648 231.365 19.9344 230.924 19.9344C229.495 19.9344 228.781 20.9072 228.781 22.0624V23.4H227.261V24.0992H228.781V31H229.541V24.0992H231.927V23.4H229.541V22.0928C229.541 21.12 230.027 20.6184 230.985 20.6184C231.425 20.6184 231.775 20.664 232.079 20.7096ZM237.408 20.7096V20.0256C237.043 19.9648 236.694 19.9344 236.253 19.9344C234.824 19.9344 234.11 20.9072 234.11 22.0624V23.4H232.59V24.0992H234.11V31H234.87V24.0992H237.256V23.4H234.87V22.0928C234.87 21.12 235.356 20.6184 236.314 20.6184C236.754 20.6184 237.104 20.664 237.408 20.7096ZM240.068 21.2872V20.2232H239.004V21.2872H240.068ZM239.946 31V23.4H239.141V31H239.946ZM248.643 28.5984H247.837C247.655 29.632 246.849 30.4528 245.679 30.4528C244.949 30.4528 244.387 30.2248 243.991 29.8144C243.307 29.1 243.155 28.188 243.155 27.2C243.155 26.212 243.307 25.3152 243.991 24.6008C244.387 24.1904 244.949 23.9472 245.679 23.9472C246.834 23.9472 247.655 24.7224 247.822 25.7712H248.612C248.43 24.236 247.259 23.2024 245.679 23.2024C244.736 23.2024 243.976 23.5672 243.444 24.0992C242.654 24.8896 242.38 25.908 242.38 27.2C242.38 28.492 242.654 29.5104 243.444 30.3008C243.976 30.8328 244.736 31.1976 245.679 31.1976C247.275 31.1976 248.445 30.0728 248.643 28.5984ZM251.815 21.2872V20.2232H250.751V21.2872H251.815ZM251.693 31V23.4H250.888V31H251.693ZM260.688 26.8808C260.688 24.9656 259.487 23.2024 257.435 23.2024C256.371 23.2024 255.49 23.6584 254.851 24.5248C254.259 25.3304 254.107 26.2728 254.107 27.2304C254.107 28.3856 254.456 29.3888 255.079 30.1184C255.627 30.7416 256.402 31.1976 257.496 31.1976C258.363 31.1976 259.123 30.8632 259.67 30.316C260.095 29.9056 260.415 29.3736 260.521 28.72H259.731C259.639 29.176 259.427 29.5104 259.153 29.7992C258.743 30.2248 258.165 30.468 257.496 30.468C256.675 30.468 256.083 30.164 255.657 29.6624C255.171 29.0848 254.882 28.264 254.867 27.3824H260.673C260.673 27.2 260.688 27.0632 260.688 26.8808ZM259.913 26.6832H254.882C254.882 25.1784 255.87 23.9168 257.435 23.9168C258.986 23.9168 259.883 25.2392 259.913 26.6832ZM268.958 31V25.984C268.958 24.2816 268.031 23.2024 266.283 23.2024C265.219 23.2024 264.14 23.8256 263.714 24.7832L263.623 23.4H262.954V31H263.714V27.2C263.714 25.5584 264.368 23.9472 266.237 23.9472C267.62 23.9472 268.198 24.7072 268.198 26.0296V31H268.958ZM277.425 28.5984H276.619C276.437 29.632 275.631 30.4528 274.461 30.4528C273.731 30.4528 273.169 30.2248 272.773 29.8144C272.089 29.1 271.937 28.188 271.937 27.2C271.937 26.212 272.089 25.3152 272.773 24.6008C273.169 24.1904 273.731 23.9472 274.461 23.9472C275.616 23.9472 276.437 24.7224 276.604 25.7712H277.394C277.212 24.236 276.041 23.2024 274.461 23.2024C273.518 23.2024 272.758 23.5672 272.226 24.0992C271.436 24.8896 271.162 25.908 271.162 27.2C271.162 28.492 271.436 29.5104 272.226 30.3008C272.758 30.8328 273.518 31.1976 274.461 31.1976C276.057 31.1976 277.227 30.0728 277.425 28.5984ZM284.965 23.4H284.144L281.59 30.1488L278.93 23.4H278.11L281.226 31.1216L280.739 32.368C280.481 33.0216 280.086 33.4928 279.356 33.4928C278.961 33.4928 278.429 33.4016 278.429 33.4016V34.04C278.429 34.04 278.778 34.1768 279.386 34.1768C280.42 34.1768 281.058 33.6144 281.438 32.6264L284.965 23.4ZM57.7976 49V48.3312C57.7216 48.3464 57.676 48.3464 57.5848 48.3464C57.068 48.3464 56.992 48.0424 56.992 47.5256V44.06C56.992 43.5584 56.9768 43.072 56.7944 42.6008C56.384 41.552 55.2592 41.2024 54.2256 41.2024C52.584 41.2024 51.3832 42.0536 51.2768 43.5888H52.0368C52.1128 42.464 53.0248 41.9168 54.2256 41.9168C55.3808 41.9168 56.232 42.388 56.232 43.6496V44.3944L53.4352 44.592C51.9304 44.6984 50.8816 45.504 50.8816 46.8568C50.8816 48.316 52.0216 49.1976 53.496 49.1976C54.6664 49.1976 55.8216 48.6352 56.232 47.556C56.232 48.3616 56.4904 49.0456 57.4328 49.0456C57.6152 49.0456 57.6152 49.0304 57.7976 49ZM56.232 45.4888C56.232 46.948 55.472 48.4984 53.5568 48.4984C52.4776 48.4984 51.6568 47.9512 51.6568 46.8568C51.6568 45.9296 52.3864 45.3368 53.5112 45.2608L56.232 45.0936V45.4888ZM66.0291 49V43.984C66.0291 42.2816 65.1019 41.2024 63.3539 41.2024C62.2899 41.2024 61.2107 41.8256 60.7851 42.7832L60.6939 41.4H60.0251V49H60.7851V45.2C60.7851 43.5584 61.4387 41.9472 63.3083 41.9472C64.6915 41.9472 65.2691 42.7072 65.2691 44.0296V49H66.0291ZM74.754 49V38.0256H73.994V42.6768C73.5836 41.8104 72.5348 41.2024 71.4556 41.2024C70.574 41.2024 69.89 41.5064 69.3884 41.9928C68.5828 42.7528 68.2028 43.9688 68.2028 45.2152C68.2028 46.5224 68.598 47.7384 69.4492 48.4832C69.9508 48.924 70.6044 49.1976 71.4708 49.1976C72.4892 49.1976 73.5836 48.6048 73.994 47.6624L74.0852 49H74.754ZM74.0092 45.2C74.0092 46.2488 73.7204 47.176 73.0364 47.8448C72.6564 48.2096 72.1548 48.4528 71.486 48.4528C70.8476 48.4528 70.3612 48.2552 69.9812 47.9208C69.282 47.2976 68.978 46.2792 68.978 45.2C68.978 44.2272 69.2364 43.2544 69.8292 42.616C70.2244 42.2056 70.7412 41.9472 71.4556 41.9472C72.1548 41.9472 72.6716 42.1752 73.0516 42.54C73.7508 43.1936 74.0092 44.0752 74.0092 45.2ZM88.0666 49V48.24H81.9714V43.6952H87.337V42.9352H81.9714V38.9832H88.0666V38.2232H81.1658V49H88.0666ZM96.3994 49V43.984C96.3994 42.2816 95.4722 41.2024 93.7242 41.2024C92.6602 41.2024 91.581 41.8256 91.1554 42.7832L91.0642 41.4H90.3954V49H91.1554V45.2C91.1554 43.5584 91.809 41.9472 93.6786 41.9472C95.0618 41.9472 95.6394 42.7072 95.6394 44.0296V49H96.3994ZM105.185 44.8808C105.185 42.9656 103.984 41.2024 101.932 41.2024C100.868 41.2024 99.9867 41.6584 99.3483 42.5248C98.7555 43.3304 98.6035 44.2728 98.6035 45.2304C98.6035 46.3856 98.9531 47.3888 99.5763 48.1184C100.124 48.7416 100.899 49.1976 101.993 49.1976C102.86 49.1976 103.62 48.8632 104.167 48.316C104.592 47.9056 104.912 47.3736 105.018 46.72H104.228C104.136 47.176 103.924 47.5104 103.65 47.7992C103.24 48.2248 102.662 48.468 101.993 48.468C101.172 48.468 100.58 48.164 100.154 47.6624C99.6675 47.0848 99.3787 46.264 99.3635 45.3824H105.17C105.17 45.2 105.185 45.0632 105.185 44.8808ZM104.41 44.6832H99.3787C99.3787 43.1784 100.367 41.9168 101.932 41.9168C103.483 41.9168 104.38 43.2392 104.41 44.6832ZM111.372 42.1296V41.3696C111.129 41.324 110.871 41.324 110.628 41.324C109.564 41.324 108.545 41.8864 108.211 42.9352L108.12 41.4H107.451V49H108.211V45.352C108.211 43.756 108.728 42.0536 110.628 42.0536C110.871 42.0536 111.129 42.0688 111.372 42.1296ZM119.4 50.14C119.4 49.4712 119.156 49.0304 118.792 48.6656C118.305 48.164 117.53 47.9208 116.557 47.9208H114.9C114.612 47.9208 114.156 47.9056 113.882 47.7992C113.578 47.6776 113.35 47.4496 113.35 47.0848C113.35 46.6136 113.715 46.2944 114.11 46.1424C114.551 46.3704 115.068 46.492 115.63 46.492C117.226 46.492 118.503 45.504 118.503 43.8624C118.503 43.1784 118.275 42.6008 117.895 42.16C118.001 41.6432 118.396 41.3392 118.944 41.3392C119.035 41.3392 119.141 41.3696 119.232 41.3696V40.716C119.141 40.716 119.035 40.6856 118.944 40.6856C118.26 40.6856 117.606 41.0656 117.408 41.7192C116.907 41.3848 116.299 41.2024 115.63 41.2024C114.034 41.2024 112.788 42.2208 112.788 43.8624C112.788 44.6528 113.076 45.276 113.548 45.732C112.97 46.0664 112.636 46.5224 112.636 47.176C112.636 47.708 113.061 48.2704 113.593 48.4224C112.879 48.7568 112.453 49.4712 112.453 50.2008C112.453 50.7784 112.651 51.2192 112.985 51.5688C113.624 52.2224 114.657 52.4504 115.812 52.4504C117.028 52.4504 118.168 52.2224 118.822 51.5536C119.156 51.204 119.4 50.7328 119.4 50.14ZM117.743 43.8624C117.743 45.0784 116.816 45.808 115.63 45.808C114.444 45.808 113.532 45.0784 113.532 43.8624C113.532 42.6464 114.444 41.8864 115.63 41.8864C116.816 41.8864 117.743 42.6464 117.743 43.8624ZM118.64 50.14C118.64 50.5352 118.472 50.8696 118.244 51.0976C117.667 51.6752 116.588 51.7664 115.828 51.7664C115.068 51.7664 114.125 51.6752 113.578 51.1584C113.335 50.9304 113.168 50.596 113.168 50.2008C113.168 49.304 113.791 48.7872 114.429 48.6352H116.436C117.332 48.6352 117.925 48.8328 118.275 49.1976C118.503 49.4408 118.64 49.7144 118.64 50.14ZM127.012 41.4H126.192L123.638 48.1488L120.978 41.4H120.157L123.273 49.1216L122.787 50.368C122.528 51.0216 122.133 51.4928 121.404 51.4928C121.008 51.4928 120.476 51.4016 120.476 51.4016V52.04C120.476 52.04 120.826 52.1768 121.434 52.1768C122.468 52.1768 123.106 51.6144 123.486 50.6264L127.012 41.4ZM138.996 49V48.24H132.9V43.6952H138.266V42.9352H132.9V38.9832H138.996V38.2232H132.095V49H138.996ZM146.859 46.5984H146.053C145.871 47.632 145.065 48.4528 143.895 48.4528C143.165 48.4528 142.603 48.2248 142.208 47.8144C141.524 47.1 141.372 46.188 141.372 45.2C141.372 44.212 141.524 43.3152 142.208 42.6008C142.603 42.1904 143.165 41.9472 143.895 41.9472C145.05 41.9472 145.871 42.7224 146.038 43.7712H146.829C146.646 42.236 145.476 41.2024 143.895 41.2024C142.953 41.2024 142.193 41.5672 141.661 42.0992C140.87 42.8896 140.597 43.908 140.597 45.2C140.597 46.492 140.87 47.5104 141.661 48.3008C142.193 48.8328 142.953 49.1976 143.895 49.1976C145.491 49.1976 146.661 48.0728 146.859 46.5984ZM154.971 45.2C154.971 43.908 154.683 42.9048 153.892 42.1144C153.36 41.5824 152.615 41.2024 151.673 41.2024C150.731 41.2024 149.986 41.5824 149.454 42.1144C148.663 42.9048 148.375 43.908 148.375 45.2C148.375 46.492 148.663 47.4952 149.454 48.2856C149.986 48.8176 150.731 49.1976 151.673 49.1976C152.615 49.1976 153.36 48.8176 153.892 48.2856C154.683 47.4952 154.971 46.492 154.971 45.2ZM154.196 45.2C154.196 46.188 154.029 47.0696 153.345 47.784C152.95 48.1944 152.403 48.4528 151.673 48.4528C150.943 48.4528 150.396 48.1944 150.001 47.784C149.317 47.0696 149.15 46.188 149.15 45.2C149.15 44.212 149.317 43.3304 150.001 42.616C150.396 42.2056 150.943 41.9472 151.673 41.9472C152.403 41.9472 152.95 42.2056 153.345 42.616C154.029 43.3304 154.196 44.212 154.196 45.2ZM163.33 49V43.984C163.33 42.2816 162.403 41.2024 160.655 41.2024C159.591 41.2024 158.511 41.8256 158.086 42.7832L157.995 41.4H157.326V49H158.086V45.2C158.086 43.5584 158.739 41.9472 160.609 41.9472C161.992 41.9472 162.57 42.7072 162.57 44.0296V49H163.33ZM172.131 45.2C172.131 43.908 171.842 42.9048 171.052 42.1144C170.52 41.5824 169.775 41.2024 168.832 41.2024C167.89 41.2024 167.145 41.5824 166.613 42.1144C165.823 42.9048 165.534 43.908 165.534 45.2C165.534 46.492 165.823 47.4952 166.613 48.2856C167.145 48.8176 167.89 49.1976 168.832 49.1976C169.775 49.1976 170.52 48.8176 171.052 48.2856C171.842 47.4952 172.131 46.492 172.131 45.2ZM171.356 45.2C171.356 46.188 171.188 47.0696 170.504 47.784C170.109 48.1944 169.562 48.4528 168.832 48.4528C168.103 48.4528 167.556 48.1944 167.16 47.784C166.476 47.0696 166.309 46.188 166.309 45.2C166.309 44.212 166.476 43.3304 167.16 42.616C167.556 42.2056 168.103 41.9472 168.832 41.9472C169.562 41.9472 170.109 42.2056 170.504 42.616C171.188 43.3304 171.356 44.212 171.356 45.2ZM184.928 49V43.984C184.928 42.3576 184.183 41.2024 182.404 41.2024C181.158 41.2024 180.352 41.9016 179.957 42.844C179.653 41.856 178.878 41.2024 177.556 41.2024C176.461 41.2024 175.64 41.8408 175.245 42.7072L175.154 41.4H174.485V49H175.245V45.2C175.245 44.1208 175.473 43.072 176.157 42.4336C176.492 42.1144 176.932 41.9168 177.51 41.9168C178.832 41.9168 179.334 42.7072 179.334 44.0296V49H180.109V44.6984C180.109 43.7864 180.413 42.996 181.006 42.4336C181.356 42.1144 181.781 41.9168 182.359 41.9168C183.681 41.9168 184.168 42.7072 184.168 44.0296V49H184.928ZM188.788 39.2872V38.2232H187.724V39.2872H188.788ZM188.667 49V41.4H187.861V49H188.667ZM197.342 46.5984H196.537C196.354 47.632 195.549 48.4528 194.378 48.4528C193.649 48.4528 193.086 48.2248 192.691 47.8144C192.007 47.1 191.855 46.188 191.855 45.2C191.855 44.212 192.007 43.3152 192.691 42.6008C193.086 42.1904 193.649 41.9472 194.378 41.9472C195.534 41.9472 196.354 42.7224 196.522 43.7712H197.312C197.13 42.236 195.959 41.2024 194.378 41.2024C193.436 41.2024 192.676 41.5672 192.144 42.0992C191.354 42.8896 191.08 43.908 191.08 45.2C191.08 46.492 191.354 47.5104 192.144 48.3008C192.676 48.8328 193.436 49.1976 194.378 49.1976C195.974 49.1976 197.145 48.0728 197.342 46.5984ZM204.938 46.8872C204.938 45.96 204.269 44.9872 202.841 44.7896L201.397 44.592C200.241 44.44 199.922 43.9536 199.922 43.3152C199.922 42.9048 200.135 42.54 200.515 42.2664C200.849 42.0232 201.29 41.9168 201.883 41.9168C202.673 41.9168 203.266 42.1752 203.616 42.5856C203.859 42.8744 203.965 43.2544 203.996 43.4976H204.756C204.741 43.0112 204.528 42.5096 204.178 42.0992C203.661 41.4912 202.795 41.2024 201.883 41.2024C201.093 41.2024 200.348 41.4152 199.801 41.9168C199.405 42.2816 199.147 42.7832 199.147 43.3912C199.147 43.8776 199.299 44.2728 199.573 44.592C199.998 45.0784 200.667 45.276 201.29 45.352L202.765 45.5496C203.677 45.6712 204.163 46.2488 204.163 46.9328C204.163 47.3736 204.026 47.632 203.753 47.9056C203.373 48.2856 202.749 48.468 201.959 48.468C201.229 48.468 200.606 48.2856 200.165 47.86C199.846 47.5408 199.649 47.1456 199.603 46.6896H198.828C198.858 47.3128 199.041 47.7384 199.466 48.2248C200.044 48.8784 200.925 49.1976 201.959 49.1976C202.962 49.1976 203.874 48.8936 204.421 48.2856C204.756 47.9056 204.938 47.4496 204.938 46.8872Z" fill="#1D1D1B"/>
</svg>
