<svg width="31" height="31" viewBox="0 0 31 31" fill="none" xmlns="http://www.w3.org/2000/svg">
<path fill-rule="evenodd" clip-rule="evenodd" d="M0.375 2.90225C0.375 2.23199 0.641263 1.58917 1.11521 1.11522C1.58917 0.641266 2.23198 0.375003 2.90225 0.375003H28.095C28.4272 0.374461 28.7562 0.43944 29.0632 0.56622C29.3702 0.693 29.6492 0.879092 29.8842 1.11384C30.1192 1.34859 30.3056 1.62739 30.4327 1.93427C30.5598 2.24115 30.6252 2.57009 30.625 2.90225V28.095C30.6254 28.4272 30.5602 28.7563 30.4333 29.0633C30.3064 29.3703 30.1201 29.6493 29.8853 29.8843C29.6504 30.1193 29.3715 30.3057 29.0646 30.4328C28.7576 30.5599 28.4286 30.6252 28.0964 30.625H2.90225C2.57025 30.625 2.24151 30.5596 1.9348 30.4325C1.62809 30.3054 1.34942 30.1191 1.11473 29.8843C0.880034 29.6495 0.693906 29.3707 0.566981 29.0639C0.440056 28.7572 0.37482 28.4284 0.375 28.0964V2.90225ZM12.3485 11.9085H16.4446V13.9655C17.0359 12.783 18.5484 11.7188 20.8212 11.7188C25.1786 11.7188 26.2113 14.0741 26.2113 18.3958V26.401H21.8016V19.3803C21.8016 16.919 21.2104 15.5303 19.7089 15.5303C17.6257 15.5303 16.7595 17.0276 16.7595 19.3803V26.401H12.3485V11.9085ZM4.786 26.2126H9.197V11.7188H4.786V26.2113V26.2126ZM9.82813 6.9915C9.83644 7.36918 9.76924 7.74471 9.63046 8.09606C9.49167 8.44741 9.28411 8.7675 9.01994 9.03755C8.75578 9.30759 8.44034 9.52215 8.09213 9.66864C7.74392 9.81512 7.36995 9.89058 6.99219 9.89058C6.61442 9.89058 6.24046 9.81512 5.89225 9.66864C5.54404 9.52215 5.2286 9.30759 4.96443 9.03755C4.70027 8.7675 4.4927 8.44741 4.35392 8.09606C4.21514 7.74471 4.14793 7.36918 4.15625 6.9915C4.17257 6.25018 4.47853 5.54472 5.00859 5.0262C5.53866 4.50768 6.25068 4.21733 6.99219 4.21733C7.73369 4.21733 8.44572 4.50768 8.97578 5.0262C9.50585 5.54472 9.8118 6.25018 9.82813 6.9915Z" fill="black" fill-opacity="0.7"/>
</svg>
