<svg width="31" height="31" viewBox="0 0 31 31" fill="none" xmlns="http://www.w3.org/2000/svg">
<path d="M20.3813 11.7787C19.9496 11.5772 19.5417 11.442 19.155 11.3782C18.7697 11.3119 18.1515 11.2806 17.2956 11.2806H15.0733V20.529H17.3519C18.2404 20.529 18.9311 20.4676 19.4241 20.3463C19.9171 20.225 20.3275 20.0723 20.6566 19.8846C20.988 19.6968 21.2923 19.4648 21.5613 19.1951C22.4385 18.3042 22.8777 17.1805 22.8777 15.8216C22.8777 14.4864 22.4272 13.3965 21.525 12.5531C21.1921 12.2403 20.8092 11.9813 20.3813 11.7785V11.7787ZM15.5 0.484375C7.20641 0.484375 0.484375 7.20762 0.484375 15.5C0.484375 23.7924 7.20641 30.5156 15.5 30.5156C23.7936 30.5156 30.5156 23.7924 30.5156 15.5C30.5156 7.20762 23.7936 0.484375 15.5 0.484375ZM10.5148 22.1307H8.7354V9.69646H10.5148V22.1307ZM9.62393 8.39761C8.94943 8.39761 8.40009 7.85208 8.40009 7.17384C8.40009 6.50068 8.94816 5.95133 9.62393 5.95133C10.3008 5.95133 10.8489 6.4994 10.8489 7.17384C10.8491 7.33469 10.8175 7.49398 10.7559 7.6426C10.6944 7.79122 10.6042 7.92624 10.4904 8.03992C10.3766 8.15361 10.2415 8.24372 10.0928 8.3051C9.94411 8.36647 9.78478 8.39791 9.62393 8.39761ZM24.2391 18.3029C23.9188 19.0625 23.462 19.7307 22.8677 20.3063C22.2633 20.9019 21.5601 21.3473 20.758 21.6502C20.2888 21.8328 19.8596 21.9567 19.4679 22.0205C19.075 22.0819 18.328 22.1119 17.2231 22.1119H13.2902V9.69646H17.4821C19.1751 9.69646 20.5115 9.94797 21.4975 10.456C22.4823 10.9628 23.2643 11.711 23.8463 12.6946C24.4281 13.6794 24.7197 14.7542 24.7197 15.9154C24.721 16.7488 24.5582 17.5446 24.2392 18.3029H24.2391Z" fill="black" fill-opacity="0.7"/>
</svg>
