<svg width="58" height="40" viewBox="0 0 58 40" fill="none" xmlns="http://www.w3.org/2000/svg">
<path d="M14.1277 -5.1143e-05V13.7446" stroke="#6FD0AC" stroke-width="3" stroke-miterlimit="10"/>
<path d="M13.6945 34.8238C13.8869 35.1573 14.3683 35.1573 14.5607 34.8238L25.8226 15.3031C26.0149 14.9698 25.7744 14.5532 25.3895 14.5532L14.1276 14.5532H2.8657C2.48087 14.5532 2.2403 14.9698 2.43261 15.3031L13.6945 34.8238Z" stroke="#6FD0AC" stroke-width="3" stroke-miterlimit="10"/>
<path d="M44.8511 -7.69197e-06V15.3617" stroke="#6FD0AC" stroke-width="3" stroke-miterlimit="10"/>
<path d="M56.1702 26.6809C56.1702 20.4294 51.1025 15.3617 44.8511 15.3617C38.5997 15.3617 33.5319 20.4294 33.5319 26.6809C33.5319 32.9323 38.5997 38 44.8511 38C51.1025 38 56.1702 32.9323 56.1702 26.6809Z" stroke="#6FD0AC" stroke-width="3" stroke-miterlimit="10"/>
<path d="M36.766 26.6809C37.8442 23.4469 43.7727 23.4469 44.8511 26.6809" stroke="#6FD0AC" stroke-width="3" stroke-miterlimit="10"/>
<path d="M44.8511 26.6808C45.8215 28.8369 51.1572 28.8369 52.1276 26.6808" stroke="#6FD0AC" stroke-width="3" stroke-miterlimit="10"/>
</svg>
