<svg width="23" height="26" viewBox="0 0 23 26" fill="none" xmlns="http://www.w3.org/2000/svg">
<path d="M22.6449 6.44542C22.464 5.735 21.7536 5.32167 21.0432 5.47667C17.969 6.16125 14.5461 6.45833 11.3428 6.45833C8.13946 6.45833 4.71654 6.16125 1.64238 5.47667C0.931961 5.32167 0.221545 5.735 0.0407115 6.44542C-0.140122 7.16875 0.299045 7.905 1.00946 8.07292C3.08905 8.53792 5.33655 8.86083 7.4678 9.04167V24.5417C7.4678 25.2521 8.04905 25.8333 8.75946 25.8333C9.46988 25.8333 10.0511 25.2521 10.0511 24.5417V18.0833H12.6345V24.5417C12.6345 25.2521 13.2157 25.8333 13.9261 25.8333C14.6365 25.8333 15.2178 25.2521 15.2178 24.5417V9.04167C17.349 8.86083 19.5965 8.53792 21.6632 8.07292C22.3865 7.905 22.8257 7.16875 22.6449 6.44542V6.44542ZM11.3428 5.16667C12.7636 5.16667 13.9261 4.00417 13.9261 2.58333C13.9261 1.1625 12.7636 0 11.3428 0C9.92196 0 8.75946 1.1625 8.75946 2.58333C8.75946 4.00417 9.92196 5.16667 11.3428 5.16667Z" fill="black" fill-opacity="0.7"/>
</svg>
