<svg width="191" height="64" viewBox="0 0 191 64" fill="none" xmlns="http://www.w3.org/2000/svg">
<rect x="4.5" y="5.5" width="186" height="55" rx="27.5" fill="#F4F4F4" stroke="#6FD0AC"/>
<ellipse cx="31.5" cy="34" rx="27.5" ry="28" fill="white"/>
<path d="M31.975 5C16.5187 4.99364 4 17.7296 4 33.4491C4 45.8797 11.8312 56.4463 22.7375 60.3269C24.2062 60.7022 23.9812 59.6398 23.9812 58.9146V53.9844C15.5 54.9959 15.1562 49.2831 14.5875 48.3289C13.4375 46.3314 10.7187 45.8224 11.5312 44.8682C13.4625 43.8567 15.4312 45.1227 17.7125 48.5516C19.3625 51.039 22.5812 50.6191 24.2125 50.2056C24.5687 48.7106 25.3312 47.3747 26.3812 46.3377C17.5937 44.7346 13.9312 39.2763 13.9312 32.7875C13.9312 29.6385 14.95 26.744 16.95 24.4093C15.675 20.5605 17.0687 17.2652 17.2562 16.7753C20.8875 16.4445 24.6625 19.4218 24.9562 19.6571C27.0187 19.091 29.375 18.792 32.0125 18.792C34.6625 18.792 37.025 19.1037 39.1062 19.6762C39.8125 19.1291 43.3125 16.5718 46.6875 16.8835C46.8687 17.3733 48.2312 20.5923 47.0312 24.3902C49.0562 26.7313 50.0875 29.6512 50.0875 32.8066C50.0875 39.3081 46.4 44.7728 37.5875 46.3504C38.3423 47.106 38.9416 48.0071 39.3505 49.0011C39.7594 49.995 39.9695 51.0619 39.9687 52.1395V59.2963C40.0187 59.8689 39.9687 60.435 40.9062 60.435C51.975 56.6372 59.9437 45.9942 59.9437 33.4555C59.9437 17.7296 47.4187 5 31.975 5Z" fill="#6FD0AC"/>
<path d="M90.848 33.48C91.2907 33.48 91.68 33.4213 92.016 33.304C92.3573 33.1867 92.6427 33.024 92.872 32.816C93.1067 32.6027 93.2827 32.3493 93.4 32.056C93.5173 31.7627 93.576 31.44 93.576 31.088C93.576 30.3573 93.3493 29.7867 92.896 29.376C92.448 28.9653 91.7653 28.76 90.848 28.76H89.008V33.48H90.848ZM90.848 27.536C91.5733 27.536 92.2027 27.6213 92.736 27.792C93.2747 27.9573 93.72 28.1947 94.072 28.504C94.424 28.8133 94.6853 29.1867 94.856 29.624C95.032 30.0613 95.12 30.5493 95.12 31.088C95.12 31.6213 95.0267 32.1093 94.84 32.552C94.6533 32.9947 94.3787 33.376 94.016 33.696C93.6587 34.016 93.2133 34.2667 92.68 34.448C92.152 34.624 91.5413 34.712 90.848 34.712H89.008V39H87.464V27.536H90.848ZM102.937 29.328C102.889 29.408 102.836 29.4693 102.777 29.512C102.724 29.5493 102.657 29.568 102.577 29.568C102.487 29.568 102.38 29.5227 102.257 29.432C102.135 29.3413 101.98 29.2427 101.793 29.136C101.612 29.024 101.391 28.9227 101.129 28.832C100.873 28.7413 100.561 28.696 100.193 28.696C99.8467 28.696 99.54 28.744 99.2734 28.84C99.012 28.9307 98.7907 29.056 98.6094 29.216C98.4334 29.376 98.3 29.5653 98.2094 29.784C98.1187 29.9973 98.0734 30.2293 98.0734 30.48C98.0734 30.8 98.1507 31.0667 98.3054 31.28C98.4654 31.488 98.6734 31.6667 98.9294 31.816C99.1907 31.9653 99.484 32.096 99.8094 32.208C100.14 32.3147 100.476 32.4267 100.817 32.544C101.164 32.6613 101.5 32.7947 101.825 32.944C102.156 33.088 102.449 33.272 102.705 33.496C102.967 33.72 103.175 33.9947 103.329 34.32C103.489 34.6453 103.569 35.0453 103.569 35.52C103.569 36.0213 103.484 36.4933 103.313 36.936C103.143 37.3733 102.892 37.7547 102.561 38.08C102.236 38.4053 101.833 38.6613 101.353 38.848C100.879 39.0347 100.337 39.128 99.7294 39.128C98.9827 39.128 98.3054 38.9947 97.6974 38.728C97.0894 38.456 96.5694 38.0907 96.1374 37.632L96.5854 36.896C96.628 36.8373 96.6787 36.7893 96.7374 36.752C96.8014 36.7093 96.8707 36.688 96.9454 36.688C97.0147 36.688 97.092 36.7173 97.1774 36.776C97.268 36.8293 97.3694 36.8987 97.4814 36.984C97.5934 37.0693 97.7214 37.1627 97.8654 37.264C98.0094 37.3653 98.172 37.4587 98.3534 37.544C98.54 37.6293 98.7507 37.7013 98.9854 37.76C99.22 37.8133 99.484 37.84 99.7774 37.84C100.145 37.84 100.473 37.7893 100.761 37.688C101.049 37.5867 101.292 37.4453 101.489 37.264C101.692 37.0773 101.847 36.856 101.953 36.6C102.06 36.344 102.113 36.0587 102.113 35.744C102.113 35.3973 102.033 35.1147 101.873 34.896C101.719 34.672 101.513 34.4853 101.257 34.336C101.001 34.1867 100.708 34.0613 100.377 33.96C100.047 33.8533 99.7107 33.7467 99.3694 33.64C99.028 33.528 98.692 33.4 98.3614 33.256C98.0307 33.112 97.7374 32.9253 97.4814 32.696C97.2254 32.4667 97.0174 32.1813 96.8574 31.84C96.7027 31.4933 96.6254 31.0667 96.6254 30.56C96.6254 30.1547 96.7027 29.7627 96.8574 29.384C97.0174 29.0053 97.2467 28.6693 97.5454 28.376C97.8494 28.0827 98.22 27.848 98.6574 27.672C99.1 27.496 99.6067 27.408 100.177 27.408C100.817 27.408 101.399 27.5093 101.921 27.712C102.449 27.9147 102.913 28.208 103.313 28.592L102.937 29.328ZM115.697 33.272C115.697 34.1307 115.561 34.912 115.289 35.616C115.017 36.32 114.633 36.9227 114.137 37.424C113.641 37.9253 113.044 38.3147 112.345 38.592C111.652 38.864 110.884 39 110.041 39H105.761V27.536H110.041C110.884 27.536 111.652 27.6747 112.345 27.952C113.044 28.224 113.641 28.6133 114.137 29.12C114.633 29.6213 115.017 30.224 115.289 30.928C115.561 31.632 115.697 32.4133 115.697 33.272ZM114.105 33.272C114.105 32.568 114.009 31.9387 113.817 31.384C113.625 30.8293 113.353 30.36 113.001 29.976C112.649 29.592 112.222 29.2987 111.721 29.096C111.22 28.8933 110.66 28.792 110.041 28.792H107.313V37.744H110.041C110.66 37.744 111.22 37.6427 111.721 37.44C112.222 37.2373 112.649 36.9467 113.001 36.568C113.353 36.184 113.625 35.7147 113.817 35.16C114.009 34.6053 114.105 33.976 114.105 33.272ZM129.861 27.536V39H128.501V30.576C128.501 30.464 128.503 30.344 128.509 30.216C128.519 30.088 128.53 29.9573 128.541 29.824L124.605 36.992C124.482 37.232 124.295 37.352 124.045 37.352H123.821C123.57 37.352 123.383 37.232 123.261 36.992L119.245 29.792C119.277 30.0747 119.293 30.336 119.293 30.576V39H117.933V27.536H119.077C119.215 27.536 119.322 27.5493 119.397 27.576C119.471 27.6027 119.543 27.6773 119.613 27.8L123.573 34.856C123.637 34.984 123.698 35.1173 123.757 35.256C123.821 35.3947 123.879 35.536 123.933 35.68C123.986 35.536 124.042 35.3947 124.101 35.256C124.159 35.112 124.223 34.976 124.293 34.848L128.181 27.8C128.245 27.6773 128.314 27.6027 128.389 27.576C128.469 27.5493 128.578 27.536 128.717 27.536H129.861Z" fill="#38A87E"/>
</svg>
