<svg width="22" height="30" viewBox="0 0 22 30" fill="none" xmlns="http://www.w3.org/2000/svg">
<path d="M3.5 26.25C1.85 26.25 0.5 27.6 0.5 29.25H21.5C21.5 27.6 20.15 26.25 18.5 26.25H12.5V23.25H17C18.65 23.25 20 21.9 20 20.25H8C5.51 20.25 3.5 18.24 3.5 15.75C3.5 14.115 4.385 12.69 5.705 11.895C6.32 12.78 7.295 13.395 8.45 13.485C9.5 13.575 10.49 13.2 11.225 12.555L12.11 14.97L13.52 14.46L14.03 15.87L16.85 14.85L16.34 13.44L17.75 12.93L13.64 1.65L12.23 2.16L11.72 0.75L8.9 1.77L9.41 3.18L8 3.705L8.84 6.03C7.085 5.97 5.555 7.155 5.12 8.82C2.405 9.96 0.5 12.63 0.5 15.75C0.5 19.89 3.86 23.25 8 23.25V26.25H3.5ZM12.29 4.53L14.855 11.58L13.445 12.09L10.88 5.04L12.29 4.53ZM8.75 8.25C9.575 8.25 10.25 8.925 10.25 9.75C10.25 10.575 9.575 11.25 8.75 11.25C7.925 11.25 7.25 10.575 7.25 9.75C7.25 8.925 7.925 8.25 8.75 8.25Z" fill="black" fill-opacity="0.7"/>
</svg>
