<svg width="191" height="64" viewBox="0 0 191 64" fill="none" xmlns="http://www.w3.org/2000/svg">
<rect x="4" y="5" width="187" height="56" rx="28" fill="#6FD0AC"/>
<ellipse cx="31.5" cy="34" rx="27.5" ry="28" fill="white"/>
<path d="M31.975 5C16.5187 4.99364 4 17.7296 4 33.4491C4 45.8797 11.8312 56.4463 22.7375 60.3269C24.2062 60.7022 23.9812 59.6398 23.9812 58.9146V53.9844C15.5 54.9959 15.1562 49.2831 14.5875 48.3289C13.4375 46.3314 10.7187 45.8224 11.5312 44.8682C13.4625 43.8567 15.4312 45.1227 17.7125 48.5516C19.3625 51.039 22.5812 50.6191 24.2125 50.2056C24.5687 48.7106 25.3312 47.3747 26.3812 46.3377C17.5937 44.7346 13.9312 39.2763 13.9312 32.7875C13.9312 29.6385 14.95 26.744 16.95 24.4093C15.675 20.5605 17.0687 17.2652 17.2562 16.7753C20.8875 16.4445 24.6625 19.4218 24.9562 19.6571C27.0187 19.091 29.375 18.792 32.0125 18.792C34.6625 18.792 37.025 19.1037 39.1062 19.6762C39.8125 19.1291 43.3125 16.5718 46.6875 16.8835C46.8687 17.3733 48.2312 20.5923 47.0312 24.3902C49.0562 26.7313 50.0875 29.6512 50.0875 32.8066C50.0875 39.3081 46.4 44.7728 37.5875 46.3504C38.3423 47.106 38.9416 48.0071 39.3505 49.0011C39.7594 49.995 39.9695 51.0619 39.9687 52.1395V59.2963C40.0187 59.8689 39.9687 60.435 40.9062 60.435C51.975 56.6372 59.9437 45.9942 59.9437 33.4555C59.9437 17.7296 47.4187 5 31.975 5Z" fill="#6FD0AC"/>
<path d="M84.328 30.328C84.28 30.408 84.2267 30.4693 84.168 30.512C84.1147 30.5493 84.048 30.568 83.968 30.568C83.8773 30.568 83.7707 30.5227 83.648 30.432C83.5253 30.3413 83.3707 30.2427 83.184 30.136C83.0027 30.024 82.7813 29.9227 82.52 29.832C82.264 29.7413 81.952 29.696 81.584 29.696C81.2373 29.696 80.9307 29.744 80.664 29.84C80.4027 29.9307 80.1813 30.056 80 30.216C79.824 30.376 79.6907 30.5653 79.6 30.784C79.5093 30.9973 79.464 31.2293 79.464 31.48C79.464 31.8 79.5413 32.0667 79.696 32.28C79.856 32.488 80.064 32.6667 80.32 32.816C80.5813 32.9653 80.8747 33.096 81.2 33.208C81.5307 33.3147 81.8667 33.4267 82.208 33.544C82.5547 33.6613 82.8907 33.7947 83.216 33.944C83.5467 34.088 83.84 34.272 84.096 34.496C84.3573 34.72 84.5653 34.9947 84.72 35.32C84.88 35.6453 84.96 36.0453 84.96 36.52C84.96 37.0213 84.8747 37.4933 84.704 37.936C84.5333 38.3733 84.2827 38.7547 83.952 39.08C83.6267 39.4053 83.224 39.6613 82.744 39.848C82.2693 40.0347 81.728 40.128 81.12 40.128C80.3733 40.128 79.696 39.9947 79.088 39.728C78.48 39.456 77.96 39.0907 77.528 38.632L77.976 37.896C78.0187 37.8373 78.0693 37.7893 78.128 37.752C78.192 37.7093 78.2613 37.688 78.336 37.688C78.4053 37.688 78.4827 37.7173 78.568 37.776C78.6587 37.8293 78.76 37.8987 78.872 37.984C78.984 38.0693 79.112 38.1627 79.256 38.264C79.4 38.3653 79.5627 38.4587 79.744 38.544C79.9307 38.6293 80.1413 38.7013 80.376 38.76C80.6107 38.8133 80.8747 38.84 81.168 38.84C81.536 38.84 81.864 38.7893 82.152 38.688C82.44 38.5867 82.6827 38.4453 82.88 38.264C83.0827 38.0773 83.2373 37.856 83.344 37.6C83.4507 37.344 83.504 37.0587 83.504 36.744C83.504 36.3973 83.424 36.1147 83.264 35.896C83.1093 35.672 82.904 35.4853 82.648 35.336C82.392 35.1867 82.0987 35.0613 81.768 34.96C81.4373 34.8533 81.1013 34.7467 80.76 34.64C80.4187 34.528 80.0827 34.4 79.752 34.256C79.4213 34.112 79.128 33.9253 78.872 33.696C78.616 33.4667 78.408 33.1813 78.248 32.84C78.0933 32.4933 78.016 32.0667 78.016 31.56C78.016 31.1547 78.0933 30.7627 78.248 30.384C78.408 30.0053 78.6373 29.6693 78.936 29.376C79.24 29.0827 79.6107 28.848 80.048 28.672C80.4907 28.496 80.9973 28.408 81.568 28.408C82.208 28.408 82.7893 28.5093 83.312 28.712C83.84 28.9147 84.304 29.208 84.704 29.592L84.328 30.328ZM88.7035 40H87.1515V28.536H88.7035V40ZM103.564 28.536V40H102.204V31.576C102.204 31.464 102.207 31.344 102.212 31.216C102.223 31.088 102.233 30.9573 102.244 30.824L98.3079 37.992C98.1852 38.232 97.9985 38.352 97.7479 38.352H97.5239C97.2732 38.352 97.0865 38.232 96.9639 37.992L92.9479 30.792C92.9799 31.0747 92.9959 31.336 92.9959 31.576V40H91.6359V28.536H92.7799C92.9185 28.536 93.0252 28.5493 93.0999 28.576C93.1745 28.6027 93.2465 28.6773 93.3159 28.8L97.2759 35.856C97.3399 35.984 97.4012 36.1173 97.4599 36.256C97.5239 36.3947 97.5825 36.536 97.6359 36.68C97.6892 36.536 97.7452 36.3947 97.8039 36.256C97.8625 36.112 97.9265 35.976 97.9959 35.848L101.884 28.8C101.948 28.6773 102.017 28.6027 102.092 28.576C102.172 28.5493 102.281 28.536 102.42 28.536H103.564ZM117.087 34.272C117.087 35.1307 116.951 35.92 116.679 36.64C116.407 37.3547 116.023 37.9707 115.527 38.488C115.031 39.0053 114.434 39.408 113.735 39.696C113.042 39.9787 112.274 40.12 111.431 40.12C110.589 40.12 109.821 39.9787 109.127 39.696C108.434 39.408 107.839 39.0053 107.343 38.488C106.847 37.9707 106.463 37.3547 106.191 36.64C105.919 35.92 105.783 35.1307 105.783 34.272C105.783 33.4133 105.919 32.6267 106.191 31.912C106.463 31.192 106.847 30.5733 107.343 30.056C107.839 29.5333 108.434 29.128 109.127 28.84C109.821 28.552 110.589 28.408 111.431 28.408C112.274 28.408 113.042 28.552 113.735 28.84C114.434 29.128 115.031 29.5333 115.527 30.056C116.023 30.5733 116.407 31.192 116.679 31.912C116.951 32.6267 117.087 33.4133 117.087 34.272ZM115.495 34.272C115.495 33.568 115.399 32.936 115.207 32.376C115.015 31.816 114.743 31.344 114.391 30.96C114.039 30.5707 113.613 30.272 113.111 30.064C112.61 29.856 112.05 29.752 111.431 29.752C110.818 29.752 110.261 29.856 109.759 30.064C109.258 30.272 108.829 30.5707 108.471 30.96C108.119 31.344 107.847 31.816 107.655 32.376C107.463 32.936 107.367 33.568 107.367 34.272C107.367 34.976 107.463 35.608 107.655 36.168C107.847 36.7227 108.119 37.1947 108.471 37.584C108.829 37.968 109.258 38.264 109.759 38.472C110.261 38.6747 110.818 38.776 111.431 38.776C112.05 38.776 112.61 38.6747 113.111 38.472C113.613 38.264 114.039 37.968 114.391 37.584C114.743 37.1947 115.015 36.7227 115.207 36.168C115.399 35.608 115.495 34.976 115.495 34.272ZM128.596 28.536V40H127.82C127.697 40 127.593 39.9787 127.508 39.936C127.428 39.8933 127.348 39.8213 127.268 39.72L120.636 31.08C120.646 31.2133 120.654 31.344 120.66 31.472C120.665 31.6 120.668 31.72 120.668 31.832V40H119.308V28.536H120.108C120.177 28.536 120.236 28.5413 120.284 28.552C120.332 28.5573 120.374 28.5707 120.412 28.592C120.449 28.608 120.486 28.6347 120.524 28.672C120.561 28.704 120.601 28.7467 120.644 28.8L127.276 37.432C127.265 37.2933 127.254 37.16 127.244 37.032C127.238 36.8987 127.236 36.7733 127.236 36.656V28.536H128.596ZM137.615 35.744L135.815 31.08C135.761 30.9413 135.705 30.7813 135.647 30.6C135.588 30.4133 135.532 30.216 135.479 30.008C135.367 30.44 135.252 30.8 135.135 31.088L133.335 35.744H137.615ZM140.847 40H139.647C139.508 40 139.396 39.9653 139.311 39.896C139.225 39.8267 139.161 39.7387 139.119 39.632L138.047 36.864H132.903L131.831 39.632C131.799 39.728 131.737 39.8133 131.647 39.888C131.556 39.9627 131.444 40 131.311 40H130.111L134.695 28.536H136.263L140.847 40Z" fill="white"/>
</svg>
