<svg width="63" height="78" viewBox="0 0 63 78" fill="none" xmlns="http://www.w3.org/2000/svg">
<g clip-path="url(#clip0_218_99)">
<path d="M21.9887 18.4243V20.7811H26.1387C28.4206 20.7811 30.2887 20.771 30.2887 20.7583C30.2887 20.7482 30.243 20.5835 30.1872 20.3934C29.9613 19.6255 29.7227 18.513 29.6643 17.9275C29.6542 17.8388 29.6389 17.7653 29.6313 17.7653C29.6237 17.7653 29.3369 17.702 28.9942 17.6259C28.6516 17.5474 28.1389 17.4333 27.852 17.37C27.5652 17.3041 27.2352 17.2306 27.1159 17.2027C26.9966 17.1774 26.8494 17.1444 26.786 17.1318C26.7225 17.1191 26.4941 17.0684 26.2783 17.0177C26.0626 16.9696 25.6514 16.8758 25.3646 16.8124C25.0777 16.7465 24.7478 16.6731 24.6285 16.6452C24.5092 16.6198 24.362 16.5869 24.2985 16.5742C24.235 16.5615 24.0066 16.5083 23.7909 16.4602C23.5751 16.412 23.2426 16.336 23.0548 16.2954C22.8669 16.2549 22.5598 16.1865 22.3745 16.1434C22.1892 16.1028 22.0268 16.0674 22.0141 16.0674C21.9989 16.0674 21.9887 16.9214 21.9887 18.4243Z" fill="#4D616B"/>
<path d="M0.0583496 10.3906V20.7812H10.4651H20.8719V18.29V15.8013L20.5495 15.7329C20.3693 15.6949 19.8947 15.5885 19.4885 15.4972C17.3006 15.0056 16.3132 14.7851 15.9223 14.6989C15.7345 14.6584 15.402 14.5823 15.1862 14.5342C14.9705 14.4835 14.5644 14.3923 14.2852 14.3315C14.006 14.2681 13.6531 14.1895 13.4983 14.1566C13.346 14.1211 13.1328 14.073 13.0287 14.0501C12.9247 14.0273 12.7749 13.9944 12.6988 13.9741L12.5592 13.9386L12.4754 14.0349C12.4322 14.0856 12.3764 14.1566 12.3536 14.1921C12.2876 14.2934 11.9246 14.5773 11.7266 14.6787C11.6251 14.7319 11.4525 14.8028 11.3383 14.8383C11.153 14.8966 11.0971 14.9017 10.6682 14.9017C10.2392 14.9017 10.1834 14.8966 9.98792 14.8358C9.41936 14.6634 8.92694 14.2478 8.65281 13.7055C8.5919 13.5864 8.5259 13.4216 8.50813 13.3456C8.49037 13.267 8.46752 13.2037 8.45483 13.2037C8.44468 13.2037 8.43452 12.9756 8.43452 12.6968C8.43452 12.375 8.44468 12.19 8.45991 12.19C8.47514 12.19 8.48529 12.1672 8.48529 12.1418C8.48529 12.0556 8.61474 11.7262 8.70358 11.5868C8.7518 11.5133 8.78988 11.4474 8.78988 11.4398C8.78988 11.3967 9.11731 11.0445 9.24168 10.9507C9.60465 10.6846 9.73156 10.6162 9.99046 10.5503C10.0844 10.5249 10.1605 10.4971 10.1605 10.4869C10.1605 10.4768 10.389 10.4666 10.6682 10.4666C10.9474 10.4666 11.1758 10.4768 11.1758 10.4869C11.1758 10.4971 11.252 10.5275 11.3459 10.5528C11.5946 10.6187 11.8205 10.7403 12.12 10.976C12.2368 11.0673 12.5211 11.3815 12.5211 11.4195C12.5211 11.4297 12.549 11.4728 12.582 11.5158C12.747 11.7338 12.8536 12.0506 12.8739 12.3927L12.8891 12.6588L13.0287 12.6892C13.1049 12.707 13.2496 12.7374 13.346 12.7577C13.445 12.7805 13.7014 12.8362 13.9171 12.8869C14.1329 12.9351 14.4654 13.0111 14.6532 13.0516C14.841 13.0922 15.2471 13.1834 15.5543 13.2518C17.0036 13.5788 17.5366 13.6979 18.2194 13.8499C18.6255 13.9412 19.288 14.0882 19.6916 14.1794C20.0977 14.2706 20.5089 14.3619 20.6054 14.3847C20.7044 14.4049 20.8033 14.4278 20.8287 14.4354C20.8693 14.448 20.8719 14.0932 20.8719 7.22529V0H10.4651H0.0583496V10.3906Z" fill="#4D616B"/>
<path d="M21.9887 7.34694V14.6913L22.0597 14.7065C22.0978 14.7167 22.306 14.7623 22.5217 14.813C22.7375 14.8637 23.07 14.9372 23.2578 14.9777C23.4456 15.0208 23.8289 15.1044 24.1081 15.1678C24.3873 15.2311 24.7985 15.3224 25.0219 15.3731C25.2452 15.4238 25.4737 15.4744 25.5295 15.4871C25.5854 15.4972 25.7275 15.5302 25.8468 15.5555C26.1006 15.6138 27.2251 15.8673 28.017 16.0447C28.3241 16.1131 28.7759 16.2145 29.0196 16.2702C29.2633 16.326 29.479 16.3716 29.4968 16.3716C29.5196 16.3716 29.5272 16.2753 29.5272 15.9686C29.5272 13.7359 30.0044 11.635 30.9969 9.48082C31.1314 9.18684 31.1695 9.08294 31.1466 9.06773C31.1289 9.05759 30.2709 8.5558 29.243 7.95771L27.3697 6.86542L27.2961 6.90597C27.2555 6.92625 27.2124 6.95666 27.2047 6.96933C27.1794 7.00988 26.9306 7.11885 26.7098 7.18728C26.5397 7.2405 26.4712 7.2481 26.0524 7.2481C25.6184 7.2481 25.5676 7.24303 25.3671 7.18221C25.0625 7.08844 24.9051 7.00227 24.5828 6.74884C24.2934 6.51822 23.9939 6.06965 23.9025 5.71992C23.8771 5.62615 23.8467 5.55012 23.8365 5.55012C23.8086 5.55012 23.8111 4.56934 23.8391 4.51612C23.8543 4.49331 23.8898 4.39194 23.9203 4.29564C24.1183 3.66713 24.7503 3.05636 25.3645 2.89924C25.4635 2.87389 25.5422 2.84348 25.5422 2.83335C25.5422 2.82321 25.7706 2.81307 26.0499 2.81307C26.3291 2.81307 26.5575 2.82321 26.5575 2.83335C26.5575 2.84348 26.6336 2.87389 26.725 2.89924C27.1058 2.99808 27.5093 3.27178 27.7962 3.61898C27.984 3.84707 28.1007 4.06248 28.1921 4.35393C28.253 4.54907 28.2581 4.59722 28.2581 5.03312C28.2581 5.39046 28.248 5.53745 28.2175 5.64389C28.1947 5.71992 28.187 5.79342 28.1972 5.80356C28.2277 5.83144 31.7939 7.90702 31.8116 7.90702C31.8193 7.90702 31.8751 7.81832 31.9386 7.70934C32.0985 7.43311 32.5757 6.7235 32.8422 6.37123C33.6544 5.28909 34.6189 4.28297 35.6571 3.43398C37.5811 1.85764 39.8147 0.742551 42.358 0.0861663L42.688 0.0025343L32.3396 0H21.9887V7.34694Z" fill="#4D616B"/>
<path d="M0.0583496 32.363V42.7537H9.92701H19.7931L20.3312 42.3026L20.8693 41.854L20.8719 35.4701C20.8719 30.3761 20.8643 29.0912 20.8414 29.0988C20.8236 29.1064 20.6612 29.1521 20.4784 29.2027C19.5215 29.4714 18.0468 29.8845 17.9021 29.9276C17.8108 29.9554 17.5443 30.0289 17.3057 30.0948C17.0696 30.1607 16.7193 30.257 16.5315 30.3128C16.3437 30.366 15.8411 30.5079 15.4147 30.627C14.9882 30.7436 14.44 30.8982 14.1963 30.9692C13.9526 31.0376 13.4907 31.1668 13.1683 31.2581C11.3814 31.7573 10.5666 31.9879 10.0082 32.1451L9.6148 32.2566L9.60211 32.5683C9.5945 32.7406 9.57419 32.9054 9.55896 32.9332C9.54373 32.9611 9.47774 33.0954 9.41175 33.2323C9.34575 33.3691 9.24168 33.5389 9.18077 33.6099C9.11985 33.6834 9.06908 33.7493 9.06908 33.7569C9.06908 33.767 8.97517 33.8507 8.86095 33.947C8.60966 34.1548 8.36599 34.2891 8.07663 34.3753C7.87865 34.4361 7.82281 34.4411 7.39639 34.4411C6.99535 34.4411 6.90397 34.4335 6.74914 34.3879C6.50039 34.3144 6.13488 34.1269 6.01305 34.0078C5.95467 33.9546 5.90137 33.9089 5.89121 33.9089C5.85822 33.9089 5.52063 33.5009 5.46479 33.3945C5.43687 33.3362 5.38357 33.2424 5.35057 33.1892C5.31757 33.1334 5.27188 33.0118 5.2465 32.9155C5.22112 32.8217 5.1932 32.7432 5.18051 32.7432C5.17035 32.7432 5.1602 32.5151 5.1602 32.2363C5.1602 31.9575 5.17035 31.7294 5.18051 31.7294C5.19066 31.7294 5.22112 31.6509 5.24396 31.5546C5.26935 31.4583 5.33026 31.3138 5.37849 31.2302C5.42925 31.1491 5.49017 31.0426 5.51555 30.9945C5.58155 30.8652 5.9902 30.4598 6.13742 30.3736C6.20849 30.333 6.27703 30.2874 6.28972 30.2672C6.32018 30.2266 6.57146 30.1252 6.75421 30.0796C6.82528 30.0619 6.8862 30.0391 6.8862 30.0264C6.8862 30.0163 7.11464 30.0061 7.39385 30.0061C7.67305 30.0061 7.9015 30.0163 7.9015 30.0264C7.9015 30.0365 7.98018 30.0669 8.07917 30.0923C8.27462 30.1404 8.42437 30.2139 8.68327 30.3888C8.84064 30.4952 9.14523 30.7841 9.23661 30.9134C9.27722 30.9717 9.24422 30.9793 10.1859 30.7132C10.4854 30.627 10.9728 30.4902 11.2647 30.4091C11.5591 30.328 11.8332 30.2494 11.8738 30.2367C11.917 30.2241 12.1607 30.1531 12.4196 30.0821C12.6785 30.0112 13.0668 29.9022 13.2826 29.8414C13.4983 29.7806 14.0085 29.6386 14.4121 29.5246C15.1075 29.3295 15.7523 29.1495 15.9477 29.0938C16.0949 29.0507 17.1559 28.7516 17.5214 28.6503C17.7092 28.597 17.9377 28.5337 18.0291 28.5083C18.1204 28.4855 18.4809 28.3842 18.8286 28.2853C19.7119 28.0344 20.6079 27.7835 20.7526 27.7455L20.8719 27.7151V24.8437V21.9724H10.4651H0.0583496V32.363Z" fill="#4D616B"/>
<path d="M21.9887 24.6866C21.9887 27.1956 21.9912 27.4009 22.0293 27.3857C22.0521 27.3755 22.1537 27.3476 22.2527 27.3198C22.3516 27.2944 22.5928 27.226 22.7882 27.1702C22.9837 27.117 23.3162 27.0233 23.5243 26.965C24.032 26.8256 25.692 26.3567 26.1387 26.23C26.3341 26.1768 27.1286 25.9538 27.9028 25.7358C28.6769 25.5179 29.4714 25.2949 29.6668 25.2391C29.8623 25.1859 30.4511 25.0186 30.974 24.8716C31.4969 24.7246 31.9436 24.6005 31.9665 24.5929C31.9995 24.5827 31.9665 24.5092 31.7913 24.195C31.5197 23.7109 31.0781 22.8062 30.8826 22.3348L30.7329 21.9749L26.3621 21.9724H21.9887V24.6866Z" fill="#4D616B"/>
<path d="M31.8116 26.0172C30.5121 26.3872 28.55 26.9396 27.1413 27.3325C26.4712 27.52 24.4178 28.0978 24.2604 28.1409C24.0573 28.2017 23.2959 28.4146 22.6182 28.6021L21.9887 28.777V34.8441C21.9887 40.5793 21.9912 40.9087 22.0318 40.8758C22.2349 40.7136 35.7967 29.3675 35.8068 29.3523C35.8144 29.3396 35.6596 29.1698 35.4641 28.9772C34.5808 28.1054 33.6747 27.0512 33.0427 26.1565C32.931 25.9994 32.8168 25.8448 32.7889 25.8119L32.7381 25.7561L31.8116 26.0172Z" fill="#4D616B"/>
<path d="M29.4079 36.4381C23.6512 41.2507 21.9912 42.6522 21.9912 42.6953L21.9887 42.7536H28.3698H34.7484L37.3704 37.6089C39.8553 32.7304 39.9898 32.4592 39.9441 32.4263C39.9162 32.406 39.5583 32.1652 39.1471 31.889C38.0963 31.1895 37.5912 30.8271 37.0607 30.3938C36.9516 30.3051 36.8551 30.2341 36.845 30.2366C36.8348 30.2366 33.4869 33.0269 29.4079 36.4381Z" fill="#4D616B"/>
<path d="M39.6421 36.0681C38.8476 37.6317 37.9796 39.3348 37.7181 39.8518C37.4567 40.3662 37.0176 41.2254 36.746 41.755C36.4769 42.2873 36.2536 42.7308 36.2536 42.7384C36.2536 42.746 37.7283 42.7536 39.5279 42.7536H42.8022V38.5517V34.3498L41.9748 33.7948C41.5179 33.4881 41.1321 33.2347 41.1168 33.2322C41.1016 33.2271 40.4391 34.5044 39.6421 36.0681Z" fill="#4D616B"/>
<path d="M43.8937 38.9116V42.7536H45.4547H47.0157L47.0258 42.6953C47.036 42.6395 47.1198 38.022 47.1172 37.5304V37.2643L46.8076 37.0362C46.2999 36.6636 44.4089 35.3838 43.9901 35.1279L43.8937 35.0696V38.9116Z" fill="#4D616B"/>
<path d="M48.4371 38.539C48.4371 38.6074 48.4193 39.4818 48.399 40.4854C48.3787 41.4889 48.361 42.4089 48.361 42.5305V42.7536H49.8966C50.8332 42.7536 51.4322 42.7434 51.4322 42.7308C51.4322 42.6801 51.1606 42.0668 50.9982 41.75C50.587 40.9466 50.0184 40.1128 49.394 39.3956C49.125 39.0864 48.4853 38.4199 48.46 38.4199C48.4473 38.4199 48.4371 38.4731 48.4371 38.539Z" fill="#4D616B"/>
<path d="M0.0584106 53.8794V63.8138H10.4652H20.8719V53.8794V43.9424L20.646 43.95L20.4201 43.9576L17.3336 46.54C15.6356 47.9592 14.2395 49.1301 14.2319 49.1453C14.2243 49.1579 14.2345 49.1934 14.2573 49.2264C14.2776 49.2593 14.3131 49.3556 14.3334 49.4393C14.3893 49.6471 14.3918 50.5873 14.3385 50.79C14.2878 50.9776 14.0162 51.454 13.8689 51.6086C13.6405 51.8494 13.6583 51.8342 13.2445 52.1028C13.176 52.1459 13.0085 52.2169 12.874 52.2599C12.6303 52.336 12.6227 52.336 12.1379 52.3258C11.7622 52.3208 11.6099 52.3081 11.4982 52.2751C11.021 52.1307 10.4931 51.71 10.2443 51.2766C10.1301 51.079 10.0921 50.9979 10.0895 50.9548C10.0895 50.9421 10.0794 50.9244 10.0641 50.9168C10.0514 50.9092 10.0235 50.8255 10.0007 50.7318C9.96768 50.605 9.95753 50.4454 9.95753 50.0931C9.95753 49.6902 9.96514 49.604 10.0108 49.4545C10.0413 49.3582 10.0743 49.2669 10.0844 49.2543C10.0946 49.239 10.153 49.1326 10.2139 49.016C10.3027 48.8437 10.3763 48.7499 10.5946 48.5345C10.8129 48.314 10.9043 48.2456 11.0896 48.1468C11.214 48.0834 11.3866 48.0099 11.4754 47.9871C11.5617 47.9618 11.6404 47.9313 11.648 47.9212C11.6632 47.8933 12.6912 47.8908 12.7039 47.9161C12.709 47.9288 12.8156 47.9719 12.94 48.015C13.0669 48.0581 13.2039 48.1087 13.2471 48.1265L13.3258 48.1594L15.7472 46.1371C17.0798 45.0245 18.2119 44.0741 18.2652 44.0285L18.3591 43.9449H9.20875H0.0584106V53.8794Z" fill="#4D616B"/>
<path d="M21.9887 53.8793V63.8137H32.3955H42.8022V53.8793V43.9448H39.2182H35.6317L33.228 48.6662C31.9031 51.2639 30.8218 53.4028 30.8218 53.4205C30.8218 53.4408 30.8928 53.5295 30.9817 53.6233C31.1289 53.7804 31.205 53.9122 31.4411 54.4089C31.4792 54.4951 31.4792 55.6989 31.4386 55.7825C31.4233 55.8155 31.3675 55.9396 31.3116 56.0588C31.2583 56.1753 31.1619 56.3401 31.0959 56.4237C31.0274 56.5073 30.9741 56.5808 30.9741 56.591C30.9741 56.5986 30.8751 56.6898 30.7558 56.7912C30.5223 56.9888 30.2608 57.1409 30.0349 57.2119C29.9588 57.2372 29.8852 57.2651 29.8725 57.2778C29.8395 57.3082 28.7074 57.3082 28.6744 57.2778C28.6617 57.2651 28.6059 57.2423 28.55 57.2245C28.314 57.1485 27.9891 56.961 27.7937 56.7861C27.5855 56.596 27.3799 56.3477 27.3393 56.2286C27.3241 56.1905 27.3063 56.1601 27.2936 56.1601C27.2657 56.1601 27.1515 55.8915 27.1134 55.7344C27.0956 55.6634 27.0728 55.6026 27.0601 55.6026C27.0499 55.6026 27.0398 55.3745 27.0398 55.0957C27.0398 54.8169 27.0499 54.5889 27.0601 54.5889C27.0703 54.5889 27.1007 54.5128 27.1236 54.4165C27.1743 54.2341 27.1972 54.1808 27.3647 53.9071C27.5018 53.6892 27.8444 53.3318 28.017 53.2355C28.0881 53.195 28.1693 53.1392 28.1998 53.1139C28.2531 53.0657 28.6541 52.9162 28.7277 52.9162C28.748 52.9162 28.7658 52.9035 28.7658 52.8909C28.7658 52.8757 28.9206 52.8655 29.1821 52.8655H29.5983L31.7736 48.5876C32.9717 46.2358 33.9946 44.2286 34.0504 44.1273L34.1494 43.9448H28.0678H21.9887V53.8793Z" fill="#4D616B"/>
<path d="M43.8937 49.5581V55.1715H43.9597C44.0942 55.1715 44.7059 54.9992 45.277 54.799C46.9599 54.211 48.5818 53.1669 49.7037 51.953C50.922 50.6326 51.5642 49.3148 51.8993 47.4419C52.0769 46.4586 52.0617 45.1914 51.8586 44.2031L51.8053 43.9446H50.0743H48.3432L48.3254 44.4945C48.3178 44.7986 48.3051 45.4449 48.2975 45.934L48.2823 46.821L48.5691 46.9604C48.8026 47.0744 48.8914 47.1353 49.0564 47.2899C49.3737 47.594 49.5895 47.931 49.7062 48.3086C49.7494 48.4531 49.757 48.5469 49.757 48.9371C49.757 49.5504 49.7215 49.6949 49.4575 50.1283C49.3229 50.3513 49.0107 50.6807 48.8305 50.7923C48.762 50.8353 48.6579 50.9012 48.6021 50.9392C48.5463 50.9773 48.3863 51.0457 48.2467 51.0888C48.0031 51.1648 47.9802 51.1673 47.5284 51.1673C47.0969 51.1673 47.0487 51.1623 46.8558 51.1014C46.6502 51.0355 46.5081 50.9722 46.4827 50.9392C46.4751 50.9316 46.4014 50.886 46.3177 50.8379C46.1121 50.7238 45.7288 50.3361 45.607 50.1181C45.5562 50.0269 45.4725 49.8571 45.4217 49.7405L45.3278 49.5327V48.9473C45.3278 48.5519 45.3379 48.3492 45.3557 48.3264C45.3709 48.3061 45.3988 48.2453 45.4166 48.1895C45.4725 48.0096 45.6425 47.7105 45.7821 47.5433C46.0588 47.2088 46.3684 46.9883 46.7695 46.8337L46.9522 46.7652L46.97 45.8301C46.9776 45.3156 46.9903 44.6821 46.9954 44.4185L47.003 43.9446H45.4496H43.8937V49.5581Z" fill="#4D616B"/>
<path d="M43.5764 0.821092C41.2032 1.41918 39.1497 2.38222 37.307 3.76341C36.312 4.5085 35.5886 5.19276 34.8576 6.06963C33.1037 8.1807 31.8295 10.8012 31.3015 13.3811C31.0908 14.405 30.9842 15.5479 31.0274 16.3133C31.1441 18.4598 31.6696 20.5 32.6493 22.606C33.7103 24.8944 35.4668 27.2716 37.2943 28.8986C38.1852 29.6944 38.7842 30.1455 40.264 31.1415C42.1347 32.401 44.4267 33.9343 45.5232 34.654C47.9447 36.2456 48.6909 36.8107 49.8128 37.9106C50.7063 38.7849 51.2825 39.4591 51.8003 40.232C52.5161 41.304 52.9425 42.2392 53.2344 43.3746C53.4527 44.2236 53.5009 44.7076 53.5009 45.9849C53.4984 46.8922 53.4933 47.0442 53.4425 47.4168C53.1303 49.7179 52.1531 51.7378 50.5692 53.3572C49.9854 53.9553 49.493 54.3633 48.8458 54.7941C47.5335 55.6609 45.9446 56.2488 44.4267 56.4262C44.2389 56.449 44.046 56.4718 44.0028 56.4794L43.9191 56.4921V60.1517V63.8137H44.7262C45.5055 63.8137 45.5512 63.8112 45.9852 63.7377C49.7342 63.1092 53.0161 61.6013 55.7726 59.2368C57.6306 57.6402 59.3414 55.2199 60.4379 52.6374C61.3466 50.4909 61.8745 48.3114 61.9938 46.2003C62.0751 44.776 61.7933 42.9209 61.2451 41.2711C60.3947 38.714 58.9226 36.3647 56.6813 33.99C55.1711 32.3909 52.4577 30.2469 49.922 28.6528C49.7265 28.5286 49.4575 28.3538 49.3255 28.26C49.1935 28.1662 47.6147 27.0663 45.8177 25.8144C44.0231 24.5624 42.4469 23.4499 42.3149 23.3409C41.9849 23.0647 41.0712 22.1346 40.8478 21.8457C40.0483 20.8117 39.4873 19.5775 39.2259 18.2596C39.1167 17.7224 39.0736 17.289 39.0558 16.5616C39.0254 15.3502 39.1294 14.4658 39.3959 13.6801C39.6371 12.9731 40.0863 12.1824 40.6346 11.493C40.9468 11.1002 42.0509 10.0054 42.4723 9.67087C42.8759 9.34902 43.485 8.93846 43.8886 8.71544L44.1729 8.55831V4.62254C44.1729 1.48761 44.1653 0.68424 44.1424 0.686774C44.1247 0.686774 43.8708 0.747597 43.5764 0.821092Z" fill="#7AB523"/>
<path d="M25.7022 3.52258C25.527 3.5682 25.2757 3.67971 25.1539 3.76334C25.0092 3.86218 24.7757 4.12575 24.6945 4.28034C24.5828 4.49322 24.4762 4.85816 24.4762 5.02796C24.4762 5.18508 24.5523 5.4892 24.6361 5.67674C24.9382 6.35593 25.7529 6.73861 26.4383 6.52826C26.9408 6.37367 27.3266 6.0062 27.5119 5.50947C27.5754 5.33461 27.5855 5.27632 27.5855 5.03049C27.5855 4.72131 27.5348 4.52617 27.3876 4.25753C27.2657 4.04211 26.9865 3.77601 26.7606 3.6645C26.3799 3.47696 26.0499 3.43388 25.7022 3.52258Z" fill="#7AB523"/>
<path d="M10.2215 11.2218C9.95751 11.3105 9.76714 11.427 9.57931 11.6171C8.75184 12.456 9.09197 13.7763 10.2342 14.1692C10.4144 14.2325 10.8637 14.235 11.0693 14.1768C11.5744 14.0323 12.0059 13.6015 12.1505 13.0971C12.2115 12.8868 12.2064 12.4433 12.1404 12.2558C12.0516 11.9922 11.9323 11.8046 11.7343 11.607C11.318 11.1939 10.7444 11.0469 10.2215 11.2218Z" fill="#7AB523"/>
<path d="M7.08932 30.7158C6.61467 30.8451 6.34308 31.0301 6.10956 31.3773C5.97503 31.5826 5.84558 31.9399 5.82781 32.173C5.81259 32.3631 5.90904 32.7255 6.04356 32.9815C6.28977 33.4529 6.84818 33.7823 7.3939 33.7823C8.06654 33.7798 8.68586 33.3262 8.87877 32.6926C8.90923 32.5912 8.91938 32.467 8.91684 32.2263C8.91431 31.9323 8.90669 31.8791 8.84324 31.7169C8.64018 31.1948 8.26452 30.8603 7.7188 30.7158C7.48274 30.655 7.31014 30.655 7.08932 30.7158Z" fill="#7AB523"/>
<path d="M47.0513 47.4902C46.7746 47.584 46.6274 47.6727 46.4319 47.8703C46.2365 48.068 46.0969 48.3189 46.0258 48.6002C45.9344 48.9601 45.9725 49.2642 46.1578 49.6443C46.3456 50.0397 46.7061 50.3235 47.1807 50.4579C47.6655 50.5947 48.2366 50.4274 48.63 50.0346C48.8331 49.8344 48.96 49.6114 49.0463 49.3048C49.1834 48.8232 49.0184 48.2505 48.6275 47.8577C48.4397 47.6701 48.2975 47.589 47.9701 47.4775C47.7112 47.3888 47.3355 47.3939 47.0513 47.4902Z" fill="#7AB523"/>
<path d="M11.8155 48.6103C11.3916 48.7193 10.9906 49.0285 10.8129 49.3833C10.6987 49.6114 10.5921 49.9662 10.5921 50.1182C10.5921 50.2982 10.7494 50.7721 10.8713 50.9571C11.2317 51.5019 11.9475 51.7908 12.5313 51.6236C13.0922 51.4639 13.4882 51.0965 13.6506 50.582C13.7725 50.1993 13.7217 49.7051 13.5288 49.3681C13.407 49.1526 13.0745 48.8333 12.8765 48.7396C12.4932 48.5596 12.1658 48.5191 11.8155 48.6103Z" fill="#7AB523"/>
<path d="M29.045 53.5548C28.7303 53.6461 28.611 53.6917 28.4841 53.7677C28.149 53.9679 27.9333 54.2442 27.7987 54.642C27.6845 54.9816 27.6769 55.1337 27.7607 55.4251C27.8901 55.8661 28.0932 56.1652 28.4028 56.3679C28.6973 56.5605 28.9511 56.6416 29.2709 56.6416C29.6948 56.6416 30.0629 56.4895 30.3649 56.1854C30.4741 56.0765 30.5908 55.9295 30.6365 55.8433C31.0122 55.1312 30.804 54.2594 30.1593 53.8387C29.9613 53.712 29.8319 53.6511 29.6288 53.5928C29.4435 53.5422 29.1542 53.5219 29.045 53.5548Z" fill="#7AB523"/>
<path d="M54.5213 70.9275L52.2216 76.7766L53.0745 76.7842C53.5441 76.7868 53.9324 76.7868 53.9375 76.7817C53.94 76.7766 54.2065 76.0721 54.5264 75.2155L55.1076 73.6594L57.1103 73.6518L59.1155 73.6468L59.6891 75.2104C60.0064 76.0696 60.2704 76.7766 60.2729 76.7817C60.278 76.7868 60.6663 76.7868 61.1359 76.7842L61.9888 76.7766L59.6891 70.9275L57.3869 65.0808H57.1052H56.8235L54.5213 70.9275ZM57.8159 70.3522C58.1992 71.3481 58.5088 72.1642 58.5038 72.1693C58.5012 72.1743 57.8616 72.1743 57.0874 72.1718L55.6787 72.1642L56.2828 70.6183C56.6153 69.7667 56.9351 68.9482 56.9935 68.7986C57.0519 68.6491 57.1027 68.53 57.1077 68.5351C57.1128 68.5401 57.4326 69.3587 57.8159 70.3522Z" fill="#7AB523"/>
<path d="M3.56368 65.1341C2.30726 65.281 1.24627 66.0591 0.822388 67.1463C0.687862 67.491 0.639635 67.7419 0.624406 68.16C0.6041 68.7176 0.682785 69.0749 0.928994 69.5539C1.30465 70.2787 2.08643 70.9123 2.96212 71.2012C3.10172 71.2468 3.62206 71.3836 4.11194 71.5028C4.60436 71.6219 5.07901 71.7461 5.16531 71.7739C5.87855 72.0198 6.36843 72.4937 6.52073 73.0892C6.5791 73.3148 6.5791 73.6924 6.52073 73.885C6.31513 74.5718 5.72372 75.104 4.93179 75.3144C4.72366 75.3676 4.63482 75.3777 4.27185 75.3802C3.77943 75.3828 3.66013 75.3574 3.26925 75.1674C2.96973 75.0229 2.74637 74.8607 2.52047 74.62C2.20065 74.2804 1.95698 73.8318 1.92144 73.5125L1.90368 73.368H0.951838H0L0.0152294 73.591C0.0558412 74.1536 0.256362 74.7163 0.599023 75.2181C0.797006 75.5095 1.28942 75.9834 1.61686 76.2039C3.40377 77.3925 5.88617 77.2683 7.28981 75.915C7.81523 75.4081 8.12997 74.8455 8.28988 74.1283C8.35333 73.8369 8.36602 73.0867 8.31272 72.8054C8.18581 72.1363 7.9599 71.7004 7.49795 71.2367C6.937 70.674 6.18568 70.3015 5.04855 70.0253C4.21855 69.8225 3.29209 69.564 3.1601 69.5007C2.84282 69.3461 2.53823 68.9938 2.4164 68.6365C2.29456 68.2867 2.35294 67.8711 2.57631 67.4935C2.68545 67.3085 3.02811 66.9664 3.21087 66.8599C3.54845 66.6622 3.97995 66.5862 4.39876 66.6496C5.13231 66.7611 5.62981 67.1792 5.71357 67.7495L5.73133 67.8812L6.62987 67.8888L7.5284 67.8939L7.51064 67.6962C7.40657 66.4519 6.14507 65.352 4.58405 65.1442C4.28454 65.1036 3.86066 65.1011 3.56368 65.1341Z" fill="#7AB523"/>
<path d="M15.935 65.1873C15.9274 65.2329 15.6127 67.8129 15.237 70.9225C14.8588 74.032 14.5441 76.6221 14.5365 76.6829L14.5212 76.7894H15.2979H16.0746L16.0873 76.7311C16.0949 76.7007 16.3132 75.2612 16.5696 73.5353C16.8285 71.8069 17.0442 70.3903 17.0468 70.3877C17.0493 70.3852 17.755 71.8779 18.6129 73.7077L20.1739 77.0301H20.4404H20.7069L22.2679 73.7279C23.1259 71.9108 23.8315 70.4384 23.8391 70.4561C23.8442 70.4764 24.0625 71.9058 24.3239 73.6342L24.796 76.7767L25.5778 76.7843L26.3596 76.7894L26.3443 76.6829C26.3367 76.6221 26.022 74.032 25.6438 70.9225C25.2656 67.8129 24.9534 65.2329 24.9458 65.1873L24.9306 65.1062H24.6691H24.4077L22.4202 69.5083C21.3263 71.9311 20.4303 73.9155 20.4277 73.9205C20.4252 73.9231 19.5343 71.9412 18.4479 69.5159L16.4731 65.1062H16.2117H15.9503L15.935 65.1873Z" fill="#7AB523"/>
<path d="M41.2031 70.9605V76.7894H42.0534H42.9037L42.9088 72.879L42.9164 68.9685L46.5664 73.0057L50.2189 77.0428H50.4956H50.7723V71.2013V65.3597H49.922H49.0717L49.0666 69.2879L49.059 73.216L45.4039 69.1738L41.7488 65.1316H41.4773H41.2031V70.9605Z" fill="#7AB523"/>
<path d="M32.6163 65.2456C32.2254 65.2937 31.8726 65.3723 31.4944 65.499C30.5807 65.7981 29.8573 66.2441 29.1694 66.9284C28.2556 67.8432 27.7201 68.895 27.5043 70.2128C27.4409 70.6006 27.4409 71.5408 27.5043 71.9361C27.6312 72.7294 27.8927 73.4567 28.2836 74.103C29.2024 75.6261 30.705 76.6322 32.4716 76.9084C32.8778 76.9718 33.7661 76.9718 34.1697 76.9084C35.4388 76.7108 36.5252 76.171 37.4314 75.2941C38.3705 74.3843 38.9441 73.2717 39.165 71.9361C39.2284 71.5433 39.2284 70.6056 39.165 70.2128C39.0609 69.5818 38.9086 69.0901 38.6497 68.5528C38.3426 67.9193 37.9898 67.42 37.4999 66.9309C36.6014 66.0388 35.4795 65.4686 34.223 65.2709C33.8575 65.2126 32.9768 65.2 32.6163 65.2456ZM34.0073 66.8498C35.0429 67.0728 35.9795 67.714 36.5887 68.6162C37.4821 69.9391 37.5887 71.7055 36.8628 73.1526C36.2891 74.293 35.2383 75.104 33.9844 75.3752C33.6189 75.4537 32.9742 75.4537 32.6087 75.3752C30.9411 75.0153 29.6948 73.7254 29.3445 71.9944C29.2938 71.7435 29.2862 71.6346 29.2862 71.1125C29.2862 70.4536 29.3217 70.19 29.4765 69.7161C29.9639 68.2259 31.2228 67.0982 32.7001 66.8295C33.0453 66.7662 33.6621 66.7763 34.0073 66.8498Z" fill="#7AB523"/>
<path d="M10.6936 71.0745V76.7893H11.5566H12.4196L12.4145 71.0795L12.4069 65.3723L11.5515 65.3647L10.6936 65.3596V71.0745Z" fill="#7AB523"/>
</g>
<defs>
<clipPath id="clip0_218_99">
<rect width="63" height="78" fill="white"/>
</clipPath>
</defs>
</svg>
